<svg xmlns="http://www.w3.org/2000/svg" xmlns:xlink="http://www.w3.org/1999/xlink" width="50.274" height="51.905" viewBox="0 0 50.274 51.905"><defs><clipPath id="a"><rect width="50.274" height="51.905" fill="none"/></clipPath></defs><g clip-path="url(#a)"><path d="M73.546,287.679a12.225,12.225,0,0,0,4.966-2.286q4.846-3.087,9.7-6.155c.984-.622,1.989-1.215,2.94-1.886a2.4,2.4,0,0,0-.1-4.1,2.058,2.058,0,0,0-1.507-.265,14.592,14.592,0,0,0-2.688,1.031c-.358.147-.713.3-1.065.47-.153.072-.341.182-.459-.056-.26.3-.688.327-.975.583a2.559,2.559,0,0,1,.31,3.507,7.523,7.523,0,0,1-1.707,1.241c-2.162,1.391-4.351,2.74-6.514,4.129a7.1,7.1,0,0,1-3.809,1.142c-4.132.045-8.264.032-12.4.006a9.249,9.249,0,0,1-3.218-.739c-2.246-.856-4.5-1.684-6.753-2.523l-1.558-.578q0,1.413,0,2.826c.152-.1.325.009.477.066,2.536.954,5.081,1.883,7.617,2.838a12.961,12.961,0,0,0,2.364.716c.147.025.362-.012.371.242H73.325c-.027-.175.114-.2.221-.209" transform="translate(-42.119 -235.983)" fill="#fecabd"/><path d="M230.494,286.994a10.126,10.126,0,0,0,4.34-1.785c2.276-1.468,4.575-2.9,6.861-4.352,2.216-1.406,4.438-2.8,6.639-4.232a2.527,2.527,0,0,0-.016-4.25,2.78,2.78,0,0,0-2.83,0c-.912.392-1.816.8-2.724,1.206-.1.045-.209.14-.305-.012-.009.012-.02.02-.029.031.118.239.306.128.459.056.352-.165.707-.323,1.065-.47a14.6,14.6,0,0,1,2.688-1.031,2.057,2.057,0,0,1,1.506.265,2.4,2.4,0,0,1,.1,4.1c-.951.671-1.956,1.264-2.94,1.886q-4.856,3.071-9.7,6.155a12.224,12.224,0,0,1-4.966,2.286c-.108.013-.248.034-.221.209.025-.022.048-.06.075-.063" transform="translate(-199.213 -235.152)" fill="#fecabd"/><path d="M59.184,358.131a12.97,12.97,0,0,1-2.364-.716c-2.535-.955-5.081-1.884-7.617-2.838-.152-.057-.325-.169-.477-.066v.018c1.444.542,2.882,1.1,4.334,1.62a50.825,50.825,0,0,0,6.495,2.224c-.009-.254-.224-.217-.371-.242" transform="translate(-42.128 -306.467)" fill="#fecabd"/><path d="M87.52,106.218c1.366.151,2.731.318,4.1.473,1.016.116,2.031.274,3.051.325a4.368,4.368,0,0,1,4.12,3.211,5.029,5.029,0,0,1,.061,1.356h0q.01.51.021,1.02a1.1,1.1,0,0,0,.076-.834,1.2,1.2,0,0,1,.6-1.22,11.819,11.819,0,0,0,3.239-4.138,13.487,13.487,0,0,0,1.326-4.679,16.733,16.733,0,0,0-.537-6.128A22.351,22.351,0,0,0,100.85,89.5a32.76,32.76,0,0,0-5.284-6.276A17.083,17.083,0,0,1,93.9,81.7h0a23.448,23.448,0,0,1-3.647-.524,2.591,2.591,0,0,1-1.168-.658,1.365,1.365,0,0,1-.514.519,38.329,38.329,0,0,0-4.295,3.837,26.185,26.185,0,0,0-5.944,9.366,18.109,18.109,0,0,0-1.014,6.308c.008.487.126.97.1,1.46-.006.121.049.265-.036.36a19.781,19.781,0,0,1,6.16,2.691,9.709,9.709,0,0,0,3.979,1.161m2.87-6.022a.793.793,0,0,1,1.152-.229,5.181,5.181,0,0,0,1.753.756c.551.1.615.049.616-.505q0-1.292,0-2.584c0-.878-.013-1.757.007-2.634a.569.569,0,0,0-.386-.616,5.513,5.513,0,0,1-2.062-1.341A3.743,3.743,0,0,1,93.294,87.2c.559-.174.673-.421.62-.908a1.7,1.7,0,0,1,.009-.505.786.786,0,0,1,.784-.725c.444,0,.83.317.766.714-.163,1.019.348,1.328,1.211,1.49a3,3,0,0,1,1.281.694.783.783,0,1,1-.95,1.238,3.784,3.784,0,0,0-1.168-.589c-.232-.072-.344-.005-.343.258q.009,2.2,0,4.408c0,.25.158.305.332.375a9.738,9.738,0,0,1,1.444.6,4.4,4.4,0,0,1-1.389,7.929c-.3.064-.42.2-.391.515a5.292,5.292,0,0,1,0,.86.851.851,0,0,1-.813.812.869.869,0,0,1-.774-.805c-.037-.384.15-.853-.083-1.131s-.729-.147-1.1-.242a6.534,6.534,0,0,1-2.016-.915.776.776,0,0,1-.322-1.085" transform="translate(-66.841 -69.612)" fill="#e9bb6b"/><path d="M76.567,101.814c.023-.491-.1-.973-.1-1.46a18.11,18.11,0,0,1,1.014-6.308,26.187,26.187,0,0,1,5.944-9.367,38.306,38.306,0,0,1,4.3-3.837,1.367,1.367,0,0,0,.514-.519l-.033-.03a40.784,40.784,0,0,0-5.567,5.066c-3.453,3.889-5.878,8.249-6.267,13.551a13.352,13.352,0,0,0,.162,3.263h.005c.086-.1.031-.239.036-.36" transform="translate(-65.992 -69.419)" fill="#e9bb6b"/><path d="M48.6,252.689c.185-.136.39.012.571.079q3.271,1.219,6.546,2.43a15.111,15.111,0,0,0,3.914,1.167c.269.024.536.05.806.05,3.913,0,7.826.013,11.739-.007a7.63,7.63,0,0,0,4.173-1.19c2.414-1.547,4.843-3.07,7.261-4.61A2.466,2.466,0,0,0,84.4,246.8c-.047-.07-.1-.135-.142-.209a.273.273,0,0,1-.02-.067c-1.676.725-3.354,1.447-5.028,2.178-1.726.753-3.448,1.515-5.172,2.272h0q-4.4,0-8.8.006a.764.764,0,1,1,.028-1.518q4.311,0,8.622,0a3.817,3.817,0,0,0-1.291-3.312,3.761,3.761,0,0,0-2.058-1c-2.021-.267-4.051-.467-6.074-.714-.886-.108-1.776-.191-2.661-.309a10.209,10.209,0,0,1-4.073-1.575,16.6,16.6,0,0,0-4.713-2.046.678.678,0,0,1-.471-.256.257.257,0,0,1-.11.066,23.952,23.952,0,0,0-3.54-.237.481.481,0,0,1-.287-.087c-.007,1.614-.02,3.228-.019,4.842q0,3.931.017,7.862" transform="translate(-42.007 -207.487)" fill="#fedccd"/><path d="M49.018,239.692a23.933,23.933,0,0,1,3.54.237.257.257,0,0,0,.11-.066l0,0a15.216,15.216,0,0,0-3.935-.31c0,.018,0,.037,0,.055a.482.482,0,0,0,.287.087" transform="translate(-42.132 -207.106)" fill="#fedccd"/><path d="M84.347,288.24a.274.274,0,0,0,.02.067c.041.074.094.139.142.209a2.466,2.466,0,0,1-.783,3.806c-2.418,1.54-4.847,3.064-7.261,4.61a7.63,7.63,0,0,1-4.173,1.19c-3.913.02-7.826.007-11.739.007-.27,0-.538-.026-.807-.05a15.115,15.115,0,0,1-3.914-1.168q-3.272-1.218-6.546-2.43c-.181-.067-.386-.215-.571-.079,0,.005,0,.01,0,.015l1.558.578c2.252.839,4.508,1.667,6.753,2.523a9.25,9.25,0,0,0,3.218.739c4.132.026,8.265.039,12.4-.006a7.1,7.1,0,0,0,3.809-1.142c2.163-1.39,4.352-2.738,6.514-4.129a7.521,7.521,0,0,0,1.707-1.241,2.559,2.559,0,0,0-.31-3.507l-.014.006" transform="translate(-42.118 -249.202)" fill="#fedccd"/><path d="M78.279,242.133a16.6,16.6,0,0,1,4.713,2.046,10.21,10.21,0,0,0,4.073,1.574c.886.118,1.775.2,2.661.309,2.024.247,4.053.447,6.074.713a3.762,3.762,0,0,1,2.058,1,3.816,3.816,0,0,1,1.291,3.312h.129a5.034,5.034,0,0,0-.061-1.356,4.368,4.368,0,0,0-4.12-3.211c-1.02-.051-2.034-.21-3.051-.325-1.366-.155-2.73-.323-4.1-.473a9.708,9.708,0,0,1-3.979-1.161,19.782,19.782,0,0,0-6.161-2.691l0,0a.677.677,0,0,0,.471.256" transform="translate(-67.271 -209.121)" fill="#fedccd"/><path d="M77.793,241.869h-.005l0,0,0,0" transform="translate(-67.254 -209.115)" fill="#fedccd"/><path d="M203.434,80.206a17.687,17.687,0,0,1-3.089.21,31.656,31.656,0,0,1,3.807,3.569,28.423,28.423,0,0,1,3.771,5.132,20.141,20.141,0,0,1,2.685,8.011,14.279,14.279,0,0,1-2.572,10.113,9.47,9.47,0,0,1-1.9,2.027,1.388,1.388,0,0,0-.68,1.406.9.9,0,0,1-.063.547c-.037.073-.087.131-.153.1q0,.159,0,.317a5.521,5.521,0,0,0,1.309-.538q4.006-1.761,8.011-3.526c.274-.121.539-.347.88-.222-.013-.117.075-.191.173-.237a2.918,2.918,0,0,1,.808-.366,2.019,2.019,0,0,1,.422-.9,13.726,13.726,0,0,0,1.74-5.768,17.7,17.7,0,0,0-1.747-9.036,28.852,28.852,0,0,0-7.274-9.437c-.881-.789-1.783-1.55-2.737-2.249a1.112,1.112,0,0,1-.322-.332c-.815.926-1.967,1-3.072,1.173" transform="translate(-173.215 -68.33)" fill="#e7ad4d"/><path d="M246.164,79.115c.954.7,1.856,1.46,2.737,2.25a28.848,28.848,0,0,1,7.274,9.437,17.7,17.7,0,0,1,1.747,9.036,13.723,13.723,0,0,1-1.74,5.768,2.016,2.016,0,0,0-.422.9l.038-.006a14.178,14.178,0,0,0,2.314-8.589,19.268,19.268,0,0,0-2.483-8.506,33.139,33.139,0,0,0-9.751-10.66c-.012.014-.024.026-.036.039a1.112,1.112,0,0,0,.322.332" transform="translate(-212.55 -68.081)" fill="#e7ad4d"/><path d="M312.808,283.746a2.922,2.922,0,0,0-.809.366c-.1.046-.185.12-.172.237l.015.005c.287-.256.715-.282.975-.583l-.009-.019v-.006" transform="translate(-269.599 -245.322)" fill="#e7ad4d"/><path d="M319.075,283.706v.006l.009.019c.009-.011.02-.019.029-.031l-.038.006" transform="translate(-275.865 -245.282)" fill="#e7ad4d"/><path d="M204.907,120.047a.9.9,0,0,0,.063-.547,1.388,1.388,0,0,1,.68-1.406,9.477,9.477,0,0,0,1.9-2.027,14.279,14.279,0,0,0,2.572-10.113,20.142,20.142,0,0,0-2.685-8.011,28.429,28.429,0,0,0-3.771-5.132,31.647,31.647,0,0,0-3.807-3.569h-.077a17.079,17.079,0,0,0,1.671,1.524,32.756,32.756,0,0,1,5.284,6.276,22.35,22.35,0,0,1,2.728,6.108,16.736,16.736,0,0,1,.537,6.128,13.49,13.49,0,0,1-1.326,4.679,11.818,11.818,0,0,1-3.239,4.138,1.2,1.2,0,0,0-.6,1.22,1.1,1.1,0,0,1-.076.834v0c.066.026.116-.031.153-.1" transform="translate(-172.726 -77.156)" fill="#e7ad4d"/><path d="M245.837,288.183q-4,1.764-8.011,3.526a5.515,5.515,0,0,1-1.309.538q0,.088,0,.175,2.586-1.137,5.172-2.272c1.674-.73,3.352-1.452,5.028-2.177,0,0,0-.007,0-.011-.341-.126-.606.1-.88.222" transform="translate(-204.489 -248.934)" fill="#e7ad4d"/><path d="M311.835,288.2a.1.1,0,0,0,0,.011l.014-.006-.015-.005" transform="translate(-269.607 -249.169)" fill="#e7ad4d"/><path d="M7.4,238.422a13.3,13.3,0,0,1,.044-2.444.456.456,0,0,1,.095-.1.819.819,0,0,1-.165-.654q-.008-5.724,0-11.448a.85.85,0,0,1,.144-.628l-.007-.005a1.766,1.766,0,0,1-.127-.988c-.025-1.13-.493-1.609-1.609-1.614-1.064-.005-2.128-.01-3.191,0a1.336,1.336,0,0,0-1.47,1.439c-.028.911-.008,1.824-.008,2.736q0,7.346,0,14.693c0,.22-.008.44.01.658A1.325,1.325,0,0,0,2.4,241.381c1.214.055,2.432.055,3.646,0a1.365,1.365,0,0,0,1.324-1.4,5.468,5.468,0,0,1,.072-1.158.219.219,0,0,0-.045-.4" transform="translate(-0.951 -190.666)" fill="#407092"/><path d="M6.495,237.682a5.468,5.468,0,0,0-.072,1.158,1.365,1.365,0,0,1-1.324,1.4c-1.214.054-2.432.054-3.646,0a1.325,1.325,0,0,1-1.288-1.317c-.018-.219-.01-.439-.01-.658q0-7.346,0-14.693c0-.912-.02-1.824.008-2.736a1.336,1.336,0,0,1,1.47-1.439c1.064-.012,2.128-.007,3.191,0,1.116.006,1.584.485,1.609,1.614A1.766,1.766,0,0,0,6.56,222l.007.005c.011-.011.019-.023.031-.034-.008-.4-.012-.809-.023-1.214a1.478,1.478,0,0,0-1.531-1.535q-1.747-.019-3.494,0A1.463,1.463,0,0,0,0,220.781Q0,229.822,0,238.863a1.487,1.487,0,0,0,1.565,1.554q1.722.012,3.444,0a1.5,1.5,0,0,0,1.564-1.564c.011-.421.015-.843.022-1.265l-.011-.01a.382.382,0,0,0-.093.1" transform="translate(0 -189.527)" fill="#407092"/><path d="M47.454,333.942a13.3,13.3,0,0,0-.044,2.444.381.381,0,0,0,.138.3l.01-.008q0-1.413,0-2.826l-.008-.009a.452.452,0,0,0-.095.1" transform="translate(-40.96 -288.631)" fill="#407092"/><path d="M48.659,354.776l-.011.008.011.01h0v-.018" transform="translate(-42.06 -306.733)" fill="#407092"/><path d="M47.413,240.455q-.008,5.724,0,11.448a.819.819,0,0,0,.165.654l.008-.006c-.006-2.621-.016-5.241-.017-7.862,0-1.614.012-3.228.019-4.842-.01-.007-.021-.013-.031-.021a.85.85,0,0,0-.144.628" transform="translate(-40.989 -207.35)" fill="#407092"/><path d="M48.534,239.632c0-.018,0-.037,0-.055a.452.452,0,0,0-.031.034c.01.008.021.014.031.021" transform="translate(-41.935 -207.134)" fill="#407092"/><path d="M48.657,333.8l.008.009V333.8l-.008.006" transform="translate(-42.068 -288.593)" fill="#407092"/><path d="M177.432,8.615a1.063,1.063,0,0,0-.087.23,16.508,16.508,0,0,0,4.386.421A11.983,11.983,0,0,0,183.869,9a6.722,6.722,0,0,1,1.557-.157c-.029-.255.155-.421.273-.61a19.352,19.352,0,0,0,2.36-4.56,3.242,3.242,0,0,0,.179-1.341c-.083-.7-.445-.937-1.063-.624a2.116,2.116,0,0,1-2.249-.131,2.027,2.027,0,0,0-2.407,0,2.141,2.141,0,0,1-1.433.4l-.023,0a10.987,10.987,0,0,1-1.182,2.758c-.732,1.347-1.6,2.61-2.451,3.881" transform="translate(-153.329 -1.025)" fill="#e7ad4d"/><path d="M204.83.956a2.141,2.141,0,0,0,1.433-.4,2.027,2.027,0,0,1,2.407,0,2.116,2.116,0,0,0,2.249.131c.618-.313.979-.077,1.063.623a3.24,3.24,0,0,1-.179,1.341,19.343,19.343,0,0,1-2.36,4.56c-.119.189-.3.355-.273.61h.036q.231-.361.461-.722a18.461,18.461,0,0,0,2.289-4.485,2.885,2.885,0,0,0,.12-1.59c-.167-.637-.5-.809-1.073-.512A2.188,2.188,0,0,1,208.58.363a1.889,1.889,0,0,0-2.23,0,2.579,2.579,0,0,1-1.516.472c-.008.038-.019.075-.027.113l.023,0" transform="translate(-177.072 0)" fill="#e7ad4d"/><path d="M162.06,59.693a7.519,7.519,0,0,0,3.626.941,6.041,6.041,0,0,1,1,.163l.07.055a.859.859,0,0,1,.583-.114,19.8,19.8,0,0,0,3.613-.4,2.992,2.992,0,0,0,1.68-.75.38.38,0,0,1,.3-.142.815.815,0,0,1-.01-.43,1.9,1.9,0,0,0-1.012-2.244.432.432,0,0,1-.145-.134c-.41.259-.893.139-1.336.235a14.583,14.583,0,0,1-6.224,0,1.6,1.6,0,0,1-.432-.137.464.464,0,0,1-.115-.119c-.145.007-.227-.106-.332-.178h0a.775.775,0,0,1-.863.347l-.044-.032a2.276,2.276,0,0,0-.79,2.5l.028,0a.368.368,0,0,1,.271.373c0,.008-.006.015-.009.023a.206.206,0,0,1,.146.032" transform="translate(-139.66 -48.798)" fill="#fedf7d"/><path d="M162.482,77.663c0-.008.006-.015.008-.023a.368.368,0,0,0-.271-.373l-.028,0c.007.032.014.064.022.1a.388.388,0,0,1,.22.314.316.316,0,0,1,.048-.01" transform="translate(-140.228 -66.8)" fill="#fedf7d"/><path d="M168.069,56.682a.775.775,0,0,0,.863-.347h0l-.025-.017a1.5,1.5,0,0,1-.837.3l-.046.037.044.032" transform="translate(-145.271 -48.691)" fill="#fedf7d"/><path d="M237.185,57.921a1.9,1.9,0,0,1,1.011,2.244.816.816,0,0,0,.01.43.321.321,0,0,1,.062.011,3.705,3.705,0,0,1,.053-.393,1.946,1.946,0,0,0-1.247-2.448l-.034.021a.431.431,0,0,0,.145.135" transform="translate(-204.94 -49.943)" fill="#fedf7d"/><path d="M169.037,81.427h0a.443.443,0,0,1,.036-.031l-.07-.055a6.04,6.04,0,0,0-1-.163,7.517,7.517,0,0,1-3.626-.941.205.205,0,0,0-.146-.032c0,.014-.01.027-.015.04a2.592,2.592,0,0,0,1.168.658,23.431,23.431,0,0,0,3.647.524" transform="translate(-141.983 -69.343)" fill="#fedf7d"/><path d="M164.027,80.219a.316.316,0,0,0-.048.01l.033.03c.005-.013.01-.026.015-.04" transform="translate(-141.773 -69.356)" fill="#fedf7d"/><path d="M205.924,78.8a2.994,2.994,0,0,1-1.68.75,19.815,19.815,0,0,1-3.613.4.859.859,0,0,0-.583.114l.04.032a17.688,17.688,0,0,0,3.089-.21c1.105-.174,2.257-.247,3.072-1.173-.007-.012-.015-.022-.021-.034s0-.01,0-.016a.38.38,0,0,0-.3.142" transform="translate(-172.958 -68.008)" fill="#fedf7d"/><path d="M245.653,78.666c0,.005,0,.01,0,.016s.014.022.021.034c.012-.013.024-.025.036-.039h0a.31.31,0,0,0-.061-.011" transform="translate(-212.387 -68.013)" fill="#fedf7d"/><path d="M199.816,89.013a.42.42,0,0,0-.036.031h.077l-.04-.032" transform="translate(-172.726 -76.959)" fill="#fedf7d"/><path d="M181.587,58.173a16.513,16.513,0,0,1-4.386-.421h-.023a.464.464,0,0,0,.115.119,1.6,1.6,0,0,0,.432.137,14.581,14.581,0,0,0,6.224,0c.443-.1.927.024,1.336-.235v0c0-.007,0-.012,0-.019a6.707,6.707,0,0,0-1.557.157,12,12,0,0,1-2.137.262" transform="translate(-153.185 -49.931)" fill="#fedf7d"/><path d="M237.021,57.765c0,.007,0,.012,0,.019l0,0,.033-.021h-.036" transform="translate(-204.924 -49.943)" fill="#fedf7d"/><path d="M158.05,8.676c-.077-.176.084-.339.181-.491.552-.865,1.15-1.7,1.675-2.583a18.342,18.342,0,0,0,1.752-3.572.764.764,0,0,1,.1-.2,3.112,3.112,0,0,1-1.086-.45,1.771,1.771,0,0,0-2.049-.043,2.369,2.369,0,0,1-2.574.2c-.53-.282-.876-.055-.947.547a4.1,4.1,0,0,0,.322,1.98,20.565,20.565,0,0,0,1.986,3.753,1.267,1.267,0,0,1,.331.7c.142-.022.223.075.311.158" transform="translate(-134.078 -0.894)" fill="#e9bb6b"/><path d="M156.839,7.692a1.268,1.268,0,0,0-.331-.7,20.565,20.565,0,0,1-1.986-3.753,4.1,4.1,0,0,1-.322-1.98c.071-.6.417-.829.947-.547a2.369,2.369,0,0,0,2.574-.2,1.772,1.772,0,0,1,2.049.043,3.112,3.112,0,0,0,1.086.45.687.687,0,0,1,.084-.1,2.872,2.872,0,0,1-.978-.388,2.021,2.021,0,0,0-2.49-.02,2.018,2.018,0,0,1-2.193.125c-.765-.387-1.191-.1-1.237.781a4.712,4.712,0,0,0,.406,2.012A22.58,22.58,0,0,0,156.815,7.7h0a.22.22,0,0,1,.024,0" transform="translate(-133.178 -0.069)" fill="#e9bb6b"/><path d="M178.749,10.7c-.525.883-1.122,1.718-1.675,2.583-.1.152-.257.315-.181.491.014.014.029.027.044.039a1.065,1.065,0,0,1,.087-.231c.854-1.27,1.719-2.534,2.451-3.881a10.987,10.987,0,0,0,1.182-2.759l-.057-.012a.763.763,0,0,0-.1.2,18.35,18.35,0,0,1-1.752,3.572" transform="translate(-152.921 -5.994)" fill="#e9bb6b"/><path d="M204.446,6.3c.009-.038.02-.075.027-.113a.7.7,0,0,0-.084.1l.057.012" transform="translate(-176.711 -5.35)" fill="#e9bb6b"/><path d="M175.055,56.473a.275.275,0,0,1-.021-.04c-.088-.083-.169-.18-.311-.158,0,.007,0,.013,0,.02.1.072.187.185.332.178" transform="translate(-151.061 -48.651)" fill="#e9bb6b"/><path d="M174.568,56.3a.219.219,0,0,0-.024,0h0l.025.017c0-.007,0-.013,0-.02" transform="translate(-150.908 -48.672)" fill="#e9bb6b"/><path d="M177.021,57.464a.289.289,0,0,0,.021.04h.023c-.015-.012-.03-.025-.044-.039" transform="translate(-153.049 -49.682)" fill="#e9bb6b"/><path d="M101.478,40.748a12.211,12.211,0,0,0-2.506.3A8.5,8.5,0,0,0,95,42.935a5.006,5.006,0,0,0-.909,1.079.724.724,0,0,0,.062,1.007c.291.207.671.122.958-.269,1.321-1.8,3.251-2.369,5.321-2.631a5.318,5.318,0,0,1,1.7-.085,1.9,1.9,0,0,1,.811-2.507c-.464-.323-.824-.766-1.3-1.083a5.524,5.524,0,0,0-3.8-.9,6.41,6.41,0,0,1-3.755-.749,2.364,2.364,0,0,0-.5-.238A.615.615,0,0,0,93,37.618a2.447,2.447,0,0,0,.507.332,8.3,8.3,0,0,0,4.8.873,4.01,4.01,0,0,1,3.454,1.452c.079.089.173.2.12.315l0,.006.012.013h-.02c-.078.136-.245.139-.389.139" transform="translate(-80.197 -31.579)" fill="#fecf64"/><path d="M100.737,39.188a4.01,4.01,0,0,0-3.454-1.452,8.3,8.3,0,0,1-4.8-.873,2.454,2.454,0,0,1-.507-.332.615.615,0,0,1,.577-1.064,2.377,2.377,0,0,1,.5.238,6.409,6.409,0,0,0,3.755.749,5.524,5.524,0,0,1,3.8.9c.478.317.839.76,1.3,1.083.02-.009.039-.02.06-.028a5.7,5.7,0,0,0-5.413-2.062,3.856,3.856,0,0,1-.858,0A6.828,6.828,0,0,1,92.8,35.41a.779.779,0,1,0-.767,1.351,8.235,8.235,0,0,0,5.244,1.114,4.034,4.034,0,0,1,3.58,1.634l0-.006c.052-.113-.041-.226-.12-.315" transform="translate(-79.175 -30.492)" fill="#fecf64"/><path d="M106.758,68.193c-2.071.261-4,.831-5.321,2.631-.287.391-.668.476-.958.269a.724.724,0,0,1-.061-1.007,5.01,5.01,0,0,1,.909-1.079A8.5,8.5,0,0,1,105.3,67.12a12.222,12.222,0,0,1,2.506-.3c.143,0,.31,0,.389-.139a12.436,12.436,0,0,0-3.457.428,7.338,7.338,0,0,0-4.438,2.883c-.334.5-.287,1,.1,1.251a.818.818,0,0,0,1.16-.35,5.09,5.09,0,0,1,2.034-1.7,11.582,11.582,0,0,1,4.914-.986c-.021-.033-.038-.068-.056-.1a5.319,5.319,0,0,0-1.7.085" transform="translate(-86.527 -57.651)" fill="#fecf64"/><path d="M161.526,58.715l-.014-.01a1.9,1.9,0,0,0-.811,2.507l.034.006a2.276,2.276,0,0,1,.79-2.5" transform="translate(-138.772 -50.755)" fill="#fecf64"/><path d="M161.938,77.22c.018.034.035.069.056.1-.008-.032-.015-.064-.022-.1l-.034-.006" transform="translate(-140.009 -66.763)" fill="#fecf64"/><path d="M167.94,58.537l.046-.037c-.021.008-.04.019-.06.028l.014.01" transform="translate(-145.186 -50.578)" fill="#fecf64"/><path d="M173.515,130.338a6.534,6.534,0,0,0,2.016.915c.374.095.869-.038,1.1.242s.046.748.083,1.131a.869.869,0,0,0,.774.805.851.851,0,0,0,.813-.812,5.292,5.292,0,0,0,0-.861c-.03-.312.092-.45.391-.515a4.4,4.4,0,0,0,1.389-7.929,9.767,9.767,0,0,0-1.444-.6c-.174-.069-.334-.125-.332-.375q.013-2.2,0-4.408c0-.264.111-.33.343-.258a3.787,3.787,0,0,1,1.168.589.783.783,0,1,0,.95-1.238,3,3,0,0,0-1.281-.694c-.863-.162-1.375-.471-1.211-1.49.064-.4-.322-.715-.766-.714a.786.786,0,0,0-.784.725,1.7,1.7,0,0,0-.009.505c.053.487-.06.734-.62.908a3.743,3.743,0,0,0-1.825,5.838,5.512,5.512,0,0,0,2.062,1.341.569.569,0,0,1,.386.616c-.02.878-.007,1.756-.007,2.634q0,1.292,0,2.584c0,.555-.065.608-.616.505a5.181,5.181,0,0,1-1.753-.756.793.793,0,0,0-1.152.229.776.776,0,0,0,.322,1.085m5.205-5.929a2.469,2.469,0,0,1,1.826,2.444,3.128,3.128,0,0,1-1.921,2.79c-.287.1-.317-.024-.316-.251,0-.809,0-1.619,0-2.428,0-.759.012-1.518-.005-2.276-.008-.353.105-.386.415-.278m-2.007-2.589a2,2,0,0,1-1.636-1.61,2.381,2.381,0,0,1,1.166-2.341c.31-.159.483-.186.476.264-.018,1.225-.006,2.451-.006,3.686" transform="translate(-149.644 -98.669)" fill="#fefefe"/><path d="M176.356,311.516a.2.2,0,0,1-.071-.056,2.113,2.113,0,0,1-.08-.88,1.51,1.51,0,0,1-.69.073q-3.718.007-7.436,0a3.115,3.115,0,0,0-.655.035.562.562,0,0,0-.487.565.55.55,0,0,0,.477.569,2.434,2.434,0,0,0,.554.034c2.732,0,5.463,0,8.194,0,.034,0,.066-.007.1-.01a.308.308,0,0,1,.095-.328" transform="translate(-144.331 -268.521)" fill="#fecbbe"/><path d="M235.414,310.908a.2.2,0,0,0,.071.056l0,0-.021-1.02h0a.6.6,0,0,1-.132.086,2.115,2.115,0,0,0,.08.88" transform="translate(-203.459 -267.969)" fill="#fecbbe"/><path d="M174.8,311.3c-2.73.006-5.462,0-8.194,0a2.433,2.433,0,0,1-.554-.034.55.55,0,0,1-.477-.569.562.562,0,0,1,.487-.565,3.11,3.11,0,0,1,.655-.035q3.718,0,7.436,0a1.508,1.508,0,0,0,.69-.073c0-.013,0-.027,0-.04s0-.031,0-.046q-4.311,0-8.622,0a.764.764,0,1,0-.028,1.518q4.4,0,8.8-.006h0a.491.491,0,0,1-.1-.165c-.033,0-.065.009-.1.01" transform="translate(-142.968 -267.97)" fill="#fecbbe"/><path d="M235.381,310.028a.6.6,0,0,0,.132-.086h-.129c0,.015,0,.031,0,.046s0,.027,0,.04" transform="translate(-203.506 -267.97)" fill="#fecbbe"/><path d="M235.694,317.822c.033,0,.066,0,.1-.01q0-.158,0-.317h0a.309.309,0,0,0-.095.328" transform="translate(-203.763 -274.499)" fill="#fecbbe"/><path d="M236.5,317.479v0l0,0h0" transform="translate(-204.467 -274.483)" fill="#fecbbe"/><path d="M235.793,319.853a.491.491,0,0,0,.1.165q0-.088,0-.175c-.032.005-.065.007-.1.01" transform="translate(-203.862 -276.53)" fill="#fecbbe"/><path d="M211.648,192.282c0,.809,0,1.619,0,2.428,0,.227.029.347.316.252a3.128,3.128,0,0,0,1.921-2.79,2.469,2.469,0,0,0-1.825-2.444c-.31-.107-.423-.074-.416.279.017.758.005,1.517.005,2.276" transform="translate(-182.982 -163.988)" fill="#e9bb6b"/><path d="M188.9,141.109a2.381,2.381,0,0,0-1.166,2.341,2,2,0,0,0,1.636,1.61c0-1.235-.012-2.461.006-3.686.007-.45-.166-.424-.476-.264" transform="translate(-162.303 -121.909)" fill="#e9bb6b"/></g></svg>