<svg xmlns="http://www.w3.org/2000/svg" xmlns:xlink="http://www.w3.org/1999/xlink" width="112" height="112" viewBox="0 0 112 112"><defs><clipPath id="a"><rect width="86.007" height="74.821" fill="none"/></clipPath></defs><g transform="translate(-393 -812)"><circle cx="56" cy="56" r="56" transform="translate(393 812)" fill="#9ea257"/><g transform="translate(406 831)"><g clip-path="url(#a)"><path d="M64.877,73.89a36.311,36.311,0,0,0,9.6.3A35.755,35.755,0,0,0,88.64,69.843a37.19,37.19,0,0,0,10.542-8.575,42.368,42.368,0,0,0,5.128-7.524q1.121-10,2.25-20a1.365,1.365,0,0,0-.672-1.525,4.766,4.766,0,0,1-2.143-4.732c.291-2.811.605-5.619.909-8.428-.309.446-.4.112-.549-.14a37.4,37.4,0,0,0-4.941-6.833,37.7,37.7,0,0,0-12.022-8.7A38.936,38.936,0,0,0,72.13,0c-.043.369-.321.339-.578.339a33.533,33.533,0,0,0-5.237.51,34.932,34.932,0,0,0-9.25,2.84,38.2,38.2,0,0,0-9.95,6.66,40.825,40.825,0,0,0-6.949,8.576,1.274,1.274,0,0,0-.245.8c.223.734.464,1.464.666,2.2.775,2.835-.24,5.218-2.113,7.215a3.553,3.553,0,0,0-.883,3.284c.646,4.954,1.218,9.917,1.813,14.878q.714,5.952,1.423,11.905a.95.95,0,0,0,.1.235c.029-.137.018-.357.1-.4.189-.094.286.111.378.24.611.855,1.283,1.659,1.961,2.463A36.874,36.874,0,0,0,54.4,70.594,36.183,36.183,0,0,0,63.911,74c.295-.286.635-.166.966-.1m7.753-52.369q0-6.907,0-13.814c0-1.171,0-1.114,1.2-1.053a26.381,26.381,0,0,1,7.918,1.588C92.28,12.166,98.921,19.633,101.72,30.52a30.515,30.515,0,0,1,.745,5.238c.045.573-.112.8-.74.8q-14.172-.027-28.344,0c-.718,0-.761-.322-.759-.883.014-4.719.008-9.438.008-14.157m.863,16.787q14.049.038,28.1,0c.729,0,.924.2.866.916a30.638,30.638,0,0,1-13.7,23.882A30.312,30.312,0,0,1,73.3,68.295c-.745.05-.685-.344-.685-.826q.008-7.124,0-14.249c0-4.664.014-9.327-.015-13.991,0-.695.157-.923.891-.922M41.661,44.543c-2.086-9.718-.181-18.565,5.957-26.372A30.056,30.056,0,0,1,65.8,7.116c1.453-.3,2.933-.391,4.4-.563.587-.069.561.294.56.69-.006,2.174,0,4.348,0,6.522V25.95c0,6.15-.015,12.3.019,18.449,0,.761-.194.947-.946.945q-13.574-.041-27.149,0c-.632,0-.889-.183-1.021-.8m10.532,16.8a30.947,30.947,0,0,1-8.188-10.264c-.5-.991-.852-2.052-1.3-3.069-.284-.648-.1-.813.588-.808,4.453.027,8.906.014,13.359.014,4.367,0,8.734.015,13.1-.015.743-.005,1.03.138,1.025.973-.038,6.406-.02,12.813-.021,19.219,0,1.02-.034.941-1.093.858a33.018,33.018,0,0,1-6.112-1.036A30.416,30.416,0,0,1,52.193,61.34" transform="translate(-28.929)" fill="#f0f6f7"/><path d="M11.591,113.41q-1.134-9.23-2.231-18.465c-.354-2.95-.727-5.9-1.061-8.851A1.711,1.711,0,0,1,8.74,84.6c.295-.31.541-.664.822-.987A7.654,7.654,0,0,0,11.1,75.62a5.866,5.866,0,0,1-.292-.895,1.313,1.313,0,0,1,.013-.471l-.511-.891c-.075-.084-.155-.165-.225-.253a5.225,5.225,0,0,0-5.34-1.9A4.946,4.946,0,0,0,.456,74.994c-1.054,4.051-.329,6.778,2.69,9.2.533.427,1.091.825,1.661,1.2a.942.942,0,0,1,.485.747c.071.823.153,1.646.23,2.469.268,2.026.55,4.05.8,6.078.358,2.879.694,5.76,1.036,8.64a3.509,3.509,0,0,1,0,.425Q8.237,110.878,9.108,118c.156,1.291.8,1.98,1.844,1.887.992-.088,1.516-.865,1.4-2.138-.1-1.162-.241-2.322-.363-3.483h0c-.433-.146-.361-.54-.4-.86M1.561,77.1c.386,2.627.746,5.267,3.464,6.665C2.265,83.422,1.01,80.2,1.561,77.1" transform="translate(0 -54.821)" fill="#7f4f21"/><path d="M38.349,112.735c-.6-4.96-1.167-9.924-1.813-14.878a3.554,3.554,0,0,1,.883-3.284c1.874-2,2.888-4.38,2.113-7.215-.2-.74-.443-1.47-.666-2.2l-.169-.3a1.319,1.319,0,0,0-.013.471,5.889,5.889,0,0,0,.292.895,7.653,7.653,0,0,1-1.537,7.994c-.281.324-.527.678-.822.987a1.712,1.712,0,0,0-.442,1.493c.335,2.953.708,5.9,1.061,8.851q1.107,9.233,2.231,18.465c.039.321-.032.715.4.86a.968.968,0,0,1-.1-.235q-.715-5.952-1.423-11.905" transform="translate(-27.875 -65.425)" fill="#7f4f21"/><path d="M335.12,65.526c-.709-.073-1.03.3-1.135,1.265-.274,2.528-.564,5.054-.843,7.582-.071.639-.4,1.049-1.053.963a.91.91,0,0,1-.779-1.135c.059-.568.134-1.135.2-1.7.269-2.471.528-4.943.809-7.413.085-.742-.12-1.24-.922-1.35-.759-.1-1.12.207-1.253,1.129-.106.735-.177,1.475-.256,2.214q-.363,3.366-.721,6.732c-.048.441-.154.877-.633,1.028a1.055,1.055,0,0,1-1.051-.177c-.412-.353-.331-.81-.28-1.271.274-2.47.553-4.94.8-7.413.09-.884-.224-1.312-.916-1.339-.783-.03-1.014.493-1.086,1.154-.087.795-.18,1.589-.27,2.384h0c.3.242.2.566.174.872-.242,2.471-.53,4.937-.808,7.4a4.736,4.736,0,0,0,1.958,4.642,1.839,1.839,0,0,1,.815,1.9c-.645,5.354-1.177,10.722-1.806,16.078a35.4,35.4,0,0,1-.445,3.65c-.088.2-.182.387-.276.58a9.871,9.871,0,0,1-.258,1.956c-.022.4-.024.8-.068,1.2-.242,2.186-.5,4.37-.74,6.557a1.586,1.586,0,0,0,1.328,1.807,1.54,1.54,0,0,0,1.723-1.4c.085-.536.126-1.078.185-1.618q1.611-14.523,3.216-29.047a.7.7,0,0,1,.535-.73,5.107,5.107,0,0,0,3.588-4.735c.351-3.439.751-6.873,1.139-10.308.1-.917-.164-1.39-.873-1.463m-9.213,8.091c.121,2.767.231,5.293,2.58,7.029-1.986-.217-3.569-3.141-2.58-7.029" transform="translate(-250.006 -49.125)" fill="#7f4f21"/><path d="M328.722,96.362a1.365,1.365,0,0,1,.672,1.525q-1.141,10-2.251,20c-.018.146-.032.294-.044.441.093-.193.188-.384.276-.58a35.415,35.415,0,0,0,.445-3.651c.629-5.356,1.161-10.724,1.806-16.078a1.839,1.839,0,0,0-.815-1.9,4.736,4.736,0,0,1-1.958-4.642c.278-2.467.566-4.933.808-7.4.03-.307.126-.63-.174-.873-.3,2.809-.619,5.618-.909,8.428a4.766,4.766,0,0,0,2.143,4.732" transform="translate(-251.763 -64.148)" fill="#7f4f21"/><path d="M192.925,238.259a32.865,32.865,0,0,1-3.581,5.475,37.588,37.588,0,0,1-20.275,13.393,34.043,34.043,0,0,1-10.327,1.108,36.282,36.282,0,0,1-5.5-.6.53.53,0,0,0-.487.058h0a36.735,36.735,0,0,0,9.975.721,48.346,48.346,0,0,0,6.717-1.015,36.353,36.353,0,0,0,10.814-4.563,37.447,37.447,0,0,0,6.6-5.248,41.751,41.751,0,0,0,5.988-7.75,2.4,2.4,0,0,1,.073-1.577" transform="translate(-117.773 -183.695)" fill="#d9eef4"/><path d="M153.242,254.871a36.269,36.269,0,0,0,5.5.6,34.043,34.043,0,0,0,10.327-1.108,37.589,37.589,0,0,0,20.275-13.393,32.867,32.867,0,0,0,3.581-5.475c.082-.273.173-.544.229-.82a42.352,42.352,0,0,1-5.128,7.524,37.187,37.187,0,0,1-10.542,8.576,35.759,35.759,0,0,1-14.165,4.345,36.319,36.319,0,0,1-9.6-.3c-.331-.061-.671-.181-.966.105a.529.529,0,0,1,.487-.058" transform="translate(-117.773 -180.934)" fill="#d9eef4"/><path d="M327.746,236.6c-.061.127-.122.254-.185.379a2.4,2.4,0,0,0-.073,1.577,9.866,9.866,0,0,0,.258-1.956" transform="translate(-252.408 -182.419)" fill="#d9eef4"/><path d="M328.162,235.5c.063-.125.124-.253.185-.379.012-.147.026-.294.044-.441-.056.276-.147.547-.229.82" transform="translate(-253.01 -180.935)" fill="#d9eef4"/><path d="M45.556,19.334a2.851,2.851,0,0,1,.336-.716,40.486,40.486,0,0,1,4.61-6.171,37.578,37.578,0,0,1,13.478-9.49,34.643,34.643,0,0,1,9.3-2.466C74.64.325,76.005.354,77.358.174c.2-.026.4-.012.554-.174a19.091,19.091,0,0,1-2.118.156,24.465,24.465,0,0,0-5.491.6A37.332,37.332,0,0,0,45.985,17.407c-.257.412-.4.963-.963,1.136a1.082,1.082,0,0,1,.534.791" transform="translate(-34.712)" fill="#d9eef4"/><path d="M79.156.174c-1.352.18-2.718.151-4.076.317a34.642,34.642,0,0,0-9.3,2.466A37.581,37.581,0,0,0,52.3,12.447a40.513,40.513,0,0,0-4.61,6.171,2.856,2.856,0,0,0-.336.717,2.266,2.266,0,0,0,.146.395,1.277,1.277,0,0,1,.245-.8A40.833,40.833,0,0,1,54.7,10.349a38.2,38.2,0,0,1,9.95-6.66A34.933,34.933,0,0,1,73.9.849a33.48,33.48,0,0,1,5.237-.51c.257,0,.535.03.578-.339-.153.161-.356.147-.554.174" transform="translate(-36.51)" fill="#d9eef4"/><path d="M45.556,81.76a1.082,1.082,0,0,0-.534-.791l.511.891c.007-.034.015-.067.024-.1" transform="translate(-34.712 -62.426)" fill="#d9eef4"/><path d="M47.252,84.524l.169.3a2.261,2.261,0,0,1-.146-.395c-.009.033-.017.066-.024.1" transform="translate(-36.431 -65.09)" fill="#d9eef4"/><path d="M23.985,147.539a48.881,48.881,0,0,0,.512,10.316,20.429,20.429,0,0,0,1.328,4.827,78.55,78.55,0,0,1-1.253-8.61c-.311-2.167-.445-4.351-.586-6.534" transform="translate(-18.462 -113.751)" fill="#dcedf3"/><path d="M25.956,162.258c-.342-2.88-.679-5.762-1.036-8.64-.252-2.028-.534-4.053-.8-6.079.141,2.183.275,4.367.586,6.534a78.55,78.55,0,0,0,1.253,8.61h0a3.509,3.509,0,0,0,0-.425" transform="translate(-18.594 -113.751)" fill="#dcedf3"/><path d="M81.029,67.376c.752,0,.95-.183.946-.944-.033-6.15-.019-12.3-.019-18.45V35.8q0-3.261,0-6.522c0-.4.027-.758-.56-.689-1.47.172-2.95.266-4.4.563A30.055,30.055,0,0,0,58.815,40.2c-6.139,7.808-8.043,16.655-5.957,26.373.132.615.39.8,1.021.8q13.575-.033,27.15,0m-5.2-20.966a4.877,4.877,0,0,1,2.268-.638c.8.1,1.05-.29,1.3-.868.1-.239.169-.661.543-.492.323.145.2.547.04.747-.764.935.076,1.822.023,2.725-.022.367.433.8-.108,1.11-.444,3.409-2.491,6.025-4.35,8.72a21.022,21.022,0,0,1-5.754,5.8,7.776,7.776,0,0,1-2.735,1.17,2.728,2.728,0,0,1-2.829-.985,2.579,2.579,0,0,1-.27-2.968,4.2,4.2,0,0,1,1.5-1.73A22.192,22.192,0,0,0,72.7,51.158a26.155,26.155,0,0,1,3.1-4.4h0c0-.117-.194-.258.031-.347M58.351,44.782a1.79,1.79,0,0,0,.748-.963,3.083,3.083,0,0,1,4.667-1.791c.389.23.515.225.774-.164a3.063,3.063,0,0,1,4.9-.68,1.779,1.779,0,0,0,.757.358,3.206,3.206,0,0,1,2.661,3.366,3.173,3.173,0,0,1-3.248,2.9,3.313,3.313,0,0,1-.8,1.386,3.461,3.461,0,0,0-.617,3.186c.226,1.073-.111,1.689-.936,1.888-.62.15-1.3,0-1.367-.647-.17-1.728-1.516-2.506-2.571-3.533-.221-.215-.473-.4-.71-.6h0c-1.225.991-2.539,1.425-4.005.551a3.135,3.135,0,0,1-.25-5.262" transform="translate(-40.126 -22.033)" fill="#8ac681"/><path d="M169.755,111.947l-.047.02c.019.009.036.02.055.03,0-.017-.006-.033-.007-.05" transform="translate(-130.843 -86.31)" fill="#8ac681"/><path d="M190.721,182.191q0,7.124,0,14.249c0,.481-.061.876.684.825a30.309,30.309,0,0,0,15.463-5.188,30.637,30.637,0,0,0,13.7-23.882c.058-.717-.137-.917-.866-.916q-14.049.037-28.1,0c-.734,0-.9.227-.891.922.029,4.664.015,9.327.015,13.991m8.515-12.014a4.464,4.464,0,0,1,1.148-.311,8.008,8.008,0,0,1,1.7-.2,9.11,9.11,0,0,1,6.226,2.569A21.61,21.61,0,0,1,212.5,177.7c.324.59.62.835,1.315.45a4.167,4.167,0,0,1,1.851-.608c.406-.014.761.07.91.476a.708.708,0,0,1-.422.984c-1.751.716-2.229,2.06-1.934,3.821.08.476-.011.946-.593,1.067-.612.128-.873-.294-1.061-.772a6.566,6.566,0,0,1-.561-1.873c-.043-.565-.368-.659-.821-.573a20.434,20.434,0,0,1-5.1.3c-2.753-.173-5.34-.832-7.292-3a7.941,7.941,0,0,1-2-3.81,3.876,3.876,0,0,1,2.442-3.99M192.3,186.263c.136-2.209,1.056-3.29,3.054-3.747.939-.215,1.83-.634,2.765-.872a7.876,7.876,0,0,1,7.9,2.233,4.665,4.665,0,0,1,1.307,2.915,3.158,3.158,0,0,1-2.253,3.43,14.38,14.38,0,0,1-5.067.584,16.1,16.1,0,0,1-5.076-.543c-2.062-.669-2.771-1.743-2.632-4" transform="translate(-147.032 -128.971)" fill="#f5aa43"/><path d="M191.551,58.876q14.172-.034,28.344,0c.629,0,.785-.227.74-.8a30.494,30.494,0,0,0-.745-5.238c-2.8-10.887-9.44-18.354-19.971-22.278A26.382,26.382,0,0,0,192,28.969c-1.2-.061-1.2-.118-1.2,1.053q0,6.907,0,13.814c0,4.719.006,9.438-.008,14.157,0,.561.041.885.759.884m2.907-18.9c2.278-.5,4.577-.908,6.868-1.354q.5-.1,1.007-.188A2.586,2.586,0,0,1,205.68,40.7c.127.614.241,1.231.349,1.848.065.37.151.834-.189,1.04-.763.463-.509,1.072-.373,1.691.091.416.175.834.281,1.338.508-.554.488-1.6,1.585-1.181.2.076.3-.3.419-.487a11.111,11.111,0,0,1,2.272-2.873c1.539-1.212,3.039-.751,3.652,1.114a10.8,10.8,0,0,1,.284,3.483c0,.389-.1.788.4,1.009.288.126.3.464.26.76A17.534,17.534,0,0,1,212.9,54.5a5.24,5.24,0,0,1-3.19,2.8,4.435,4.435,0,0,1-5.515-4.293c-.059-1.055-.059-1.053-1.07-.856q-2.64.514-5.281,1.024c-1.612.312-2.348-.17-2.679-1.794-.313-1.536-.6-3.079-.9-4.618-.046-.234.032-.539-.35-.586-.786-.1-.968-.671-1.064-1.339-.089-.62-.246-1.23-.348-1.848a2.432,2.432,0,0,1,1.954-3.012" transform="translate(-147.099 -22.314)" fill="#f1d281"/><path d="M87.791,226.287c0-6.406-.016-12.813.021-19.219,0-.835-.281-.978-1.025-.973-4.367.03-8.734.015-13.1.015-4.453,0-8.906.013-13.359-.014-.691,0-.872.161-.588.808.445,1.017.8,2.078,1.3,3.069a30.948,30.948,0,0,0,8.188,10.264,30.416,30.416,0,0,0,11.363,5.871,33,33,0,0,0,6.112,1.036c1.059.083,1.093.162,1.093-.858M77.6,214.581a.584.584,0,0,1,.047.164c.245.893-.919,1.286-.823,1.935.121.815.166,1.472-.512,1.989-.288.219-.288.371-.167.688a1.5,1.5,0,0,1-.912,2.07,1.474,1.474,0,0,1-1.968-1.112c-.1-.412-.252-.514-.613-.472a.678.678,0,0,1-.17-.01c-.878-.127-.954-1.169-1.477-1.442-.634-.33-1.453-.319-1.7-1.16-.116-.393-.278-.478-.652-.455a1.519,1.519,0,0,1-.905-2.771c.329-.228.32-.422.25-.774a1.52,1.52,0,0,1,1.613-1.82,1.026,1.026,0,0,1,.413.076c.39.234.586.284.892-.22a1.279,1.279,0,0,0-.108-1.418c-.137-.277-.4.005-.61.036-.354.054-.725.115-.864-.312-.156-.481.19-.647.576-.77.733-.232,1.462-.478,2.191-.722.385-.129.766-.167.919.3.141.434-.183.652-.529.732-.665.152-.476.531-.35.969.171.6.753.518,1.129.773l.248-.428a1.466,1.466,0,0,1,1.421-.772,1.369,1.369,0,0,1,1.328.909c.144.389.341.476.72.556a1.5,1.5,0,0,1,.8,2.529c-.3.317-.436.552-.189.929m8.687,5.7a2.4,2.4,0,0,1-2.148,1.266,11.069,11.069,0,0,0-3.592-.039,2.114,2.114,0,0,1-2.09-1.231,1.984,1.984,0,0,1,.176-2.331,4.106,4.106,0,0,0,.927-2.762,4.758,4.758,0,0,1,1.052-2.926,2.13,2.13,0,0,1,3.557-.008,4.95,4.95,0,0,1,1.07,3.1,3.83,3.83,0,0,0,.843,2.531,2.064,2.064,0,0,1,.205,2.4" transform="translate(-45.959 -158.897)" fill="#f7c9d5"/><path d="M6.387,97.279c-.551,3.1.7,6.323,3.464,6.665-2.718-1.4-3.078-4.038-3.464-6.665" transform="translate(-4.826 -75.001)" fill="#a38060"/><path d="M330.407,106.948c-.988,3.888.595,6.812,2.58,7.029-2.35-1.736-2.46-4.262-2.58-7.029" transform="translate(-254.508 -82.456)" fill="#a38060"/><path d="M117.98,108.926c-.018-.01-.036-.021-.055-.03-.52.225-1,.7-1.463.474-.424-.2-.02-.773-.063-1.209a5.959,5.959,0,0,1-1.668-.2,26.156,26.156,0,0,0-3.1,4.4,22.192,22.192,0,0,1-7.247,7.846,4.2,4.2,0,0,0-1.5,1.73,2.579,2.579,0,0,0,.27,2.968,2.728,2.728,0,0,0,2.829.985,7.776,7.776,0,0,0,2.735-1.17,21.022,21.022,0,0,0,5.754-5.8c1.859-2.7,3.906-5.31,4.35-8.72a1.591,1.591,0,0,1-.846-1.274M106.63,120.4a3.347,3.347,0,0,1-.746.56c-.418.2-.891.931-1.282.35-.311-.462.45-.792.8-1.1a1.889,1.889,0,0,1,1.033-.562c.242-.022.445.035.5.335a2.439,2.439,0,0,1-.307.418m6.278-7.274a29.08,29.08,0,0,1-4.2,5.562c-.355.349-.854,1.056-1.3.627-.515-.5.352-.787.629-1.122a37.036,37.036,0,0,0,4.084-5.119c.24-.423.442-.856.638-1.3.073-.164.211-.385.455-.288.2.078.112.295.136.455a2.143,2.143,0,0,1-.449,1.182" transform="translate(-79.061 -83.239)" fill="#00834e"/><path d="M75.415,89.368c1.466.874,2.78.44,4.005-.551.06-.128.132-.251.179-.383.243-.677.615-.715,1.162-.3,1.188.909,2.236.22,3.289-.335a3.437,3.437,0,0,0,.747-.8c.109-.214.271-.292.447-.046l1.177.171a3.173,3.173,0,0,0,3.249-2.9,3.205,3.205,0,0,0-2.661-3.366,1.777,1.777,0,0,1-.757-.358,3.064,3.064,0,0,0-4.9.68c-.258.389-.385.394-.773.164a3.083,3.083,0,0,0-4.667,1.791,1.79,1.79,0,0,1-.748.963,3.135,3.135,0,0,0,.25,5.262m4.5-6.206a.472.472,0,0,1,.5.551c-.03.411-.323.49-.668.471a.482.482,0,0,1-.5-.559c.046-.4.322-.485.669-.463M76.309,86.3a.646.646,0,0,1,.633.591c.02.319-.233.5-.537.544a.455.455,0,0,1-.582-.449.644.644,0,0,1,.486-.686" transform="translate(-56.94 -61.357)" fill="#00834e"/><path d="M104.088,112.515a.7.7,0,0,0-.2.006,7.049,7.049,0,0,0-.379.7c-.236.534-.427.369-.619.108-.017.008-.033.016-.051.023a4.854,4.854,0,0,1-2.279.88.67.67,0,0,1-.63-.2,1.055,1.055,0,0,0-1.765.173h0c.237.2.489.381.71.6,1.055,1.026,2.4,1.8,2.571,3.533.064.647.747.8,1.367.647.824-.2,1.161-.815.936-1.888a3.462,3.462,0,0,1,.617-3.186,3.315,3.315,0,0,0,.8-1.386c-.36.27-.717.08-1.073,0" transform="translate(-75.682 -86.744)" fill="#fefefe"/><path d="M99.927,116.319a.669.669,0,0,0,.63.2,4.851,4.851,0,0,0,2.279-.88c.018-.006.034-.015.051-.023-.032-.044-.064-.089-.1-.135-1.052.554-2.1,1.244-3.289.335-.546-.418-.919-.38-1.162.3-.047.132-.119.255-.179.383a1.055,1.055,0,0,1,1.765-.173" transform="translate(-75.682 -89.032)" fill="#fefefe"/><path d="M123.253,111.8c-.033.058-.066.115-.1.172a.718.718,0,0,1,.2-.006c.357.085.714.275,1.074,0h0l-1.177-.171" transform="translate(-94.95 -86.2)" fill="#fefefe"/><path d="M155.494,99.937h0c.467-.254.936-.028,1.4.01.4.033.46.358.439.7s.17.554.453.381a.937.937,0,0,1,.9-.158l.047-.021c0,.017.005.033.007.05a2.029,2.029,0,0,1,.637.819,1.034,1.034,0,0,1,.209.455c.541-.314.086-.743.108-1.11.054-.9-.787-1.79-.023-2.725.163-.2.284-.6-.04-.747-.374-.169-.441.253-.543.492-.248.578-.5.965-1.3.868a4.878,4.878,0,0,0-2.268.638c-.225.089-.032.23-.03.347" transform="translate(-119.824 -75.212)" fill="#fcfdfc"/><path d="M157.489,108.969c.468.221.944-.248,1.463-.474a.937.937,0,0,0-.9.158c-.283.173-.473-.047-.453-.381s-.043-.666-.439-.7c-.463-.039-.933-.265-1.4-.01a5.949,5.949,0,0,0,1.668.2c.044.436-.36,1.008.063,1.209" transform="translate(-120.088 -82.838)" fill="#fcfdfc"/><path d="M169.946,112.166a1.592,1.592,0,0,0,.846,1.274,1.031,1.031,0,0,0-.209-.455,2.028,2.028,0,0,0-.637-.819" transform="translate(-131.027 -86.479)" fill="#fcfdfc"/><path d="M219.134,185.935c1.952,2.165,4.539,2.824,7.292,3a20.423,20.423,0,0,0,5.1-.3c.453-.086.779.008.821.573a6.567,6.567,0,0,0,.561,1.873c.187.477.448.9,1.061.772.581-.121.673-.591.593-1.067-.295-1.761.183-3.1,1.934-3.821a.708.708,0,0,0,.422-.984c-.148-.406-.5-.491-.91-.476a4.161,4.161,0,0,0-1.851.608c-.7.384-.99.14-1.315-.45a21.613,21.613,0,0,0-4.192-5.47,9.11,9.11,0,0,0-6.226-2.569,7.98,7.98,0,0,0-1.7.2,4.457,4.457,0,0,0-1.148.311,3.876,3.876,0,0,0-2.442,3.99,7.942,7.942,0,0,0,2,3.81M222.6,178.3a3.8,3.8,0,0,1-.99,4.707,6.082,6.082,0,0,0,.99-4.707m3.368,9.65h0l1.732.186a4.564,4.564,0,0,1-2.243-.015,7.5,7.5,0,0,1-5.361-2.452,13.255,13.255,0,0,0,5.872,2.281m-6.464-8.282a.372.372,0,0,1,.384.444.405.405,0,0,1-.81-.033.38.38,0,0,1,.426-.411" transform="translate(-167.372 -136.928)" fill="#e95442"/><path d="M200.248,237.664a16.1,16.1,0,0,0,5.076.544,14.38,14.38,0,0,0,5.067-.584,3.158,3.158,0,0,0,2.253-3.43,4.664,4.664,0,0,0-1.307-2.915,7.876,7.876,0,0,0-7.9-2.233c-.935.237-1.826.657-2.765.872-2,.457-2.918,1.538-3.054,3.747-.139,2.257.57,3.33,2.632,4m4.865-7.947c1.779,0,3.134,1.092,3.175,2.564a2.989,2.989,0,0,1-3.429,2.766l-.085-.008c-1.7-.215-2.923-1.388-2.864-2.756a2.968,2.968,0,0,1,3.2-2.566" transform="translate(-152.347 -176.372)" fill="#fefefe"/><path d="M289.514,102.8a.735.735,0,0,1-.118.285.323.323,0,0,0,.118-.285" transform="translate(-223.122 -79.26)" fill="#7f4f21"/><path d="M272.7,102.075l-.02-.013c0,.006,0,.011,0,.017h0l0,0,.016-.007" transform="translate(-210.231 -78.689)" fill="#7f4f21"/><path d="M274.081,100.991a.472.472,0,0,1-.1.141l.11-.046-.012-.095" transform="translate(-211.238 -77.863)" fill="#7f4f21"/><path d="M274.016,89.885a1.34,1.34,0,0,0,.172.15l-.172-.15" transform="translate(-211.264 -69.3)" fill="#7f4f21"/><path d="M198.449,76.554c.1.669.277,1.242,1.064,1.339.382.047.3.352.35.586.3,1.539.585,3.081.9,4.618.331,1.623,1.067,2.106,2.679,1.794q2.641-.511,5.281-1.025c1.011-.2,1.01-.2,1.069.856a4.435,4.435,0,0,0,5.516,4.293,5.24,5.24,0,0,0,3.19-2.8,17.545,17.545,0,0,0,1.721-6.057c.044-.3.027-.633-.261-.76-.5-.221-.4-.621-.4-1.009a10.8,10.8,0,0,0-.284-3.483c-.613-1.866-2.113-2.327-3.652-1.114a11.121,11.121,0,0,0-2.272,2.873c-.12.185-.221.563-.419.487-1.1-.421-1.076.627-1.585,1.181-.106-.5-.189-.922-.281-1.338-.136-.62-.39-1.229.373-1.691.34-.206.255-.67.189-1.04-.109-.618-.222-1.234-.349-1.848a2.586,2.586,0,0,0-3.346-2.265q-.5.09-1.008.188c-2.291.446-4.59.851-6.868,1.354a2.432,2.432,0,0,0-1.954,3.012c.1.618.259,1.228.348,1.848m15.732.013h0a2.387,2.387,0,0,1,1.252-1.779c0-.058.01-.116.015-.174a2.331,2.331,0,0,1,1.464-.968c-.046.2-.076.336-.108.472.3-.127.341-.681.871-.441.585.264.205.755.343,1.118.041,0,.082-.007.123-.007h0c.023-.214.046-.428.076-.718a2.544,2.544,0,0,1,.8,1.574l.008.369.151.987h0a3.871,3.871,0,0,1-.122,1.926c0,.821-.618,1.093-1.217,1.383-.067.417-.4.309-.665.342a2.179,2.179,0,0,1-1.395,1.715.986.986,0,0,0,.005.153,9.915,9.915,0,0,1-1.191,2.132c-.1.2-.338.115-.526.1l0,.008,0,.005c.141.159.463.206.243.571-.26.428-.44.9-.715,1.338.239-.621-.083-1.374.472-1.909l-.012-.014h.013c-.426-.9-.014-1.793.032-2.689,0-.028.2-.046.3-.07h0a.311.311,0,0,1-.016-.124c-.875-.391-.375-1.144-.457-1.743h0c.037-.415-.389-.74-.228-1.18-.677-.905-.534-1.621.478-2.383m-14.135-4.4c2.766-.639,5.562-1.15,8.109-1.665a2.388,2.388,0,0,1,2.307,1.151,7.774,7.774,0,0,1,.676,2.887.484.484,0,0,1-.115.394c-.892.593-.532,1.419-.336,2.135a5.018,5.018,0,0,1-.2,3.645,6.064,6.064,0,0,0-.507,1.891c-.06.531-.343.66-.756.739q-3.015.575-6.029,1.147a1.6,1.6,0,0,1-1.97-1.294c-.368-1.726-.7-3.46-1.022-5.194-.052-.274-.083-.508-.4-.56-.664-.107-.836-.617-.943-1.17-.1-.531-.2-1.065-.276-1.6a2.184,2.184,0,0,1,1.47-2.507" transform="translate(-152.696 -54.03)" fill="#7f4f21"/><path d="M277.246,102.5h0c.026.027.051.062.076.094a.365.365,0,0,1,0-.057l.023-.017-.1-.02" transform="translate(-213.754 -79.026)" fill="#7f4f21"/><path d="M102.083,217.532c-.38-.08-.576-.167-.72-.556a1.369,1.369,0,0,0-1.328-.909,1.466,1.466,0,0,0-1.421.772l-.248.428c-.376-.255-.958-.176-1.129-.773-.125-.438-.315-.817.35-.969.346-.079.671-.3.529-.732-.153-.47-.533-.432-.919-.3-.729.243-1.458.49-2.191.722-.387.122-.732.289-.576.77.138.427.51.366.864.312.205-.031.473-.314.61-.036a1.279,1.279,0,0,1,.108,1.418c-.306.5-.5.453-.892.22a1.025,1.025,0,0,0-.413-.076,1.52,1.52,0,0,0-1.613,1.82c.071.352.08.546-.25.774a1.519,1.519,0,0,0,.905,2.771c.374-.022.536.063.652.455.248.841,1.067.83,1.7,1.16.522.272.6,1.315,1.477,1.442a.678.678,0,0,0,.17.01c.361-.042.511.059.613.472a1.475,1.475,0,0,0,1.968,1.112,1.5,1.5,0,0,0,.912-2.07c-.122-.317-.121-.469.167-.688.678-.517.633-1.174.512-1.989-.1-.649,1.068-1.042.823-1.935a.583.583,0,0,0-.047-.164c-.246-.377-.108-.612.189-.929a1.5,1.5,0,0,0-.8-2.529m-7.331,1.673c-.294,0-.512-.123-.5-.445.007-.294.235-.427.446-.533.3.07.536.167.533.494a.438.438,0,0,1-.475.484m2.913-.915a.49.49,0,0,1-.5-.474c-.043-.314.172-.449.456-.486.294.007.514.121.51.438a.5.5,0,0,1-.462.521m1.466,1.434a.409.409,0,0,1-.439-.41c0-.31.207-.43.5-.446.281.024.5.145.477.457s-.249.415-.532.4m1.294-2.3a.481.481,0,0,1-.529-.442c-.062-.307.127-.477.424-.5a.463.463,0,0,1,.553.4.553.553,0,0,1-.448.543m1.6,1.421c-.311,0-.445-.222-.433-.514s.171-.5.482-.458a.571.571,0,0,1,.493.5c-.1.261-.256.468-.542.466" transform="translate(-71.054 -165.305)" fill="#c7203d"/><path d="M147.7,232.854a4.952,4.952,0,0,0-1.071-3.1,2.13,2.13,0,0,0-3.557.008,4.758,4.758,0,0,0-1.052,2.926,4.106,4.106,0,0,1-.927,2.761,1.985,1.985,0,0,0-.176,2.331,2.114,2.114,0,0,0,2.09,1.231,11.073,11.073,0,0,1,3.592.039,2.4,2.4,0,0,0,2.148-1.266,2.064,2.064,0,0,0-.205-2.4,3.83,3.83,0,0,1-.843-2.531m.342,4.372c-1.09-2.1-.886-4.617-1.647-7.018.807.874,1.99,6.378,1.647,7.018" transform="translate(-108.416 -176.406)" fill="#c7203d"/><path d="M129.08,123.271c-.244-.1-.382.123-.455.288-.2.442-.4.875-.638,1.3a36.992,36.992,0,0,1-4.084,5.119c-.277.335-1.145.623-.629,1.122.442.428.941-.279,1.3-.627a29.081,29.081,0,0,0,4.2-5.562,2.143,2.143,0,0,0,.449-1.182c-.024-.161.06-.378-.136-.456" transform="translate(-94.919 -95.022)" fill="#319b70"/><path d="M113.123,158.958a1.889,1.889,0,0,0-1.033.562c-.354.309-1.115.639-.8,1.1.391.581.864-.154,1.282-.35a3.356,3.356,0,0,0,.746-.56,2.442,2.442,0,0,0,.307-.419c-.053-.3-.256-.357-.5-.335" transform="translate(-85.744 -122.552)" fill="#319b70"/><path d="M97.911,96.227c.346.019.638-.06.668-.471a.472.472,0,0,0-.5-.551c-.347-.022-.623.06-.669.463a.482.482,0,0,0,.5.559" transform="translate(-75.1 -73.399)" fill="#309a6f"/><path d="M83.028,110.054c.3-.041.558-.226.537-.544a.567.567,0,1,0-1.12.1.455.455,0,0,0,.582.449" transform="translate(-63.563 -83.976)" fill="#319a6f"/><path d="M120.233,112.854c-.249.137-.4.424-.615.613.307-.059.434-.374.615-.613" transform="translate(-92.224 -87.009)" fill="#91c98d"/><path d="M118.66,112.143c.215-.189.366-.475.615-.613a.664.664,0,0,1,.294-.24c-.175-.246-.338-.168-.447.046a3.438,3.438,0,0,1-.747.8.658.658,0,0,0,.284.012" transform="translate(-91.267 -85.686)" fill="#91c98d"/><path d="M118.983,113.238a.774.774,0,0,1-.188.123c.192.261.383.425.619-.108a7,7,0,0,1,.379-.7.62.62,0,0,0-.194.068c-.181.238-.308.554-.615.613" transform="translate(-91.59 -86.78)" fill="#91c98d"/><path d="M118.471,115.613a.781.781,0,0,0,.188-.123.664.664,0,0,1-.284-.012h0c.032.046.064.092.1.135" transform="translate(-91.266 -89.032)" fill="#91c98d"/><path d="M122.305,112.044a.62.62,0,0,1,.194-.068c.034-.057.067-.114.1-.172a.664.664,0,0,0-.294.24" transform="translate(-94.296 -86.2)" fill="#91c98d"/><path d="M235.6,215.275c.168-.065.381.006.511-.171a13.259,13.259,0,0,1-5.872-2.281,7.5,7.5,0,0,0,5.361,2.452" transform="translate(-177.514 -164.085)" fill="#fcefed"/><path d="M237.842,180.646a6.082,6.082,0,0,1-.99,4.707,3.8,3.8,0,0,0,.99-4.707" transform="translate(-182.611 -139.276)" fill="#fbe4e2"/><path d="M226.143,187.441a.39.39,0,0,0,.462-.378.373.373,0,0,0-.384-.444.38.38,0,0,0-.426.411.386.386,0,0,0,.348.411" transform="translate(-174.085 -143.881)" fill="#fdf5f4"/><path d="M253.651,222.956a4.564,4.564,0,0,0,2.243.015l-1.732-.186c-.052.412-.323.167-.511.171" transform="translate(-195.563 -171.765)" fill="#f5b3ac"/><path d="M253.651,222.956c.188,0,.459.24.511-.171-.13.177-.344.106-.511.171" transform="translate(-195.563 -171.765)" fill="#f5b3ac"/><path d="M219.281,238.261l.085.008a2.989,2.989,0,0,0,3.43-2.766c-.041-1.472-1.4-2.567-3.175-2.564a2.968,2.968,0,0,0-3.2,2.566c-.059,1.368,1.159,2.541,2.864,2.756m-.739-4.525c-.721.96-1.147,1.8-.682,2.818a.228.228,0,0,1-.162.331c-.076.013-.193-.087-.26-.164a1.954,1.954,0,0,1,1.1-2.985" transform="translate(-166.854 -179.594)" fill="#e95442"/><path d="M200.529,77.723c.106.553.278,1.063.942,1.17.322.052.353.286.4.56.325,1.735.655,3.469,1.022,5.194a1.6,1.6,0,0,0,1.97,1.294c2.01-.378,4.019-.764,6.028-1.148.413-.079.7-.208.756-.739a6.069,6.069,0,0,1,.507-1.892,5.018,5.018,0,0,0,.2-3.645c-.2-.716-.556-1.542.336-2.135a.484.484,0,0,0,.115-.394,7.785,7.785,0,0,0-.676-2.887,2.389,2.389,0,0,0-2.307-1.151c-2.548.515-5.343,1.026-8.11,1.665a2.184,2.184,0,0,0-1.47,2.507c.079.535.174,1.069.276,1.6M202.22,76.6c.171,0,.222.146.273.279a.282.282,0,0,1-.271.271.253.253,0,0,1-.3-.229.275.275,0,0,1,.3-.32" transform="translate(-154.373 -55.474)" fill="#fefefe"/><path d="M269.7,112.028h-.009l-.01-.006a2.6,2.6,0,0,1-1.568-.471h0c-.538-.281-.745.1-.952.479.082.6-.418,1.352.457,1.743a5.478,5.478,0,0,1,1.391.492,2.178,2.178,0,0,0,1.395-1.715c0-.487-.583-.2-.7-.522" transform="translate(-205.923 -85.929)" fill="#fefdfd"/><path d="M267.68,122.121c-.106.023-.3.041-.3.07-.047.9-.458,1.79-.032,2.689.188.011.427.1.525-.1a9.9,9.9,0,0,0,1.191-2.132,2.966,2.966,0,0,1-1.38-.522" transform="translate(-205.972 -94.154)" fill="#fdfdfc"/><path d="M268,134.2Z" transform="translate(-206.627 -103.466)" fill="#fdfdfc"/><path d="M267.946,134.17l0-.008h-.014l.017.009" transform="translate(-206.571 -103.437)" fill="#fdfdfc"/><path d="M265.637,100.722a5.4,5.4,0,0,1,.71-1.53l.087.074h0c0-.006,0-.011,0-.017l-.086-.057c-.06-.395-.592-.3-.684-.663l-.19-.116c-1.012.761-1.156,1.478-.479,2.383.226.081.459.216.643-.074" transform="translate(-203.988 -75.875)" fill="#fdfcfa"/><path d="M283.957,104.959c-.7-.018-.792.324-.807.853-.006.192.012.4-.183.533.116.284-.207.744.341.856.6-.29,1.219-.561,1.217-1.383-.057-.369.167-.84-.568-.859" transform="translate(-218.166 -80.922)" fill="#fcfbf8"/><path d="M268.816,92.493c.034.029.071.056.108.083.291.084.588.25.846-.118h0l.1-.169c.027-.136.01-.31.088-.4.44-.519.316-.915-.227-1.243a2.387,2.387,0,0,0-1.252,1.779.437.437,0,0,1,.332.071" transform="translate(-206.999 -69.885)" fill="#fcfbf9"/><path d="M268.924,98.535c-.037-.026-.074-.054-.108-.083a.437.437,0,0,0-.332-.071l.19.116a.764.764,0,0,1,.25.037" transform="translate(-206.999 -75.844)" fill="#fcfbf9"/><path d="M278.844,86.3h0c.09.323-.373.707.109.987a1.124,1.124,0,0,0,.836.176h0c.495-.047.3-.493.433-.75-.137-.362.242-.853-.343-1.118-.529-.239-.574.314-.871.441l-.163.263h0" transform="translate(-214.898 -65.944)" fill="#fcfbf9"/><path d="M284.562,96.608a1.7,1.7,0,0,1-.162.565c-.006.338.116.459.284.5a1.117,1.117,0,0,1,.516-.015,1.166,1.166,0,0,1,.124.03.368.368,0,0,0,.221-.036.735.735,0,0,0,.118-.285c0-.084,0-.174.013-.252a3.287,3.287,0,0,1,.077-.321h0q-.076-.493-.151-.987c-.665-.149-1.108-.03-1.039.8" transform="translate(-219.27 -73.824)" fill="#f9f7f3"/><path d="M286.249,104.024l.029,0a1.233,1.233,0,0,0-.124-.03,1.114,1.114,0,0,0-.516.015,5.517,5.517,0,0,0,.61.013" transform="translate(-220.225 -80.162)" fill="#f9f7f3"/><path d="M278.97,102.581c-.092.268-.349.2-.585.155-.265-.046-.528-.1-.791-.154l-.023.017a.313.313,0,0,0,0,.057c.031.04.063.075.1.077.724.062,1.121.324,1.157.813a.939.939,0,0,1,.441-.551.449.449,0,0,1-.3-.415" transform="translate(-214.003 -79.089)" fill="#a47f55"/><path d="M282.355,110.066c0-.015.007-.03.01-.044-.005.013-.009.025-.015.038l0,.006" transform="translate(-217.689 -84.826)" fill="#a47f55"/><path d="M289.066,101.159a.318.318,0,0,1-.1.085c.388.194.233.61.183.983a3.865,3.865,0,0,0,.122-1.926h0c-.03.244-.056.43-.09.573a.324.324,0,0,1-.118.285" transform="translate(-222.792 -77.331)" fill="#a47f55"/><path d="M283.882,104.4a1.343,1.343,0,0,1-.685.041.819.819,0,0,1-.226-.047.937.937,0,0,0-.441.551,1.7,1.7,0,0,1-.149.738c0,.015-.006.03-.01.044l.137.182h0c.195-.131.177-.341.183-.533.015-.529.109-.871.807-.853.735.019.512.49.568.859.049-.373.2-.788-.183-.983" transform="translate(-217.705 -80.487)" fill="#a47f55"/><path d="M288.651,104.048a.366.366,0,0,1-.221.035.776.776,0,0,1,.123.049.318.318,0,0,0,.1-.085" transform="translate(-222.377 -80.22)" fill="#a47f55"/><path d="M289.911,100.876c.033-.143.06-.329.09-.573a3.278,3.278,0,0,0-.077.321c-.011.078-.008.168-.013.252" transform="translate(-223.519 -77.333)" fill="#a47f55"/><path d="M283.714,101.958h0a.633.633,0,0,1-.029.141.449.449,0,0,0,.3.415.806.806,0,0,1,.149-.059c-.168-.041-.289-.162-.284-.5l-.134,0" transform="translate(-218.718 -78.607)" fill="#a47f55"/><path d="M285.214,104.244a1.344,1.344,0,0,0,.685-.041.751.751,0,0,0-.123-.049l-.029,0a5.517,5.517,0,0,1-.61-.013.8.8,0,0,0-.149.059.828.828,0,0,0,.226.047" transform="translate(-219.723 -80.289)" fill="#a47f55"/><path d="M274.952,86.711a1.862,1.862,0,0,1,.08-.247.528.528,0,0,1,.341-.337l.108-.472a2.331,2.331,0,0,0-1.465.968l.172.15a.53.53,0,0,0,.764-.064" transform="translate(-211.264 -66.04)" fill="#fbf9f5"/><path d="M278.182,88.053a1.858,1.858,0,0,0-.08.247,2.027,2.027,0,0,0,.257-.319h0l.163-.264a.528.528,0,0,0-.341.337" transform="translate(-214.414 -67.628)" fill="#fbf9f5"/><path d="M285.365,90.638h0a1.172,1.172,0,0,0-.124.007.694.694,0,0,1,.115.322,2.785,2.785,0,0,1,.009-.329" transform="translate(-219.918 -69.881)" fill="#ae8c63"/><path d="M284.249,92.351a.735.735,0,0,1-.327.518c-.041.01-.082.017-.123.025a1.425,1.425,0,0,1,.127.69c.14-.647.451-.731,1.211-.4q0-.185-.008-.37c-.644.205-.846-.044-.88-.464" transform="translate(-218.806 -71.202)" fill="#ae8c63"/><path d="M283.352,91.42h0a1.3,1.3,0,0,1,.1.178c.041-.007.081-.014.123-.024a.735.735,0,0,0,.327-.519c0-.021,0-.042,0-.063a.692.692,0,0,0-.115-.322c-.133.256.062.7-.433.75" transform="translate(-218.462 -69.906)" fill="#ae8c63"/><path d="M283.958,95.754c-.012.3-.084.608-.117.912a.243.243,0,0,1,.128.054,1.7,1.7,0,0,0,.162-.565c-.069-.831.373-.95,1.039-.8-.761-.33-1.071-.247-1.211.4" transform="translate(-218.839 -73.371)" fill="#ae8c63"/><path d="M283.814,101.776l.134,0a.239.239,0,0,0-.128-.054c0,.019,0,.038-.006.057" transform="translate(-218.818 -78.424)" fill="#ae8c63"/><path d="M286.657,89.078a2.544,2.544,0,0,0-.8-1.574c-.031.289-.054.5-.076.718a2.277,2.277,0,0,0,.876.856" transform="translate(-220.334 -67.465)" fill="#f3ede4"/><path d="M285.738,90.967a.559.559,0,0,1,0,.063c.035.42.236.67.88.464a2.279,2.279,0,0,1-.876-.856,2.793,2.793,0,0,0-.009.329" transform="translate(-220.3 -69.881)" fill="#f3ede4"/><path d="M285.744,92.074c0,.022,0,.043,0,.063a.558.558,0,0,0,0-.063" transform="translate(-220.306 -70.988)" fill="#f3ede4"/><path d="M268,134.2Z" transform="translate(-206.627 -103.466)" fill="#e9decb"/><path d="M266.635,134.791c.221-.364-.1-.412-.243-.571-.556.535-.233,1.288-.472,1.909.275-.433.456-.91.715-1.338" transform="translate(-205.022 -103.482)" fill="#e9decb"/><path d="M267.941,134.175l0,0-.017-.009.012.014" transform="translate(-206.571 -103.437)" fill="#e9decb"/><path d="M267.945,134.17h0l-.017-.009Z" transform="translate(-206.57 -103.437)" fill="#e9decb"/><path d="M274.138,90.035a1.338,1.338,0,0,1-.172-.15l-.015.173c.14.043.256.08.353.117-.049-.039-.106-.087-.167-.139" transform="translate(-211.214 -69.3)" fill="#ae8c63"/><path d="M276.467,91.452a.664.664,0,0,1-.158-.5c-.1.146-.183.211-.284.2.157.145.1.35-.087.8l-.13.32a4.32,4.32,0,0,0,.218-.482.514.514,0,0,1,.441-.342" transform="translate(-212.645 -70.123)" fill="#ae8c63"/><path d="M274.179,91.885c-.079.093-.061.266-.088.4h0a.608.608,0,0,0,.286-.251l.13-.32c.184-.453.244-.658.087-.8a.622.622,0,0,1-.289-.155c-.1-.036-.213-.074-.353-.117.543.329.667.724.227,1.243" transform="translate(-211.214 -69.884)" fill="#ae8c63"/><path d="M278.146,89.845a.991.991,0,0,1,.233.009h0c-.481-.28-.019-.664-.109-.987h0c-.116.209-.2.366-.281.477a.664.664,0,0,0,.158.5" transform="translate(-214.324 -68.516)" fill="#ae8c63"/><path d="M275.5,90.421a1.031,1.031,0,0,1,.024-.158.529.529,0,0,1-.764.064c.061.053.117.1.167.14a.883.883,0,0,1,.289.155c.1.01.183-.055.284-.2" transform="translate(-211.841 -69.592)" fill="#ae8c63"/><path d="M275.782,91.307a.887.887,0,0,0-.289-.155.62.62,0,0,0,.289.155" transform="translate(-212.402 -70.277)" fill="#ae8c63"/><path d="M278.278,88.871a2.014,2.014,0,0,1-.257.319,1.059,1.059,0,0,0-.024.158c.077-.111.165-.268.282-.477" transform="translate(-214.332 -68.519)" fill="#ae8c63"/><path d="M267.311,109.284c-.167-.088-.353-.162-.305-.421-.253.246-.5.287-.733-.046-.16.439.265.765.228,1.18.062-.578.31-.85.81-.712" transform="translate(-205.266 -83.897)" fill="#ac8961"/><path d="M268.343,110.972h0a.393.393,0,0,0,.058-.072.48.48,0,0,0-.2-.161c-.5-.138-.748.135-.81.712.207-.38.414-.76.952-.479" transform="translate(-206.156 -85.351)" fill="#ac8961"/><path d="M267.127,108.614c0-.015,0-.029.009-.045l-.1-.075c-.184.29-.416.155-.643.074.233.333.48.292.733.046" transform="translate(-205.387 -83.648)" fill="#ac8961"/><path d="M280.775,112.59a.531.531,0,0,1-.391.3c.2.066.363.175.267.533.263-.033.6.075.665-.342-.545.052-.568-.206-.542-.494" transform="translate(-216.173 -86.806)" fill="#a9865d"/><path d="M278.913,113.913a1.3,1.3,0,0,1-.437.012c.121.326.7.035.7.522.1-.359-.064-.468-.267-.533" transform="translate(-214.702 -87.826)" fill="#a9865d"/><path d="M282.268,110.806a.383.383,0,0,1-.136-.061.928.928,0,0,1-.066.423c-.026.288,0,.547.542.494-.548-.111-.225-.571-.341-.855" transform="translate(-217.466 -85.383)" fill="#a9865d"/><path d="M282.351,110.209s0-.009,0-.014l0-.006c0,.007,0,.013,0,.02" transform="translate(-217.689 -84.955)" fill="#a9865d"/><path d="M282.359,110.337a.383.383,0,0,0,.136.061l-.137-.183,0,.014c0,.038,0,.072.005.107" transform="translate(-217.692 -84.975)" fill="#a9865d"/><path d="M274.475,123.741a1.377,1.377,0,0,1,.231.142.958.958,0,0,1-.006-.153c-.076.007-.151.01-.226.011" transform="translate(-211.618 -95.395)" fill="#b5966e"/><path d="M269.385,121.581a.317.317,0,0,0,.016.124c.058.025.117.046.177.066a1.4,1.4,0,0,1-.193-.19" transform="translate(-207.692 -93.738)" fill="#b5966e"/><path d="M269.387,121.581a1.4,1.4,0,0,0,.193.19,7.008,7.008,0,0,1,.972.313c.074,0,.149,0,.226-.011a5.477,5.477,0,0,0-1.391-.492" transform="translate(-207.695 -93.738)" fill="#b5966e"/><path d="M269.634,122.188c-.06-.02-.119-.042-.177-.066a2.969,2.969,0,0,0,1.38.522,1.37,1.37,0,0,0-.231-.142,1.447,1.447,0,0,1-.972-.313" transform="translate(-207.749 -94.155)" fill="#b5966e"/><path d="M270.23,122.412a1.447,1.447,0,0,0,.972.313,7.022,7.022,0,0,0-.972-.313" transform="translate(-208.345 -94.378)" fill="#b5966e"/><path d="M101.722,231.089c-.211.106-.439.239-.446.533-.008.322.21.449.5.445a.438.438,0,0,0,.475-.484c0-.327-.229-.424-.533-.494" transform="translate(-78.083 -178.167)" fill="#d65b71"/><path d="M126.324,223.436c-.3.027-.486.2-.424.5a.481.481,0,0,0,.529.442.553.553,0,0,0,.448-.543.463.463,0,0,0-.552-.4" transform="translate(-97.059 -172.264)" fill="#d65e73"/><path d="M114.429,227.176c-.284.036-.5.171-.456.486a.49.49,0,0,0,.5.474.5.5,0,0,0,.462-.521c0-.317-.217-.431-.51-.438" transform="translate(-87.868 -175.151)" fill="#d65d72"/><path d="M133.816,229.524c-.311-.041-.469.162-.482.458s.122.512.433.514c.286,0,.444-.205.542-.466a.571.571,0,0,0-.493-.5" transform="translate(-102.799 -176.957)" fill="#d65e73"/><path d="M121.176,233.891c-.288.016-.5.136-.5.446a.409.409,0,0,0,.439.41c.283.017.512-.09.532-.4s-.2-.433-.477-.457" transform="translate(-93.044 -180.328)" fill="#d76075"/><path d="M167.466,241.957c.342-.64-.84-6.144-1.647-7.018.762,2.4.558,4.92,1.647,7.018" transform="translate(-127.845 -181.136)" fill="#d65d73"/><path d="M219.911,239.569a.228.228,0,0,0,.162-.331c-.466-1.015-.04-1.858.681-2.818a1.954,1.954,0,0,0-1.1,2.985c.067.076.184.176.26.163" transform="translate(-169.066 -182.278)" fill="#fdf1eb"/><path d="M207.927,92.782a.282.282,0,0,0,.271-.271c-.051-.132-.1-.276-.273-.279a.275.275,0,0,0-.3.32.253.253,0,0,0,.3.229" transform="translate(-160.078 -71.111)" fill="#976f44"/><path d="M274.693,112.289a3.7,3.7,0,0,0-.52-.163q.257.092.52.163" transform="translate(-211.385 -86.448)" fill="#a9865d"/><path d="M272.15,111.693c-.18-.044-.361-.083-.54-.128a.173.173,0,0,1-.061.071,2.6,2.6,0,0,0,1.568.471,1.921,1.921,0,0,0-.447-.251q-.263-.071-.52-.163" transform="translate(-209.362 -86.016)" fill="#a9865d"/><line transform="translate(63.765 26.098)" fill="#a9865d"/><path d="M271.61,111.563h0a.4.4,0,0,1-.058.072.171.171,0,0,0,.061-.071" transform="translate(-209.362 -86.013)" fill="#a9865d"/><path d="M272.346,99.923a.471.471,0,0,0,.1-.141l-.046-.359c-.009.009-.017.018-.027.027a.593.593,0,0,1-.511.142.552.552,0,0,1,.187.436l.02.013.279-.117" transform="translate(-209.601 -76.654)" fill="#ac8961"/><path d="M269.314,98.92c.093.361.624.268.684.663l.086.057a.551.551,0,0,0-.187-.436,2.086,2.086,0,0,1-.583-.284" transform="translate(-207.639 -76.266)" fill="#ac8961"/><path d="M270.738,98.932a.593.593,0,0,0,.511-.142c.01-.008.018-.018.027-.027q-.012-.1-.025-.2h0c-.258.368-.555.2-.846.118a3.025,3.025,0,0,1,.333.247" transform="translate(-208.48 -75.994)" fill="#ac8961"/><path d="M269.564,98.956a.764.764,0,0,0-.25-.037,2.1,2.1,0,0,0,.583.284,2.979,2.979,0,0,0-.333-.247" transform="translate(-207.639 -76.265)" fill="#ac8961"/><path d="M270.76,102.142h0l0,0a9.61,9.61,0,0,1-.572,1.32,6.477,6.477,0,0,0,.574-1.318" transform="translate(-208.311 -78.748)" fill="#ac8961"/><path d="M269.426,103.209a9.616,9.616,0,0,0,.572-1.32l-.087-.075a5.411,5.411,0,0,0-.71,1.53.276.276,0,0,1,.123.035c.036-.056.069-.114.1-.171" transform="translate(-207.551 -78.498)" fill="#ac8961"/><path d="M269.324,108.53a.282.282,0,0,0-.123-.035l.1.075c.008-.013.015-.027.024-.04" transform="translate(-207.551 -83.648)" fill="#ac8961"/><path d="M275.061,95.633h0l.1.02c.4-.318.91.065,1.321-.193a.276.276,0,0,1,.053-.008l0-.02a3.581,3.581,0,0,1-.085-1.564,1.222,1.222,0,0,1-.949-.274c-.306.279-.444.744-.849.914l-.009.024a1.258,1.258,0,0,1-.22.341.6.6,0,0,1,.013.367c-.007.018-.017.032-.025.049,0,.032.008.063.012.095l.637.251" transform="translate(-211.569 -72.159)" fill="#fdfdfc"/><path d="M274.4,97.609l.01-.024a.815.815,0,0,1-.208.056h0l-.1.169a.479.479,0,0,1,.082.139,1.25,1.25,0,0,0,.22-.341" transform="translate(-211.329 -75.237)" fill="#fdfdfc"/><path d="M280.118,93.546c0-.065.007-.129.008-.194a1.125,1.125,0,0,1-.835-.176.888.888,0,0,0-.122.1,1.221,1.221,0,0,0,.949.275" transform="translate(-215.237 -71.838)" fill="#fdfdfc"/><path d="M283.686,101.641l-.007-.019c0,.007,0,.013,0,.02h.01" transform="translate(-218.712 -78.35)" fill="#fdfdfc"/><path d="M279.051,101.709a.256.256,0,0,0-.053.008c-.411.258-.92-.125-1.321.193.263.053.527.108.791.154.236.041.493.112.584-.155a1.3,1.3,0,0,1-.009-.138c0-.021.005-.041.007-.061" transform="translate(-214.086 -78.417)" fill="#fdfdfc"/><path d="M283.652,101.707c0,.021-.006.041-.007.061a1.3,1.3,0,0,0,.009.138.618.618,0,0,0,.03-.141h0c-.009-.019-.014-.039-.022-.059h-.01" transform="translate(-218.688 -78.415)" fill="#fdfdfc"/><path d="M283.252,96.3c.026-.222.082-.439.112-.661.011-.084.025-.158.04-.229a1.421,1.421,0,0,0-.127-.691c-.037.007-.074.012-.111.016a3.582,3.582,0,0,0,.085,1.564" transform="translate(-218.285 -73.03)" fill="#fdfdfc"/><path d="M283.425,94.122a1.294,1.294,0,0,0-.1-.178h0c0,.065,0,.129-.008.194q.055-.006.111-.016" transform="translate(-218.432 -72.43)" fill="#fdfdfc"/><path d="M283.687,98.627l.007.019.028,0c.034-.3.106-.609.117-.912-.015.07-.029.145-.04.229-.03.222-.087.439-.112.661" transform="translate(-218.72 -75.355)" fill="#fdfdfc"/><path d="M283.74,101.766c0-.019,0-.038.006-.057l-.028,0c.008.02.013.04.022.059" transform="translate(-218.744 -78.415)" fill="#fdfdfc"/><path d="M276.311,93.239c-.029-.024-.058-.046-.087-.074-.01-.01-.016-.021-.024-.032a.515.515,0,0,0-.441.342,4.3,4.3,0,0,1-.217.483l-.079.2c.4-.17.543-.635.849-.914" transform="translate(-212.379 -71.805)" fill="#fdfdfc"/><path d="M274.763,96.928l.079-.2a.607.607,0,0,1-.287.251h0a.8.8,0,0,0,.207-.056" transform="translate(-211.68 -74.58)" fill="#fdfdfc"/><path d="M278.685,93.123c.009.011.015.021.024.032.028.027.058.049.087.074a.883.883,0,0,1,.122-.1h0a.99.99,0,0,0-.233-.009" transform="translate(-214.863 -71.795)" fill="#fdfdfc"/><path d="M274.268,99.175c-.018.02-.038.038-.057.057l.046.359a.537.537,0,0,0,.025-.049.6.6,0,0,0-.013-.367" transform="translate(-211.414 -76.463)" fill="#fdfdfc"/><path d="M274.126,98.764c.02-.019.039-.037.057-.057a.476.476,0,0,0-.082-.139h0l.025.2" transform="translate(-211.329 -75.995)" fill="#fdfdfc"/><path d="M269.813,103.075a.269.269,0,0,1,.053.037,3.264,3.264,0,0,1,.414.505.19.19,0,0,1,0,.029h0c.039.018.078.033.117.049a1.118,1.118,0,0,1,1.28.412c.058.013.116.027.175.039.017.009.035.016.053.024.359-.1.5-.431.713-.687a.42.42,0,0,1-.07-.11c.089-.643.1-1.235-.759-1.356a.256.256,0,0,1-.2-.27c-.025-.032-.05-.068-.076-.094h0c-.276.079-.52.077-.637-.251l-.11.046a.438.438,0,0,1-.274.121l-.005,0-.016.007h0a1.328,1.328,0,0,1-.66,1.5" transform="translate(-208.023 -78.182)" fill="#fefefd"/><path d="M277.987,113.217a1.522,1.522,0,0,1,.1.164h.009l.079-.087c.015,0,.027-.009.041-.013-.018-.007-.036-.015-.053-.024-.059-.012-.117-.026-.175-.039" transform="translate(-214.325 -87.289)" fill="#fefefd"/><path d="M278.436,113.937h.009l0-.008Z" transform="translate(-214.671 -87.839)" fill="#fefefd"/><path d="M278.394,113.932l.01.007,0-.007h-.006" transform="translate(-214.639 -87.84)" fill="#fefefd"/><path d="M271.835,111.2l0,0a.165.165,0,0,1-.011.082c.045-.012.088-.022.132-.031-.039-.017-.079-.032-.117-.049" transform="translate(-209.571 -85.732)" fill="#fefefd"/><path d="M277.677,102.988c-.035,0-.067-.038-.1-.077a.256.256,0,0,0,.2.27c.859.121.848.713.76,1.356a.4.4,0,0,0,.07.11c.019-.023.038-.047.059-.069.005-.013.009-.025.014-.038.036-.18.05-.364.091-.543a1.676,1.676,0,0,1,.058-.2c-.036-.489-.434-.751-1.157-.813" transform="translate(-214.011 -79.343)" fill="#fefefd"/><path d="M282.413,107.537a1.7,1.7,0,0,0,.148-.738,1.733,1.733,0,0,0-.058.2c-.04.179-.055.363-.091.543" transform="translate(-217.738 -82.341)" fill="#fefefd"/><path d="M270.086,109.244a3.271,3.271,0,0,0-.414-.505.274.274,0,0,0-.053-.037l0,0-.024.05-.022.019c-.048.259.137.333.3.421a1.589,1.589,0,0,1,.216.078.269.269,0,0,0,0-.029" transform="translate(-207.829 -83.807)" fill="#fefefd"/><path d="M271.132,111.018a.163.163,0,0,0,.011-.082,1.576,1.576,0,0,0-.216-.078.479.479,0,0,1,.2.161h0" transform="translate(-208.882 -85.47)" fill="#fefefd"/><path d="M269.641,108.713c-.013.008-.024.017-.037.025h0c0,.016-.006.03-.009.045l.022-.02.024-.05" transform="translate(-207.855 -83.817)" fill="#fefefd"/><path d="M279.715,110.589c.007-.02.01-.04.016-.06a.343.343,0,0,1-.036-.04c-.212.256-.354.587-.712.687.1.04.216.063.321.1a.531.531,0,0,0,.391-.3,2.115,2.115,0,0,0,.021-.382" transform="translate(-215.093 -85.186)" fill="#fefefd"/><path d="M278.539,113.5l-.079.087,0,.008a1.3,1.3,0,0,0,.437-.012c-.105-.034-.222-.057-.321-.1-.014,0-.026.01-.041.014" transform="translate(-214.69 -87.5)" fill="#fefefd"/><path d="M282.111,110.722a2.121,2.121,0,0,1-.021.382.927.927,0,0,0,.065-.423.337.337,0,0,1-.029-.019c-.006.02-.009.04-.016.06" transform="translate(-217.489 -85.319)" fill="#fefefd"/><path d="M282.13,110.3c.008-.029.017-.059.024-.088,0-.007,0-.013,0-.02-.021.022-.039.046-.059.069a.352.352,0,0,0,.036.04" transform="translate(-217.492 -84.955)" fill="#fefefd"/><path d="M282.251,110.365c.009.007.019.012.029.019,0-.035,0-.069-.005-.107-.007.03-.015.059-.024.088" transform="translate(-217.613 -85.023)" fill="#fefefd"/><path d="M272.4,111.265q.2.088.407.162a3.7,3.7,0,0,1,.52.163q.176.047.354.087a1.119,1.119,0,0,0-1.28-.412" transform="translate(-210.016 -85.749)" fill="#fefefd"/><path d="M278.419,113.93l0,.007.005-.007h-.009" transform="translate(-214.658 -87.839)" fill="#fefefd"/><path d="M276.8,112.926q-.178-.039-.354-.087a1.918,1.918,0,0,1,.447.251h.006a1.512,1.512,0,0,0-.1-.164" transform="translate(-213.133 -86.998)" fill="#fefefd"/><path d="M271.817,111.452v0c.179.046.36.084.54.128q-.205-.073-.407-.161-.065.014-.132.031" transform="translate(-209.568 -85.905)" fill="#fefefd"/><path d="M271.805,111.559v0h0" transform="translate(-209.557 -86.009)" fill="#fefefd"/><path d="M273.045,101.607l-.279.117.005,0a.439.439,0,0,0,.274-.121" transform="translate(-210.3 -78.338)" fill="#fefefd"/><path d="M269.806,103.65a1.328,1.328,0,0,0,.66-1.5h0a6.468,6.468,0,0,1-.575,1.318c-.029.06-.059.12-.087.181h0" transform="translate(-208.016 -78.757)" fill="#fefefd"/><path d="M269.84,107.9c-.034.057-.066.115-.1.171l.015.011.087-.181" transform="translate(-207.965 -83.193)" fill="#fefefd"/><path d="M269.8,108.7l0,0,0,0,0,0" transform="translate(-208.009 -83.802)" fill="#fefefd"/><path d="M269.671,108.663l0,0-.015-.011c-.009.013-.015.027-.024.04h0c.013-.008.024-.017.037-.025" transform="translate(-207.885 -83.767)" fill="#fefefd"/><path d="M275.1,101.655l-.637-.251c.117.327.361.329.637.251" transform="translate(-211.61 -78.182)" fill="#fefefd"/></g></g></g></svg>