<svg xmlns="http://www.w3.org/2000/svg" xmlns:xlink="http://www.w3.org/1999/xlink" width="112" height="112" viewBox="0 0 112 112"><defs><clipPath id="a"><rect width="74.792" height="74.821" fill="none"/></clipPath></defs><g transform="translate(-744 -812)"><circle cx="56" cy="56" r="56" transform="translate(744 812)" fill="#9ea257"/><g transform="translate(763 831)"><g clip-path="url(#a)"><path d="M.241,1.047c0,3.139.027,6.277,0,9.415A10.94,10.94,0,0,0,3.21,18.38a10.671,10.671,0,0,0,2.037,1.647,2.274,2.274,0,0,1,.664.494A38.482,38.482,0,0,1,8.97,14.789a26.165,26.165,0,0,1,7.373-7.316,2.045,2.045,0,0,0,.791-.616h0A19.39,19.39,0,0,0,5.458.266,4.9,4.9,0,0,1,3.833,0H.035A1.453,1.453,0,0,1,.241,1.047" transform="translate(-0.028)" fill="#febeaa"/><path d="M.032,9.934a17.724,17.724,0,0,0,.11,2.472A10.608,10.608,0,0,0,5.86,20.612L5.9,20.52a2.275,2.275,0,0,0-.664-.494A10.662,10.662,0,0,1,3.2,18.379,10.94,10.94,0,0,1,.229,10.462c.031-3.138.009-6.277,0-9.415A1.452,1.452,0,0,0,.027,0c0,3.312-.007,6.623,0,9.935" transform="translate(-0.02 0.001)" fill="#febeaa"/><path d="M181.729,6.854h0a31.537,31.537,0,0,1,5.43,4.462,28.621,28.621,0,0,1,5.523,8.562q.141.334.283.668c.548-.549,1.259-.878,1.844-1.385a10.587,10.587,0,0,0,3.81-8.268c.024-3.282,0-6.565.008-9.847A1.451,1.451,0,0,1,198.833,0h-3.8c-1.224.264-2.475.376-3.685.726a19.551,19.551,0,0,0-9.622,6.128" transform="translate(-146.243)" fill="#f79480"/><path d="M244.932,1.046c0,3.282.017,6.565-.008,9.847a10.585,10.585,0,0,1-3.81,8.268c-.585.507-1.3.836-1.844,1.385l.029.068a10.483,10.483,0,0,0,5.811-9.369c.125-3.744.028-7.5.028-11.245a1.451,1.451,0,0,0-.206,1.046" transform="translate(-192.548)" fill="#f79480"/><path d="M345.795,140.43a13.137,13.137,0,0,0-3.178-4.176,14.567,14.567,0,0,0-4.449-2.33c-.159,1.559-.028,3.122-.069,4.682a7.457,7.457,0,0,1,3.885,4.215,10.4,10.4,0,0,1,.474,4.328l.027.016a1.373,1.373,0,0,1,.221.971c.012.851.011,1.7,0,2.554,0,.5.214.7.7.69.827-.01,1.654-.008,2.48,0a1.363,1.363,0,0,1,.97.228v-7.6a.824.824,0,0,1-.092-.382,15.854,15.854,0,0,0-.974-3.2" transform="translate(-272.068 -107.773)" fill="#26bea5"/><path d="M361.413,205.879c-.489.006-.708-.191-.7-.69.009-.851.01-1.7,0-2.554a1.371,1.371,0,0,0-.221-.971l-.027-.016,0,.076c.008,1.286.032,2.573.015,3.859-.005.413.116.541.531.533,1.286-.024,2.573-.009,3.86-.009a1.362,1.362,0,0,0-.97-.227c-.827-.009-1.654-.011-2.48,0" transform="translate(-290.071 -162.272)" fill="#26bea5"/><path d="M344.3,67.574c-.976.006-1,.03-1,1.036,0,.752.005,1.5,0,2.255a1.382,1.382,0,0,1-.2.905c-.014.01-.028.018-.042.028a10.964,10.964,0,0,1-.468,4.342h0a7.514,7.514,0,0,1-3.765,4.13.9.9,0,0,1,.53.093,13.157,13.157,0,0,1,3.954,2.186l.021.019a11.789,11.789,0,0,0,4.026-7.436.639.639,0,0,1,.1-.19v-7.6a1.255,1.255,0,0,1-.894.227c-.752.008-1.5,0-2.255,0" transform="translate(-272.66 -54.194)" fill="#e53950"/><path d="M361.024,67.3c-.413-.008-.538.113-.532.529.02,1.286,0,2.573-.01,3.86,0,.025,0,.05,0,.074.014-.009.028-.017.042-.028a1.382,1.382,0,0,0,.2-.905c.01-.752,0-1.5,0-2.255,0-1.006.028-1.03,1-1.036.752,0,1.5,0,2.255,0a1.256,1.256,0,0,0,.894-.227c-1.287,0-2.573.016-3.859-.009" transform="translate(-290.091 -54.156)" fill="#e53950"/><path d="M338.438,133.556a14.555,14.555,0,0,1,4.449,2.33c.04-.035.078-.072.118-.107l-.021-.019a13.153,13.153,0,0,0-3.954-2.186.9.9,0,0,0-.53-.093l-.078.041Z" transform="translate(-272.34 -107.404)" fill="#e53950"/><path d="M338.172,247.149h-.008V251.1c2.646-.042,5.292-.013,7.938-.014a1.136,1.136,0,0,1,.822.232v-4.383a1.134,1.134,0,0,1-.82.231c-2.644,0-5.288.03-7.932-.014" transform="translate(-272.131 -198.714)" fill="#384949"/><path d="M338.165,268.171v.194l8.759.024a1.137,1.137,0,0,0-.822-.232c-2.646,0-5.292-.028-7.937.014" transform="translate(-272.132 -215.787)" fill="#384949"/><path d="M338.165,247.149h.008c2.644.044,5.288.012,7.932.014a1.133,1.133,0,0,0,.82-.232l-8.759.024Z" transform="translate(-272.132 -198.713)" fill="#384949"/><path d="M27.191,196.867h0a35.914,35.914,0,0,1-11.362-1.625,16.2,16.2,0,0,1-7.22-4.457c-.209-.233-.391-.533-.724-.62-.008.018-.016.035-.026.053-.822.926-1.805,1.685-2.613,2.637a15.974,15.974,0,0,0-4.117,11.452,15.572,15.572,0,0,0,3.97,9.528,21.545,21.545,0,0,1,3.638,5.256,13.227,13.227,0,0,1,1.133,5.75c-.016.681.022,1.364-.009,2.043-.03.646.307.764.858.761,2.481-.015,4.962-.007,7.443-.007,1.241,0,2.481-.014,3.721.006.539.009.734-.208.725-.736-.018-1.095-.022-2.19,0-3.285.018-.817.164-.92.964-.858a28.6,28.6,0,0,0,3.627.2l-.009-26.094h0" transform="translate(-0.891 -153.031)" fill="#febeaa"/><path d="M22.682,222.67c-.8-.062-.947.041-.964.858-.023,1.094-.02,2.19,0,3.285.009.527-.186.744-.725.736-1.24-.021-2.481-.006-3.721-.006-2.481,0-4.962-.008-7.443.007-.551,0-.888-.115-.858-.761.031-.68-.007-1.363.009-2.043a13.227,13.227,0,0,0-1.132-5.75,21.555,21.555,0,0,0-3.638-5.256,15.574,15.574,0,0,1-3.97-9.528,15.976,15.976,0,0,1,4.117-11.452c.808-.952,1.791-1.711,2.613-2.637.01-.018.018-.036.026-.053a.746.746,0,0,0-.123-.023A18.531,18.531,0,0,0,1.83,196.1a15.206,15.206,0,0,0-1.579,9.941,18.126,18.126,0,0,0,4.79,9,14.2,14.2,0,0,1,3.461,6.63,27.044,27.044,0,0,1,.259,5.446c.006.458.109.64.607.638q5.984-.026,11.968,0c.518,0,.6-.215.589-.654-.021-1.265,0-2.531-.012-3.8,0-.415.108-.537.554-.48a19.466,19.466,0,0,0,3.843.223c0-.062,0-.123,0-.185a28.629,28.629,0,0,1-3.627-.2" transform="translate(0 -152.936)" fill="#febeaa"/><path d="M160.912,201.276a.936.936,0,0,1-.3-.608,17.843,17.843,0,0,0-6.251-10.209,1.4,1.4,0,0,1-.314-.354.92.92,0,0,0-.456.363,14.438,14.438,0,0,1-6.2,4.289,29.766,29.766,0,0,1-8.877,1.944c-1.258.1-2.508.069-3.761.119a.66.66,0,0,1,.12.164,3.4,3.4,0,0,1,.1,1.157q0,11.849,0,23.7a2.32,2.32,0,0,1-.106,1.077c1.181.042,2.354-.1,3.53-.166.825-.045.914.032.929.879.018,1.045.024,2.092,0,3.137-.014.586.19.827.8.825q5.579-.022,11.158,0c.629,0,.777-.283.783-.846a34.19,34.19,0,0,1,.107-4.006,14.2,14.2,0,0,1,3.685-7.792,17.862,17.862,0,0,0,4.709-8.741,1.017,1.017,0,0,1,.345-.695,16.5,16.5,0,0,0,0-4.235" transform="translate(-108.442 -152.983)" fill="#f7947f"/><path d="M160.549,269.7a17.858,17.858,0,0,1-4.709,8.741,14.194,14.194,0,0,0-3.685,7.792,34.15,34.15,0,0,0-.107,4.006c-.006.562-.155.848-.783.846q-5.579-.023-11.158,0c-.608,0-.812-.239-.8-.825.026-1.045.02-2.091,0-3.137-.015-.847-.1-.924-.929-.879-1.176.064-2.349.209-3.53.166a.907.907,0,0,1-.118.182,21.61,21.61,0,0,0,3.852-.177c.457-.043.532.06.526.467-.018,1.289.006,2.579-.014,3.868-.007.406.115.547.534.546q6.055-.02,12.11,0c.443,0,.527-.18.515-.565-.022-.681.015-1.363-.01-2.043a14.16,14.16,0,0,1,4.038-10.443,17.3,17.3,0,0,0,4.6-9.168c0-.024.005-.049.009-.073a1.017,1.017,0,0,0-.345.695" transform="translate(-108.424 -216.474)" fill="#f7947f"/><path d="M233.543,190.015a1.407,1.407,0,0,0,.314.354,17.845,17.845,0,0,1,6.251,10.209.935.935,0,0,0,.3.608c0-.024-.005-.049-.008-.073h0a17.975,17.975,0,0,0-6.723-11.119h0a.561.561,0,0,0-.135.022" transform="translate(-187.939 -152.893)" fill="#f7947f"/><path d="M134.92,249.51q.009-11.849,0-23.7a3.394,3.394,0,0,0-.1-1.157.66.66,0,0,0-.12-.164h-.013l.009,26.094h.011l.107,0a2.318,2.318,0,0,0,.106-1.077" transform="translate(-108.388 -180.654)" fill="#f7947f"/><path d="M134.744,358.122h-.011v.185a.918.918,0,0,0,.118-.182l-.107,0" transform="translate(-108.424 -288.192)" fill="#f7947f"/><path d="M26.689,56.423a16.223,16.223,0,0,0,3.249,2.685,23.216,23.216,0,0,0,8.073,2.821,40.336,40.336,0,0,0,6.374.605,1.141,1.141,0,0,1,.827.183q0-4.373-.01-8.747a10.3,10.3,0,0,1-6.542-2.192,5.385,5.385,0,0,1-1.089-7.631,8.68,8.68,0,0,1,5.828-3.19,8.352,8.352,0,0,1,1.8-.155h0q.007-8.662.014-17.324h0a18.181,18.181,0,0,0-8.277,2.116c-.267.136-.525.407-.859.2-.048.315-.326.45-.561.6a26.982,26.982,0,0,0-10.3,12.558c-.084.2-.095.5-.382.543a1.21,1.21,0,0,1-.105.863,21.629,21.629,0,0,0-1.225,7.5,13.327,13.327,0,0,0,2.1,7.165c.186.281.454.558.324.93.357-.066.547.255.753.467" transform="translate(-18.913 -18.893)" fill="#fee0b9"/><path d="M24.821,121.041a13.327,13.327,0,0,1-2.1-7.165,21.625,21.625,0,0,1,1.225-7.5,1.211,1.211,0,0,0,.105-.863.487.487,0,0,1-.087.009,1.08,1.08,0,0,1-.021.289,24.256,24.256,0,0,0-1.315,5.712,14.415,14.415,0,0,0,2.217,9.925c.113.168.33.321.15.572a.677.677,0,0,1,.152-.048c.13-.372-.138-.649-.324-.93" transform="translate(-18.123 -84.91)" fill="#fee0b9"/><path d="M30.17,48.864c.287-.047.3-.345.382-.543a26.982,26.982,0,0,1,10.3-12.558c.236-.152.513-.287.561-.6a.712.712,0,0,1-.061-.043h0a2.047,2.047,0,0,1-.791.616,26.166,26.166,0,0,0-7.374,7.316,38.526,38.526,0,0,0-3.059,5.731c.008.011.018.021.026.033s.012.033.019.049" transform="translate(-24.243 -28.261)" fill="#fee0b9"/><path d="M29.977,105.122c-.008-.012-.017-.022-.026-.033l-.042.092a.45.45,0,0,0,.087-.009c-.006-.016-.011-.033-.019-.049" transform="translate(-24.069 -84.568)" fill="#fee0b9"/><path d="M88.777,24.824a18.186,18.186,0,0,1,8.277-2.116h0q0-.093,0-.186a16.756,16.756,0,0,0-6.76,1.392c-.794.336-1.58.69-2.369,1.036a.648.648,0,0,1-.008.073c.333.208.591-.063.858-.2" transform="translate(-70.751 -18.124)" fill="#fee0b9"/><path d="M87.675,34.963l-.069.03a.679.679,0,0,0,.061.042.651.651,0,0,0,.008-.073" transform="translate(-70.499 -28.136)" fill="#fee0b9"/><path d="M134.686,224.492Z" transform="translate(-108.386 -180.656)" fill="#fee0b9"/><path d="M36.542,190.455a16.2,16.2,0,0,0,7.22,4.457,35.913,35.913,0,0,0,11.362,1.625v-.013a1.141,1.141,0,0,0-.827-.183,40.363,40.363,0,0,1-6.374-.605,23.214,23.214,0,0,1-8.073-2.821,16.221,16.221,0,0,1-3.248-2.685c-.207-.212-.4-.534-.753-.467a.739.739,0,0,1-.029.071c.334.087.515.387.724.62" transform="translate(-28.824 -152.701)" fill="#fee0b9"/><path d="M35.312,189.871a.734.734,0,0,0,.029-.071.683.683,0,0,0-.152.048.747.747,0,0,1,.123.023" transform="translate(-28.318 -152.738)" fill="#fee0b9"/><path d="M282.476,247.964a.676.676,0,0,1,.064-.26c-4.255.035-8.509.017-12.764.009a1.841,1.841,0,0,1-.432-.051.675.675,0,0,1-.124-.042.969.969,0,0,1,.2.506,21.137,21.137,0,0,1,0,3.1.972.972,0,0,1-.2.509,1.591,1.591,0,0,1,.61-.1c4.237,0,8.474-.029,12.711.012a.678.678,0,0,1-.064-.26q-.078-1.713,0-3.427" transform="translate(-216.649 -199.268)" fill="#4a696f"/><path d="M269.383,268.157a1.59,1.59,0,0,0-.61.1,1.351,1.351,0,0,1-.108.13l13.571-.023a.633.633,0,0,1-.141-.194c-4.237-.041-8.474-.013-12.711-.012" transform="translate(-216.203 -215.786)" fill="#4a696f"/><path d="M268.9,247.113a1.856,1.856,0,0,0,.432.051c4.255.008,8.509.026,12.764-.009a.636.636,0,0,1,.141-.194l-13.571-.023a1.369,1.369,0,0,1,.111.133.692.692,0,0,0,.123.042" transform="translate(-216.202 -198.718)" fill="#4a696f"/><path d="M336.95,248.306q-.078,1.713,0,3.427a.677.677,0,0,0,.064.26h.141v-3.948h-.141a.676.676,0,0,0-.064.26" transform="translate(-271.123 -199.61)" fill="#4a696f"/><path d="M337.57,268.262h-.129a.633.633,0,0,0,.141.194v-.194h-.012" transform="translate(-271.549 -215.878)" fill="#4a696f"/><path d="M337.583,247.247v-.194a.635.635,0,0,0-.141.194h.141" transform="translate(-271.55 -198.811)" fill="#4a696f"/><path d="M269,247.877a.97.97,0,0,0-.2-.506.552.552,0,0,1-.1-.06,16.516,16.516,0,0,1,0,4.236.706.706,0,0,1,.067-.046l.033-.012a.974.974,0,0,0,.2-.509,21.086,21.086,0,0,0,0-3.1" transform="translate(-216.237 -199.019)" fill="#4a696f"/><path d="M268.739,268.72a.7.7,0,0,0-.067.045c0,.024-.005.049-.009.073a1.411,1.411,0,0,0,.108-.13l-.033.012" transform="translate(-216.202 -216.238)" fill="#4a696f"/><path d="M268.672,247.009a.571.571,0,0,0,.1.06,1.371,1.371,0,0,0-.111-.134c0,.025.005.049.008.073" transform="translate(-216.202 -198.717)" fill="#4a696f"/><path d="M134.941,24.2q.011,7.844,0,15.688a2.4,2.4,0,0,1-.078.721.576.576,0,0,1-.144.223,9.6,9.6,0,0,1,6.709,2.3,5.433,5.433,0,0,1-.173,8.651,9.811,9.811,0,0,1-6.539,2.177h0a.585.585,0,0,1,.132.185,3.331,3.331,0,0,1,.094,1.082q0,3.2,0,6.4a1.577,1.577,0,0,1-.225,1.1h0l.078-.077a7.755,7.755,0,0,1,2.1-.114,32.1,32.1,0,0,0,10.255-1.992,15.092,15.092,0,0,0,6.263-4.258c.15-.181.319-.375.569-.34a.606.606,0,0,1,.135-.566c2.564-3.849,2.732-8.046,1.814-12.4a25.458,25.458,0,0,0-.714-2.6,1.245,1.245,0,0,1-.107-.89c-.3-.145-.352-.458-.463-.726a27.517,27.517,0,0,0-8.681-11.34c-.5-.388-1.049-.707-1.566-1.071-.217-.153-.49-.265-.552-.564-.313.18-.572-.046-.818-.178a18.43,18.43,0,0,0-6.569-2.055c-.54-.063-1.077-.053-1.615-.066a1.6,1.6,0,0,1,.1.706" transform="translate(-108.409 -18.906)" fill="#febeaa"/><path d="M234.482,106.32a25.468,25.468,0,0,1,.714,2.6c.917,4.358.75,8.556-1.814,12.4a.607.607,0,0,0-.135.566.534.534,0,0,1,.17.052c-.107-.171-.041-.289.07-.448,2.39-3.406,2.742-7.216,2.185-11.2a30.631,30.631,0,0,0-1.244-4.84c-.02-.008-.036-.018-.054-.027a1.245,1.245,0,0,0,.107.89" transform="translate(-187.679 -84.843)" fill="#febeaa"/><path d="M182.019,35.694c.517.364,1.065.684,1.566,1.071a27.518,27.518,0,0,1,8.681,11.34c.112.268.167.582.463.726,0-.009.005-.018.009-.027l.016-.015q-.141-.334-.283-.667a28.624,28.624,0,0,0-5.523-8.563,31.536,31.536,0,0,0-5.43-4.462c-.017.012-.034.022-.051.032.062.3.335.411.552.564" transform="translate(-146.032 -28.244)" fill="#febeaa"/><path d="M239.142,105.26c.018.009.034.019.054.027h0l-.029-.068-.016.015c0,.009-.005.018-.009.027" transform="translate(-192.445 -84.673)" fill="#febeaa"/><path d="M134.839,22.7c.538.013,1.075,0,1.615.066a18.43,18.43,0,0,1,6.569,2.055c.246.131.5.358.818.178,0-.016-.008-.03-.01-.047a6.628,6.628,0,0,1-1.378-.642,16.847,16.847,0,0,0-7.742-1.8h0a.738.738,0,0,1,.128.189" transform="translate(-108.406 -18.109)" fill="#febeaa"/><path d="M181.477,35.037c-.021,0-.041-.01-.061-.015,0,.017.007.031.01.047.017-.01.034-.02.051-.032" transform="translate(-145.991 -28.183)" fill="#febeaa"/><path d="M134.686,224.49h0Z" transform="translate(-108.386 -180.654)" fill="#febeaa"/><path d="M134.688,224.459l.007-.007h0Z" transform="translate(-108.388 -180.623)" fill="#febeaa"/><path d="M134.686,224.49h0Z" transform="translate(-108.386 -180.654)" fill="#febeaa"/><path d="M153.413,190.053a15.089,15.089,0,0,1-6.262,4.258A32.09,32.09,0,0,1,136.9,196.3a7.762,7.762,0,0,0-2.1.114l-.078.078.007.006c1.253-.05,2.5-.015,3.761-.119a29.769,29.769,0,0,0,8.877-1.943,14.438,14.438,0,0,0,6.2-4.289.919.919,0,0,1,.456-.363c-.006-.01-.013-.019-.018-.029s-.011-.03-.017-.045c-.251-.034-.419.159-.57.34" transform="translate(-108.414 -152.664)" fill="#febeaa"/><path d="M233.381,189.773c.005.01.012.019.018.029a.571.571,0,0,1,.135-.022h0a.536.536,0,0,0-.17-.052c.006.015.01.029.017.045" transform="translate(-187.795 -152.68)" fill="#febeaa"/><path d="M134.688,224.463h.013l-.007-.006-.007.007" transform="translate(-108.388 -180.627)" fill="#febeaa"/><path d="M134.877,187.213q.009-3.2,0-6.4a3.335,3.335,0,0,0-.094-1.082.584.584,0,0,0-.133-.185l-.016.016q0,4.373.01,8.747l.006.005a1.576,1.576,0,0,0,.225-1.1" transform="translate(-108.346 -144.488)" fill="#febeaa"/><path d="M134.636,40.8l.017.017h0a.577.577,0,0,0,.143-.223,2.391,2.391,0,0,0,.078-.721q.007-7.844,0-15.688a1.6,1.6,0,0,0-.1-.707l-.129,0q-.007,8.662-.014,17.324h0" transform="translate(-108.346 -18.893)" fill="#febeaa"/><path d="M134.839,22.715a.738.738,0,0,0-.128-.189c0,.062,0,.124,0,.186l.129,0" transform="translate(-108.405 -18.127)" fill="#febeaa"/><path d="M134.686,224.49h0Z" transform="translate(-108.386 -180.654)" fill="#febeaa"/><path d="M134.692,224.428l-.006-.005v.013h0l.005-.008" transform="translate(-108.386 -180.6)" fill="#febeaa"/><path d="M302.6,85.682a30.268,30.268,0,0,1,.042-4.294.531.531,0,0,1,.161-.209.074.074,0,0,1-.03-.042,6.918,6.918,0,0,1-3.9-4.162,10.1,10.1,0,0,1-.454-4.335c-.263-.233-.221-.567-.227-.875-.016-.874-.016-1.748,0-2.622.008-.522-.2-.75-.733-.738-.849.019-1.7.01-2.548,0-.446,0-.688.172-.676.64a62.914,62.914,0,0,0,.138,6.983,10.779,10.779,0,0,0,3.154,6.414c.322.317.726.587.814,1.086,0,.021-.007.039-.01.059a17.63,17.63,0,0,0,4.335,2.3.712.712,0,0,1-.067-.2" transform="translate(-236.759 -55.048)" fill="#65d5a8"/><path d="M297.547,82.622c-.089-.5-.492-.768-.814-1.086a10.781,10.781,0,0,1-3.154-6.414,62.906,62.906,0,0,1-.138-6.983c-.011-.468.23-.644.676-.64.849.006,1.7.016,2.548,0,.533-.012.741.216.733.738-.013.874-.014,1.748,0,2.622.006.308-.035.642.227.875,0-.019,0-.039,0-.058-.008-1.24-.047-2.481-.009-3.719.018-.568-.174-.7-.7-.676-1.044.04-2.091.034-3.135,0-.464-.014-.571.152-.567.587.02,1.9.01,3.793.009,5.69a12.087,12.087,0,0,0,.641,3.787,12.686,12.686,0,0,0,3.614,5.3l.058.042c0-.02.008-.038.01-.059" transform="translate(-235.959 -54.138)" fill="#65d5a8"/><path d="M337.179,133.819a.53.53,0,0,0-.161.209,30.272,30.272,0,0,0-.042,4.294.71.71,0,0,0,.067.2l.006,0a.255.255,0,0,0,.111-.008c.041-1.56-.09-3.123.069-4.682a.151.151,0,0,1-.05-.021" transform="translate(-271.13 -107.688)" fill="#65d5a8"/><path d="M338.124,133.648l.027-.017-.056-.025a.073.073,0,0,0,.029.042" transform="translate(-272.076 -107.517)" fill="#65d5a8"/><path d="M338.28,133.737l-.008,0-.027.017a.154.154,0,0,0,.05.02l-.015-.034h0" transform="translate(-272.197 -107.619)" fill="#65d5a8"/><path d="M298.92,152.98h0a7.671,7.671,0,0,1,3.687-4.14,12.423,12.423,0,0,1-3.936-1.962.915.915,0,0,1-.3-.33,1.452,1.452,0,0,1-.487.637,11.335,11.335,0,0,0-3.593,8.274c-.041,1.752-.014,3.505,0,5.258,0,.762.076.827.843.836.8.009,1.606-.008,2.409,0,.493.008.708-.2.7-.695-.007-.876-.011-1.753,0-2.629a1.15,1.15,0,0,1,.223-.906,10.467,10.467,0,0,1,.451-4.346" transform="translate(-236.807 -117.931)" fill="#fe6c6c"/><path d="M297.326,157.759c-.015.876-.011,1.753,0,2.629,0,.5-.211.7-.7.694-.8-.013-1.606,0-2.409,0-.767-.008-.839-.073-.843-.836-.01-1.753-.037-3.506,0-5.258a11.335,11.335,0,0,1,3.593-8.274,1.454,1.454,0,0,0,.487-.637.606.606,0,0,1-.044-.115,11.865,11.865,0,0,0-4,6.766c-.506,2.724-.154,5.479-.255,8.218-.014.383.241.349.487.349,1.094,0,2.189-.03,3.281.013.545.021.635-.192.625-.672-.025-1.239,0-2.479.007-3.719,0-.02,0-.04,0-.061a1.15,1.15,0,0,0-.223.906" transform="translate(-235.886 -117.457)" fill="#fe6c6c"/><path d="M315.578,146.577a12.414,12.414,0,0,0,3.936,1.962l.116-.066,0,0a17.637,17.637,0,0,1-4.335-2.3.7.7,0,0,1-.013.073.913.913,0,0,0,.3.33" transform="translate(-253.714 -117.631)" fill="#fe6c6c"/><path d="M315.109,146l-.058-.042a.6.6,0,0,0,.044.115c.006-.023.009-.048.013-.073" transform="translate(-253.531 -117.457)" fill="#fe6c6c"/><path d="M337.555,157.929l-.006,0,0,0,0,0" transform="translate(-271.636 -127.089)" fill="#fe6c6c"/><path d="M316.292,91.378a8.32,8.32,0,0,0,.388,3.009c.027.089.061.172.091.259l3.7-.032q0-2.072,0-4.144a27.985,27.985,0,0,1-4.295-.1,1.92,1.92,0,0,1,.113,1.011" transform="translate(-254.439 -72.721)" fill="#f9bd2c"/><path d="M320.183,90.011v-.193l-4.365-.023a.908.908,0,0,1,.07.112,27.981,27.981,0,0,0,4.294.1" transform="translate(-254.149 -72.261)" fill="#f9bd2c"/><path d="M316.137,94.428l.21,0c-.03-.087-.064-.17-.091-.259a8.318,8.318,0,0,1-.388-3.009,1.923,1.923,0,0,0-.113-1.012l-.012,0a.636.636,0,0,1-.06-.052,10.1,10.1,0,0,0,.454,4.335" transform="translate(-254.015 -72.501)" fill="#f9bd2c"/><path d="M315.81,89.853a.664.664,0,0,0,.06.052l.012,0a.9.9,0,0,0-.07-.112c0,.019,0,.039,0,.058" transform="translate(-254.142 -72.261)" fill="#f9bd2c"/><path d="M320.448,179.544l-3.706-.04c-.031.088-.061.177-.089.267a8.346,8.346,0,0,0-.384,3.015,1.89,1.89,0,0,1-.12,1.013,8.308,8.308,0,0,1,2.341-.122c.651-.022,1.3-.025,1.955.01h0Q320.448,181.615,320.448,179.544Z" transform="translate(-254.414 -144.452)" fill="#f9bd2c"/><path d="M320.153,200.793c-.652-.035-1.3-.032-1.955-.01a8.308,8.308,0,0,0-2.341.122.9.9,0,0,1-.07.11l4.371-.029v-.193h0" transform="translate(-254.124 -161.558)" fill="#f9bd2c"/><path d="M315.866,182.776a8.342,8.342,0,0,1,.384-3.015c.028-.09.058-.179.089-.267l-.215,0a10.472,10.472,0,0,0-.451,4.346c.014-.013.025-.028.041-.04l.031-.008a1.891,1.891,0,0,0,.12-1.013" transform="translate(-254.012 -144.443)" fill="#f9bd2c"/><path d="M315.821,201.507c-.016.013-.027.027-.041.041s0,.04,0,.061a.893.893,0,0,0,.07-.11l-.031.008" transform="translate(-254.118 -162.153)" fill="#f9bd2c"/><path d="M338.636,94.356a.6.6,0,0,1-.109.285l3.611.049q.054-.142.1-.288a10.651,10.651,0,0,0,.385-3.08,1.763,1.763,0,0,1,.108-.924,1.411,1.411,0,0,1-.637.109c-1.167,0-2.334.025-3.5-.009a.515.515,0,0,1,.047.185,30.727,30.727,0,0,1-.008,3.673" transform="translate(-272.423 -72.746)" fill="#fe9000"/><path d="M341.811,90.006a1.411,1.411,0,0,0,.637-.109.861.861,0,0,1,.079-.122l-4.357.027a.611.611,0,0,1,.14.2c1.167.034,2.333.012,3.5.009" transform="translate(-272.137 -72.245)" fill="#fe9000"/><path d="M357.508,91.127a10.652,10.652,0,0,1-.385,3.08c-.033.1-.068.193-.1.288l.211,0h0a10.967,10.967,0,0,0,.468-4.342.812.812,0,0,1-.082.047,1.762,1.762,0,0,0-.109.924" transform="translate(-287.305 -72.551)" fill="#fe9000"/><path d="M360.077,89.9a.833.833,0,0,0,.082-.047l0-.074h0a.844.844,0,0,0-.079.122" transform="translate(-289.765 -72.245)" fill="#fe9000"/><path d="M338.24,95.046a.594.594,0,0,0,.109-.285,30.724,30.724,0,0,0,.008-3.672.513.513,0,0,0-.047-.185l-.125,0h-.015q0,2.072,0,4.144h.07" transform="translate(-272.136 -73.151)" fill="#fe9000"/><path d="M338.186,90.106l.125,0a.612.612,0,0,0-.14-.2v.193h.014" transform="translate(-272.138 -72.356)" fill="#fe9000"/><path d="M342.621,182.843a10.421,10.421,0,0,0-.4-3.1c-.029-.084-.06-.167-.091-.25l-3.611.04a1.255,1.255,0,0,1,.154.7q.02,1.449,0,2.9a1.353,1.353,0,0,1-.086.547c1.16-.032,2.321-.011,3.481-.009a1.489,1.489,0,0,1,.659.108,1.8,1.8,0,0,1-.106-.934" transform="translate(-272.418 -144.447)" fill="#fe9000"/><path d="M341.787,200.831c-1.16,0-2.321-.022-3.481.009a.646.646,0,0,1-.135.2l4.352.023a.873.873,0,0,1-.077-.12,1.485,1.485,0,0,0-.659-.108" transform="translate(-272.137 -161.609)" fill="#fe9000"/><path d="M357.1,179.739a10.427,10.427,0,0,1,.4,3.1,1.8,1.8,0,0,0,.106.934.822.822,0,0,1,.08.045,10.4,10.4,0,0,0-.475-4.327l-.2,0c.031.083.062.165.091.25" transform="translate(-287.299 -144.439)" fill="#fe9000"/><path d="M360.062,201.418a.851.851,0,0,0,.077.12c0-.025,0-.05,0-.076a.794.794,0,0,0-.08-.045" transform="translate(-289.753 -162.087)" fill="#fe9000"/><path d="M338.392,180.4a1.252,1.252,0,0,0-.154-.7h-.068q0,2.072,0,4.144l.135,0a1.35,1.35,0,0,0,.086-.547q.021-1.449,0-2.9" transform="translate(-272.136 -144.613)" fill="#fe9000"/><path d="M338.171,200.916v.193a.647.647,0,0,0,.135-.2l-.135,0" transform="translate(-272.137 -161.681)" fill="#fe9000"/><path d="M338.4,133.581h0l.078-.041a.346.346,0,0,0-.083.036l.005.005" transform="translate(-272.319 -107.464)" fill="#fefefe"/><path d="M338.078,133.443l.056.025,0,0c-.02-.022-.041-.042-.062-.063a.094.094,0,0,0,0,.04" transform="translate(-272.059 -107.354)" fill="#fefefe"/><path d="M99.528,112.309a1.159,1.159,0,0,1-.707.183,10.6,10.6,0,0,0-5.733,2.125,5.36,5.36,0,0,0,.021,8.526,10.665,10.665,0,0,0,5.667,2.1,1.192,1.192,0,0,1,.75.19l0,0q0-6.564,0-13.127" transform="translate(-73.22 -90.379)" fill="#febeaa"/><path d="M97.789,125.136a10.665,10.665,0,0,1-5.667-2.1,5.36,5.36,0,0,1-.021-8.526,10.6,10.6,0,0,1,5.733-2.125,1.16,1.16,0,0,0,.707-.183v0l-.017-.019a8.363,8.363,0,0,0-1.8.155,8.68,8.68,0,0,0-5.828,3.19,5.385,5.385,0,0,0,1.089,7.631,10.3,10.3,0,0,0,6.543,2.191l.015-.017a1.189,1.189,0,0,0-.75-.19" transform="translate(-72.233 -90.267)" fill="#febeaa"/><path d="M134.714,179.536h0v0l0,0" transform="translate(-108.409 -144.477)" fill="#febeaa"/><path d="M134.651,179.545l-.015.017.016-.016h0" transform="translate(-108.346 -144.485)" fill="#febeaa"/><path d="M134.653,112.215h0l-.017-.017.017.019Z" transform="translate(-108.346 -90.289)" fill="#febeaa"/><path d="M134.975,113.3q.008,5.6,0,11.2a1.339,1.339,0,0,1-.22.958l.053-.058a15.436,15.436,0,0,1,1.795-.266,8.406,8.406,0,0,0,5.6-3.09,5.247,5.247,0,0,0-1.039-7.408,10.315,10.315,0,0,0-5.65-2.114,1.618,1.618,0,0,1-.711-.121l-.051-.056a1.343,1.343,0,0,1,.218.955" transform="translate(-108.442 -90.406)" fill="#f79480"/><path d="M134.732,112.294l.051.056a1.621,1.621,0,0,0,.711.121,10.317,10.317,0,0,1,5.65,2.114,5.247,5.247,0,0,1,1.038,7.408,8.407,8.407,0,0,1-5.6,3.09,15.394,15.394,0,0,0-1.795.266l-.053.058-.006.008a9.812,9.812,0,0,0,6.54-2.177,5.433,5.433,0,0,0,.173-8.651,9.6,9.6,0,0,0-6.709-2.3l0,0,.007.009" transform="translate(-108.417 -90.357)" fill="#f79480"/><path d="M134.726,112.288l0,0h0l0,0" transform="translate(-108.417 -90.36)" fill="#f79480"/><path d="M134.729,125.424a1.339,1.339,0,0,0,.22-.958q.008-5.6,0-11.2a1.345,1.345,0,0,0-.218-.955l-.007-.008h0q0,6.563,0,13.127l.006-.007" transform="translate(-108.416 -90.373)" fill="#f79480"/><path d="M134.723,112.295v0h0" transform="translate(-108.416 -90.367)" fill="#f79480"/><path d="M134.731,112.3h0l.007.008-.007-.009" transform="translate(-108.421 -90.37)" fill="#f79480"/><path d="M134.724,179.507h0l.006-.008-.006.007" transform="translate(-108.417 -144.449)" fill="#f79480"/><path d="M134.723,112.288h0l0,0h0Z" transform="translate(-108.416 -90.36)" fill="#f79480"/></g></g></g></svg>