<svg xmlns="http://www.w3.org/2000/svg" xmlns:xlink="http://www.w3.org/1999/xlink" width="112" height="112" viewBox="0 0 112 112"><defs><clipPath id="a"><rect width="78.149" height="74.821" fill="none"/></clipPath></defs><g transform="translate(-1095 -812.475)"><circle cx="56" cy="56" r="56" transform="translate(1095 812.475)" fill="#9ea257"/><g transform="translate(1112 831)"><g clip-path="url(#a)"><path d="M77.926,72.9a6.542,6.542,0,0,1-.021-.839q0-20.186,0-40.372c0-2.311-.448-2.756-2.77-2.756q-7.593,0-15.186,0a6.808,6.808,0,0,1-1.293-.059,2.691,2.691,0,0,1-.515-.206c-.119.006-.239.011-.358.011q-18.707,0-37.415,0c-.128,0-.256-.006-.384-.012a1.758,1.758,0,0,1-.431.19,5.961,5.961,0,0,1-1.29.068c-5.125,0-10.25.014-15.375-.009A2.705,2.705,0,0,0,.335,29.93.329.329,0,0,1,0,30.064v42.9l77.926.006c0-.02,0-.041,0-.062m-3.118-4.771c0,1.283-.046,1.328-1.341,1.328H8.309c-.381,0-.763.008-1.144.013h0a10.128,10.128,0,0,1-3.09.059.989.989,0,0,1-.849-.953,4.252,4.252,0,0,1-.012-.609q0-17.121,0-34.241c0-1.358.173-1.531,1.529-1.529.762,0,1.525.01,2.287.015.305-.005.61-.015.915-.015H73.332c1.431,0,1.477.044,1.477,1.442q0,17.245,0,34.49" transform="translate(0 -23.187)" fill="#445e9f"/><path d="M304.506,28.813a6.806,6.806,0,0,0,1.293.059q7.593,0,15.186,0c2.322,0,2.77.445,2.77,2.756q0,20.186,0,40.372a6.5,6.5,0,0,0,.021.839c0,.02,0,.041,0,.061h.2a1,1,0,0,0,.023-.151q0-21.088,0-42.176a1.891,1.891,0,0,0-1.988-1.951c-1.373-.014-2.746,0-4.118,0l-13.573-.028-.326.016a2.681,2.681,0,0,0,.515.206" transform="translate(-245.85 -23.123)" fill="#445e9f"/><path d="M.335,29.865a2.705,2.705,0,0,1,2.552-1.011c5.125.023,10.25.011,15.375.01a5.948,5.948,0,0,0,1.29-.068,1.767,1.767,0,0,0,.432-.19l-.3-.015h0c-.3.01-.609.027-.913.027-5.414,0-10.828.027-16.241-.019A2.465,2.465,0,0,0,0,30a.329.329,0,0,0,.335-.135" transform="translate(0 -23.122)" fill="#445e9f"/><path d="M0,260.239v.153l.265,0A.739.739,0,0,1,0,260.239" transform="translate(0 -210.466)" fill="#293d7b"/><path d="M18.353,268.707a6.2,6.2,0,0,1,1.209.062.928.928,0,0,1,.335.17c1.048-.012,2.1-.031,3.144-.032,6.306,0,12.613.012,18.919-.02.723,0,.88.216.856.888-.05,1.422-.054,2.849,0,4.271.027.69-.16.982-.864.858a1.7,1.7,0,0,0-.379.018,1.5,1.5,0,0,0-.462,1.288,15,15,0,0,1,0,1.887,1.614,1.614,0,0,0,.463,1.364q7.242.011,14.484.021,4.765,0,9.531,0c1.285,0,1.367-.074,1.4-1.39.018-.711.017-1.424-.01-2.134-.032-.856-.248-1.05-1.128-1.054q-3.278-.015-6.556-.018h0c-4.242,0-8.484,0-12.727.022-.574,0-.742-.169-.729-.736.036-1.5.045-3,0-4.5-.021-.644.233-.749.8-.746,4.217.02,8.434.013,12.65.014.279-.012.557-.036.836-.036q10.683,0,21.366,0c.237,0,.474.015.711.027a.961.961,0,0,1,.308-.158A34.525,34.525,0,0,1,86,268.709c.709-.016,1.419.024,2.127-.016,1.226-.07,1.733-.585,1.752-1.819.031-1.959-.006-3.919.017-5.879a1.745,1.745,0,0,1-.735.1c-.661.014-1.322,0-1.983,0H16.569c-.59,0-1.18-.012-1.77-.023.176.106.247.313.236.676-.043,1.548-.017,3.1-.013,4.646,0,.824-.18,1.7.773,2.268l-.063.056c.874-.013,1.747-.037,2.621-.017m66.109-6.165c1.988-.011,1.828-.129,1.832,1.867,0,1.885.11,1.778-1.774,1.775-2.039,0-1.863.145-1.871-1.908-.007-1.882-.075-1.743,1.813-1.735" transform="translate(-11.969 -211.078)" fill="#293d7b"/><path d="M374.9,260.41c-.022,1.96.014,3.919-.017,5.879-.02,1.233-.526,1.749-1.752,1.819-.708.04-1.418,0-2.127.016a34.516,34.516,0,0,0-3.491.067.966.966,0,0,0-.308.158l.125.006c.278-.012.556-.035.834-.036,1.7,0,3.4.011,5.1-.007,1.194-.013,1.841-.57,1.852-1.649.021-2.13-.009-4.261-.018-6.392a.733.733,0,0,1-.2.138" transform="translate(-296.971 -210.493)" fill="#293d7b"/><path d="M12.68,301.344a6.216,6.216,0,0,0-1.209-.062c-.873-.02-1.747,0-2.621.017l-.084.074H6.289c.264.226.583.134.879.135,1.9.009,3.809.006,5.714.007l.133,0a.923.923,0,0,0-.335-.17" transform="translate(-5.086 -243.654)" fill="#293d7b"/><path d="M2.284,260.381a.956.956,0,0,1,.546.086c.59.011,1.18.023,1.77.023H75.208c.661,0,1.322.009,1.982-.005a1.745,1.745,0,0,0,.735-.1c0-.046,0-.092,0-.139L0,260.239a.739.739,0,0,0,.265.155c.674.005,1.349.026,2.02-.013" transform="translate(0 -210.466)" fill="#293d7b"/><path d="M407.434,260.272c0,.046,0,.092,0,.138a.73.73,0,0,0,.2-.138h-.2" transform="translate(-329.508 -210.493)" fill="#293d7b"/><path d="M3.472,268.691a2.224,2.224,0,0,1-.656-2c.013-1.266.006-2.532,0-3.8,0-1.778.118-1.6-1.58-1.622A1.774,1.774,0,0,1,0,261.037v6.869c.554.134.811.792,1.428.818a3.816,3.816,0,0,1,2.044-.033" transform="translate(0 -211.112)" fill="#1a2b63"/><path d="M1.2,297.879h0a2.035,2.035,0,0,1,.225-.107c-.616-.026-.873-.684-1.427-.818.35.374.561.93,1.2.925" transform="translate(0 -240.159)" fill="#1a2b63"/><path d="M1.239,261.268c1.7.019,1.576-.156,1.58,1.622,0,1.266.011,2.532,0,3.8a2.224,2.224,0,0,0,.656,2,3.817,3.817,0,0,0-2.044.033l.025,0c.771.046,1.541.043,2.311.032l.063-.056c-.953-.568-.771-1.444-.773-2.268,0-1.549-.03-3.1.013-4.646.01-.363-.061-.57-.236-.676-.655-.012-1.31-.023-1.965-.015a1.772,1.772,0,0,1-.6-.058l-.265,0a1.774,1.774,0,0,0,1.239.231" transform="translate(0 -211.112)" fill="#1a2b63"/><path d="M8.851,301.263c-.77.012-1.541.014-2.311-.032l-.025,0a2.024,2.024,0,0,0-.225.107H8.767l.084-.074" transform="translate(-5.087 -243.617)" fill="#1a2b63"/><path d="M3.4,260.964c-.671.039-1.346.019-2.02.013a1.777,1.777,0,0,0,.6.058c.655-.008,1.31,0,1.965.015a.956.956,0,0,0-.546-.086" transform="translate(-1.119 -211.05)" fill="#1a2b63"/><path d="M81.55,303.364h-.033q.005,2.75.011,5.5c2.131-.042,4.261-.028,6.392-.009,1.058.01,1.341.285,1.529,1.3a7.623,7.623,0,0,1-.077,2.8,1.047,1.047,0,0,1-1.04.931c-.3.027-.609.023-.914.024q-11.126,0-22.252,0a4.028,4.028,0,0,1-1.285-.1,1.369,1.369,0,0,1-.259-.157c-1.792.009-3.585.012-5.377.032a.847.847,0,0,1-.96-.925c-.027-.914-.031-1.831,0-2.745a.853.853,0,0,1,.958-.932c1.788.021,3.576.022,5.364.03a1.38,1.38,0,0,1,.242-.157c.93-.26.935-.26.94-1.237q.009-1.6,0-3.2c-.006-1.1-.045-1.136-1.179-1.137q-8.962,0-17.923,0H43.015a2.185,2.185,0,0,1-.728-.1,4.041,4.041,0,0,1,.323.439,37.233,37.233,0,0,0,47.6,12.075A36.344,36.344,0,0,0,103.884,303.8a4.6,4.6,0,0,1,.384-.528,1.62,1.62,0,0,1-.577.1c-7.38,0-14.761.031-22.14-.017" transform="translate(-34.199 -245.273)" fill="#feae10"/><path d="M102.646,303.2a37.117,37.117,0,0,1-33.357,15.955A37.03,37.03,0,0,1,41.373,303.12a4.039,4.039,0,0,0-.323-.439,1.228,1.228,0,0,1-.293-.146c.037.066.068.136.111.2,7.137,10.325,16.973,15.941,29.494,16.7a35.56,35.56,0,0,0,17.519-3.476,36.869,36.869,0,0,0,15.437-13.419,1.455,1.455,0,0,1-.288.142,4.565,4.565,0,0,0-.384.527" transform="translate(-32.962 -244.673)" fill="#feae10"/><path d="M45.01,302.554q8.962,0,17.923,0c1.134,0,1.174.04,1.179,1.137q.008,1.6,0,3.2c-.005.977-.01.977-.94,1.237a1.389,1.389,0,0,0-.242.157h.2a1.694,1.694,0,0,1,.379-.018c.7.124.89-.168.864-.858-.055-1.422-.051-2.849,0-4.271.024-.672-.133-.891-.856-.888-6.306.032-12.613.017-18.919.02-1.048,0-2.1.02-3.144.032a1.255,1.255,0,0,1,.16.148,2.185,2.185,0,0,0,.728.1H45.01" transform="translate(-33.525 -244.447)" fill="#feae10"/><path d="M154.087,337.318a4.03,4.03,0,0,0,1.285.1q11.126,0,22.252,0c.3,0,.61,0,.914-.024a1.047,1.047,0,0,0,1.04-.931,7.626,7.626,0,0,0,.077-2.8c-.188-1.02-.471-1.295-1.529-1.3-2.13-.02-4.261-.033-6.392.009v.217c2.186.005,4.371.007,6.557.018.88,0,1.1.2,1.128,1.054.027.711.028,1.423.01,2.134-.033,1.316-.116,1.39-1.4,1.39q-4.765,0-9.531,0-7.242-.007-14.484-.021h-.187a1.373,1.373,0,0,0,.259.157" transform="translate(-124.407 -268.778)" fill="#feae10"/><path d="M248.235,302.354c-.279,0-.557.024-.836.036q0,.113,0,.226h.033c7.38.049,14.76.014,22.14.017a1.616,1.616,0,0,0,.577-.1,1.228,1.228,0,0,1,.162-.148c-.237-.012-.474-.027-.711-.027q-10.683,0-21.366,0" transform="translate(-200.082 -244.525)" fill="#feae10"/><path d="M366.515,302.5a1.215,1.215,0,0,0-.162.148,1.453,1.453,0,0,0,.288-.142l-.125-.006" transform="translate(-296.285 -244.646)" fill="#feae10"/><path d="M41.05,302.675a1.242,1.242,0,0,0-.16-.148l-.133,0a1.223,1.223,0,0,0,.293.146" transform="translate(-32.962 -244.666)" fill="#feae10"/><path d="M142.37,6.176a7.171,7.171,0,0,1,1.1.067c-.2-.119-.4-.245-.6-.358a36.474,36.474,0,0,0-14.445-4.552,36.994,36.994,0,0,0-22.544,4.921,6.917,6.917,0,0,1,1.162-.078q17.663.007,35.326,0" transform="translate(-85.632 -0.926)" fill="#feae10"/><path d="M126.029.406a36.476,36.476,0,0,1,14.445,4.552c.2.113.4.24.6.358a3.676,3.676,0,0,1,.629.151,29.517,29.517,0,0,0-5-2.576A37.036,37.036,0,0,0,115.414.651a35.1,35.1,0,0,0-12.5,4.817,3.612,3.612,0,0,1,.567-.141A36.995,36.995,0,0,1,126.029.406" transform="translate(-83.234 0)" fill="#feae10"/><path d="M141.239,27.449q-17.663.007-35.326,0a6.917,6.917,0,0,0-1.162.078l-.017.01-.25.146c.128.007.256.012.384.012q18.708,0,37.415,0c.119,0,.238,0,.358-.011-.1-.053-.2-.109-.3-.168a7.171,7.171,0,0,0-1.1-.067" transform="translate(-84.501 -22.199)" fill="#feae10"/><path d="M302.711,27.966l.326-.017a3.68,3.68,0,0,0-.629-.151c.1.059.2.116.3.168" transform="translate(-244.57 -22.481)" fill="#feae10"/><path d="M103.217,28.011l.25-.146.017-.01a3.646,3.646,0,0,0-.567.141l.3.015" transform="translate(-83.233 -22.528)" fill="#feae10"/><path d="M101.053,47.132H35.665c-.305,0-.61.01-.915.015a1.614,1.614,0,0,0-.473,1.3q.02,17.336,0,34.671a1.309,1.309,0,0,0,.609,1.289h0c.381,0,.763-.013,1.144-.013h65.159c1.294,0,1.341-.046,1.341-1.328q0-17.245,0-34.49c0-1.4-.046-1.442-1.477-1.442M89.777,54.317q3.806-.033,7.611,0a1.134,1.134,0,0,1,1.153,1.168,1.165,1.165,0,0,1-1.195,1.109c-1.269.009-2.537,0-3.806,0-1.243,0-2.487.008-3.73,0-.8-.007-1.161-.337-1.192-1.058a1.124,1.124,0,0,1,1.157-1.219M61.049,67.1a12.66,12.66,0,0,1-1.893,5.712,12.74,12.74,0,0,1-18.495,3.45,12.814,12.814,0,0,1-.58-20.016,12.669,12.669,0,0,1,7.183-2.992c.871-.1,1.059.121,1.061,1.035q0,2.747,0,5.494c0,1.831.028,3.664-.015,5.494-.015.653.206.8.824.8,3.688-.026,7.376-.014,11.064-.012.9,0,.928.13.85,1.038m.355-2.12q-5.6,0-11.21,0c-.584,0-.813-.25-.807-.833.019-1.881.007-3.762.007-5.643q0-2.669,0-5.339c0-.908.15-1.043,1.014-.953a12.821,12.821,0,0,1,11.74,11.9c.052.584-.15.866-.744.866m5.612,13.934c-.608-.032-1.219-.025-1.828,0-.547.021-.8-.212-.8-.756q.005-2.819,0-5.638c0-.543.269-.782.8-.775.609.008,1.219.013,1.828,0,.626-.015.854.294.839.893-.022.914-.006,1.829-.006,2.743,0,.889-.016,1.778.006,2.667.014.6-.195.9-.84.871m-.1-14.676a16.1,16.1,0,0,0-1.678,0c-.585.028-.855-.242-.855-.805q0-5.379,0-10.759c0-.48.214-.779.723-.786.687-.008,1.374-.011,2.06,0,.578.009.7.386.693.88-.009,1.755,0,3.51,0,5.265s-.017,3.51.009,5.265c.01.691-.258.981-.948.942m4.608,14.677a15.7,15.7,0,0,0-1.752,0c-.545.022-.8-.208-.8-.754q0-4.306,0-8.613c0-.543.251-.779.8-.758.634.024,1.271.022,1.905,0,.57-.019.764.265.761.792-.009,1.423,0,2.846,0,4.268,0,1.372-.02,2.744.009,4.116.014.667-.193,1-.916.952m.91-18.775c0,1.091-.009,2.182,0,3.272.007.577-.247.839-.826.823-.608-.016-1.218-.022-1.826,0q-.819.032-.821-.756-.012-3.349,0-6.7c0-.465.234-.69.711-.68.634.013,1.269.027,1.9,0s.876.225.863.845c-.022,1.065-.006,2.131-.006,3.2m3.818,18.771c-.659-.02-1.319-.016-1.978,0-.474.01-.723-.208-.725-.672q-.012-2.282,0-4.565a.653.653,0,0,1,.758-.732c.659.011,1.319,0,1.978,0,.513,0,.73.265.726.76-.006.761,0,1.522,0,2.282,0,.71-.008,1.42,0,2.13.008.524-.189.812-.758.8m-.033-14.677c-.636-.012-1.272-.016-1.907,0a.66.66,0,0,1-.765-.735q-.019-2.289,0-4.578a.6.6,0,0,1,.678-.649c.687,0,1.373.007,2.06,0,.523-.007.729.268.727.759,0,.737,0,1.475,0,2.213s-.006,1.475,0,2.213c.006.544-.252.789-.793.779m5.369,13.919c0,.548-.251.777-.8.758-.634-.022-1.27-.021-1.9,0-.568.019-.77-.269-.767-.792.005-1.117,0-2.234,0-3.351,0-1.041.012-2.082,0-3.122-.009-.593.2-.908.842-.873.608.032,1.219.024,1.827,0,.541-.02.8.2.8.753q-.009,3.313,0,6.626m0-18.974c0,1.4-.012,2.792.006,4.188.008.61-.237.894-.859.869a15.924,15.924,0,0,0-1.674,0c-.7.047-.955-.279-.952-.944.012-2.335,0-4.67,0-7.005,0-.482,0-.965,0-1.447,0-.5.233-.742.747-.728a17.345,17.345,0,0,0,1.75-.006c.723-.054,1.007.224.987.958-.037,1.37-.011,2.741-.011,4.111m4.573,19.042a.609.609,0,0,1-.709.688c-.636-.012-1.273-.027-1.907,0s-.854-.271-.85-.87c.014-1.755.005-3.51.005-5.265s.018-3.511-.009-5.265c-.011-.7.274-.971.953-.94.584.027,1.17.006,1.755.007.485,0,.764.209.764.729q0,5.456,0,10.913m-.941-13.983c-.582-.032-1.168-.02-1.751,0a.659.659,0,0,1-.768-.73q-.017-2.856,0-5.712a.662.662,0,0,1,.762-.738q.951.022,1.9,0c.592-.013.814.282.805.846-.015.914,0,1.828,0,2.741,0,.888-.024,1.778.008,2.665.025.7-.274.968-.955.93M94.387,78.88c-.787.017-1.575,0-2.363,0-.737,0-1.474.008-2.21,0a1.142,1.142,0,1,1-.023-2.283c1.524-.011,3.049-.013,4.573,0a1.147,1.147,0,1,1,.023,2.281m2.757-3.209c-1.47.021-2.941.006-4.411.006-.913,0-1.826.017-2.738-.006-.825-.021-1.325-.413-1.373-1.016-.065-.821.3-1.253,1.132-1.263,1.293-.016,2.586,0,3.879,0q1.749,0,3.5,0c.856,0,1.382.384,1.412,1.024.035.729-.509,1.246-1.4,1.259m1.4-4.345c-.045.631-.568,1-1.441,1q-1.79,0-3.579,0c-1.269,0-2.539-.008-3.808,0-.621.005-1.031-.221-1.092-.886s.113-1.14.857-1.282a5.106,5.106,0,0,1,.974-.126c2.082.005,4.163,0,6.245,0a3.525,3.525,0,0,1,.607.023c.865.153,1.284.59,1.237,1.265m-6.5-8.166c-.71,0-1.421.027-2.129-.009-.851-.044-1.3-.48-1.29-1.173.011-.739.36-1.094,1.143-1.1,1.268-.014,2.536,0,3.8,0q1.788,0,3.575,0c.856,0,1.377.387,1.4,1.032.029.728-.515,1.241-1.408,1.251-1.7.02-3.4.006-5.1.006m3.6,2.063a1.169,1.169,0,0,1-1.265,1.14q-2.325.022-4.649,0a1.14,1.14,0,0,1,0-2.279c.813-.02,1.626,0,2.439,0,.737,0,1.474-.013,2.21,0a1.176,1.176,0,0,1,1.267,1.141m2.884-6.329a1.033,1.033,0,0,1-1.054.908c-1.32.011-2.64,0-3.96,0-1.269,0-2.539-.007-3.808,0-.586.005-.986-.21-1.076-.823a1.038,1.038,0,0,1,.864-1.347,4.531,4.531,0,0,1,1.355-.121c1.955,0,3.909,0,5.864-.007a3.246,3.246,0,0,1,1.116.186.98.98,0,0,1,.7,1.194" transform="translate(-27.72 -38.118)" fill="#5dc0d7"/><path d="M19.923,83.539a4,4,0,0,1-.038-.685q0-17.09,0-34.179c0-.615-.034-1.254.711-1.525-.762-.005-1.525-.014-2.287-.015-1.356,0-1.529.171-1.529,1.529q0,17.121,0,34.241a4.252,4.252,0,0,0,.012.609.989.989,0,0,0,.849.953,10.127,10.127,0,0,0,3.09-.059c-.524-.053-.728-.4-.808-.869" transform="translate(-13.566 -38.12)" fill="#28a4a4"/><path d="M33.264,83.183q.019-17.335,0-34.671a1.614,1.614,0,0,1,.473-1.3c-.745.271-.71.911-.71,1.525q0,17.09,0,34.179a4,4,0,0,0,.038.685c.08.464.284.816.808.869h0a1.309,1.309,0,0,1-.609-1.289" transform="translate(-26.708 -38.184)" fill="#28a4a4"/><path d="M191.372,304.286a1.411,1.411,0,0,1,.093-.551c-3.85.037-7.7.006-11.55.016-.254,0-.508.011-.762,0-.511-.015-.732.219-.73.733.005,1.295.02,2.59-.006,3.885-.012.626.243.853.856.848,2.031-.015,4.062-.011,6.093,0s4.07-.024,6.105.015a1.336,1.336,0,0,1-.1-.554q-.023-2.2,0-4.392" transform="translate(-144.293 -245.643)" fill="#445e9f"/><path d="M190.394,308.213c-2.035-.039-4.07-.008-6.106-.015s-4.062-.011-6.093,0c-.614,0-.868-.223-.856-.848.026-1.294.011-2.59.006-3.885,0-.514.219-.748.73-.733.253.007.508,0,.762,0,3.85-.011,7.7.02,11.55-.016a.8.8,0,0,1,.145-.227c-4.217,0-8.434.006-12.65-.014-.563,0-.817.1-.8.746.048,1.5.039,3,0,4.5-.013.567.155.739.729.736,4.242-.025,8.484-.018,12.727-.022h0a.77.77,0,0,1-.149-.219" transform="translate(-143.215 -244.625)" fill="#445e9f"/><path d="M246.112,304.283q-.02,2.2,0,4.392a1.336,1.336,0,0,0,.1.554l.14,0h.009q-.005-2.75-.011-5.5H246.2a1.411,1.411,0,0,0-.093.551" transform="translate(-199.032 -245.64)" fill="#445e9f"/><path d="M246.818,332.476l-.14,0a.771.771,0,0,0,.149.219v-.217h-.009" transform="translate(-199.499 -268.886)" fill="#445e9f"/><path d="M246.785,302.775q0-.113,0-.226a.794.794,0,0,0-.145.227h.146" transform="translate(-199.467 -244.684)" fill="#445e9f"/><path d="M122.879,334.582c-.932.013-1.16.245-1.186,1.179-.018.633-.029,1.267.007,1.9.043.753.28,1,1.034,1.016,1.367.034,2.734.009,4.1.011a3.173,3.173,0,0,1,.828.073,1.359,1.359,0,0,1-.324-.9c-.023-.8-.018-1.609,0-2.413a1.389,1.389,0,0,1,.331-.942,2.971,2.971,0,0,1-.762.076c-1.342,0-2.684-.015-4.026,0" transform="translate(-98.404 -270.526)" fill="#1a2b63"/><path d="M151.215,334.883c-.015.8-.02,1.609,0,2.413a1.359,1.359,0,0,0,.324.9,1.332,1.332,0,0,1,.349.146,1.614,1.614,0,0,1-.463-1.364,15,15,0,0,0,0-1.887,1.5,1.5,0,0,1,.462-1.287,1.549,1.549,0,0,1-.344.133,1.389,1.389,0,0,0-.331.942" transform="translate(-122.284 -269.965)" fill="#1a2b63"/><path d="M126.776,338.069a3.173,3.173,0,0,0-.828-.073c-1.367,0-2.735.023-4.1-.011-.754-.019-.991-.263-1.034-1.016-.036-.632-.025-1.266-.007-1.9.026-.934.254-1.166,1.187-1.18,1.342-.019,2.684-.007,4.026,0a2.972,2.972,0,0,0,.762-.076,1.194,1.194,0,0,1,.143-.133c-1.788-.008-3.576-.009-5.364-.03a.853.853,0,0,0-.958.932c-.032.914-.028,1.83,0,2.745a.847.847,0,0,0,.96.925c1.792-.02,3.585-.023,5.377-.032a1.175,1.175,0,0,1-.162-.147" transform="translate(-97.518 -269.834)" fill="#1a2b63"/><path d="M153.145,333.8a1.192,1.192,0,0,0-.143.134,1.54,1.54,0,0,0,.344-.133h-.2" transform="translate(-123.739 -269.961)" fill="#1a2b63"/><path d="M153.142,356.917h.187a1.338,1.338,0,0,0-.349-.147,1.166,1.166,0,0,0,.162.147" transform="translate(-123.721 -288.535)" fill="#1a2b63"/><path d="M371.419,272.7c1.885,0,1.778.11,1.774-1.775,0-2,.156-1.878-1.832-1.867-1.888-.008-1.819-.147-1.813,1.735.007,2.053-.168,1.9,1.87,1.908" transform="translate(-298.868 -217.594)" fill="#90dfe7"/><path d="M65.513,91.836c-3.688,0-7.376-.014-11.064.012-.618,0-.839-.146-.824-.8.043-1.83.015-3.662.015-5.494s0-3.663,0-5.494c0-.913-.19-1.133-1.061-1.035A12.672,12.672,0,0,0,45.4,82.019a12.8,12.8,0,0,0,10.913,22.3,12.323,12.323,0,0,0,8.162-5.738,12.661,12.661,0,0,0,1.893-5.712c.078-.908.048-1.037-.85-1.038" transform="translate(-33.034 -63.895)" fill="#90dfe7"/><path d="M114.308,73.594c-.864-.09-1.012.046-1.014.953q0,2.669,0,5.339c0,1.881.011,3.762-.007,5.643-.006.583.223.834.807.833q5.605-.012,11.21,0c.594,0,.8-.282.744-.866a12.821,12.821,0,0,0-11.74-11.9" transform="translate(-91.62 -59.499)" fill="#feae10"/><path d="M195.153,78.093c0-1.755-.006-3.51,0-5.265,0-.494-.115-.87-.693-.879-.686-.011-1.373-.008-2.06,0-.509.006-.723.305-.723.785q0,5.38,0,10.759c0,.563.27.833.855.805a16.1,16.1,0,0,1,1.678,0c.691.039.959-.251.948-.942-.026-1.755-.009-3.51-.009-5.265" transform="translate(-155.019 -58.182)" fill="#fefefe"/><path d="M290.132,148.761c-.585,0-1.171.021-1.755-.007-.679-.032-.964.245-.953.94.027,1.755.009,3.51.009,5.265s.009,3.51-.005,5.265c0,.6.207.9.85.87s1.272-.016,1.907,0a.609.609,0,0,0,.709-.688q0-5.456,0-10.913c0-.52-.279-.728-.764-.729" transform="translate(-232.451 -120.302)" fill="#feae10"/><path d="M219.124,165.394c0-1.423-.006-2.846,0-4.268,0-.527-.191-.811-.761-.792-.634.021-1.271.023-1.9,0-.548-.02-.8.215-.8.758q0,4.306,0,8.613c0,.546.258.776.8.754a15.651,15.651,0,0,1,1.752,0c.723.052.93-.286.916-.953-.029-1.371-.009-2.744-.009-4.116" transform="translate(-174.414 -129.668)" fill="#feae10"/><path d="M265.965,83.571a17.344,17.344,0,0,1-1.75.006c-.514-.014-.749.225-.747.728,0,.482,0,.965,0,1.446,0,2.335.007,4.67,0,7.005,0,.665.248.991.952.944a15.926,15.926,0,0,1,1.674,0c.622.024.867-.26.859-.869-.018-1.4-.006-2.792-.006-4.188,0-1.371-.027-2.742.011-4.112.02-.735-.264-1.012-.987-.958" transform="translate(-213.073 -67.582)" fill="#fefefe"/><path d="M218.237,93.991c-.632.032-1.268.018-1.9,0-.477-.01-.711.215-.711.68q0,3.349,0,6.7,0,.786.821.756c.608-.024,1.218-.018,1.826,0,.579.016.833-.246.826-.823-.013-1.091,0-2.181,0-3.272,0-1.065-.016-2.131.006-3.2.013-.619-.242-.876-.863-.845" transform="translate(-174.381 -76.013)" fill="#fefefe"/><path d="M266.172,170.716c-.608.022-1.22.03-1.827,0-.647-.034-.852.28-.842.873.016,1.04,0,2.082,0,3.122,0,1.117,0,2.234,0,3.351,0,.523.2.81.767.792.634-.021,1.27-.021,1.9,0,.545.019.8-.21.8-.758q-.009-3.313,0-6.626c0-.552-.259-.772-.8-.753" transform="translate(-213.105 -138.062)" fill="#feae10"/><path d="M290.9,102.589c0-.914-.011-1.828,0-2.741.009-.564-.213-.859-.805-.846q-.952.021-1.9,0a.662.662,0,0,0-.762.738q-.017,2.856,0,5.712a.659.659,0,0,0,.768.73c.583-.016,1.169-.029,1.751,0,.681.037.98-.232.955-.93-.032-.887-.008-1.777-.008-2.665" transform="translate(-232.453 -80.066)" fill="#fefefe"/><path d="M195.182,179.418c0-.914-.016-1.829.006-2.743.014-.6-.213-.908-.839-.893-.609.015-1.219.01-1.828,0-.531-.007-.8.231-.8.775q.005,2.82,0,5.638c0,.544.254.778.8.756.609-.024,1.22-.03,1.828,0,.645.034.854-.272.84-.871-.022-.889-.006-1.778-.006-2.667" transform="translate(-155.051 -142.162)" fill="#feae10"/><path d="M319.6,86.91c1.243.01,2.487,0,3.73,0,1.269,0,2.537.006,3.806,0A1.165,1.165,0,0,0,328.33,85.8a1.134,1.134,0,0,0-1.153-1.168q-3.806-.033-7.612,0a1.123,1.123,0,0,0-1.157,1.219c.031.721.388,1.052,1.192,1.058" transform="translate(-257.509 -68.433)" fill="#90dfe7"/><path d="M327.066,166.9a3.509,3.509,0,0,0-.607-.023c-2.082,0-4.163,0-6.245,0a5.122,5.122,0,0,0-.974.126c-.744.141-.917.626-.857,1.282s.471.892,1.092.886c1.269-.011,2.539,0,3.808,0q1.79,0,3.58,0c.872,0,1.4-.368,1.44-1,.048-.675-.372-1.113-1.237-1.266" transform="translate(-257.48 -134.957)" fill="#90dfe7"/><path d="M326.9,184.394q-1.749,0-3.5,0c-1.293,0-2.586-.011-3.879,0-.828.011-1.2.442-1.132,1.263.048.6.548.995,1.373,1.016.912.023,1.825.006,2.738.006,1.471,0,2.941.015,4.412-.006.891-.013,1.434-.531,1.4-1.259-.031-.639-.556-1.022-1.412-1.024" transform="translate(-257.49 -149.124)" fill="#90dfe7"/><path d="M327.542,101.6a3.246,3.246,0,0,0-1.116-.186c-1.954.012-3.909,0-5.864.007a4.531,4.531,0,0,0-1.355.121,1.038,1.038,0,0,0-.864,1.347c.09.612.49.828,1.076.823,1.269-.011,2.539,0,3.808,0,1.32,0,2.64.007,3.96,0a1.033,1.033,0,0,0,1.054-.908.98.98,0,0,0-.7-1.194" transform="translate(-257.436 -82.015)" fill="#90dfe7"/><path d="M328.334,119.979c-.026-.645-.548-1.031-1.4-1.032q-1.788,0-3.575,0c-1.268,0-2.535-.01-3.8,0-.783.009-1.131.363-1.143,1.1-.011.693.44,1.129,1.29,1.173.708.037,1.419.009,2.129.01,1.7,0,3.4.013,5.1-.006.893-.01,1.438-.523,1.408-1.251" transform="translate(-257.512 -96.195)" fill="#90dfe7"/><path d="M243.024,108.329c0-.737,0-1.475,0-2.213,0-.491-.2-.766-.727-.759-.687.009-1.373.007-2.06,0a.6.6,0,0,0-.678.649q-.019,2.289,0,4.578a.66.66,0,0,0,.765.735c.635-.017,1.272-.013,1.907,0,.541.01.8-.235.793-.779-.008-.738,0-1.475,0-2.213" transform="translate(-193.734 -85.207)" fill="#fefefe"/><path d="M243.046,185.106c0-.761,0-1.521,0-2.282,0-.5-.213-.762-.726-.76-.659,0-1.319.009-1.978,0a.652.652,0,0,0-.758.732c0,1.522-.006,3.043,0,4.565,0,.464.251.682.725.672.659-.014,1.319-.019,1.978,0,.569.017.765-.271.758-.8-.01-.71,0-1.42,0-2.13" transform="translate(-193.76 -147.24)" fill="#feae10"/><path d="M321.956,135.709c-.813,0-1.626-.015-2.439,0a1.14,1.14,0,0,0,0,2.279q2.325.022,4.649,0a1.147,1.147,0,1,0,0-2.281c-.737-.017-1.474,0-2.21,0" transform="translate(-257.512 -109.75)" fill="#90dfe7"/><path d="M324.155,201.16c-1.524-.014-3.049-.012-4.573,0a1.143,1.143,0,1,0,.023,2.283c.737.011,1.473,0,2.21,0,.788,0,1.575.013,2.363,0a1.147,1.147,0,1,0-.023-2.281" transform="translate(-257.512 -162.678)" fill="#90dfe7"/></g></g></g></svg>