<svg xmlns="http://www.w3.org/2000/svg" xmlns:xlink="http://www.w3.org/1999/xlink" width="112" height="112" viewBox="0 0 112 112"><defs><clipPath id="a"><rect width="79.044" height="73.889" fill="none"/></clipPath></defs><g transform="translate(5887 10887.525)"><circle cx="56" cy="56" r="56" transform="translate(-5887 -10887.525)" fill="#9ea257"/><g transform="translate(-5871 -10872.412)"><g clip-path="url(#a)"><path d="M45.71,221l.021-.026h-.038l.017.026" transform="translate(-36.266 -175.385)" fill="#fefefe"/><path d="M264.632,315.02l-.014.029.038,0-.023-.026" transform="translate(-210.027 -250.03)" fill="#d43e2d"/><path d="M270.1,296.171a1.36,1.36,0,0,1-.67-.13.785.785,0,0,1-.068-.1l-5.536.01c-.9,0-1.8.064-2.7-.009a1.729,1.729,0,0,0-2.007,1.321c-.3-1.029-.548-1.863-.779-2.7-.152-.55-.363-1.018-1.029-1.076a1.284,1.284,0,0,0-1.37.749c-.623,1.118-1.339,2.183-2,3.279a.849.849,0,0,1-.815.461c-.822-.017-1.645-.009-2.468,0-.7,0-1.4.047-2.1.089-.262.255-.778.068-1.157.1a8.787,8.787,0,0,0-2.291.145.94.94,0,0,0-.6,1.118.985.985,0,0,0,1.035.756c1.279.085,2.561.017,3.841.038a9.538,9.538,0,0,1,1.61.055.914.914,0,0,1,.326.159c.849,0,1.7,0,2.547,0a1.6,1.6,0,0,0,1.523-.843c.286-.512.626-.994.95-1.484.091-.138.12-.389.351-.34.21.045.186.285.235.449.249.831.491,1.664.736,2.5a2.513,2.513,0,0,0,.46.958c1.137.4,1.593.19,2.02-.906a5.049,5.049,0,0,0,.347-.768c.318-1.595,1.357-1.875,2.8-1.743,1.3.119,2.62.035,3.932.029a.967.967,0,0,1,.347-.169,19.007,19.007,0,0,1,2.981-.045,4.39,4.39,0,0,0,2.537-.56v-.772c-.9-.718-1.964-.528-2.989-.556" transform="translate(-194.044 -232.93)" fill="#d43e2d"/><path d="M367.207,305.335c-.689.047-1.384.011-2.076.011h-.05a.788.788,0,0,0,.067.1,1.361,1.361,0,0,0,.67.13c1.026.028,2.092-.162,2.989.556a1.539,1.539,0,0,0-1.6-.8" transform="translate(-289.764 -242.338)" fill="#d43e2d"/><path d="M358.043,313.542a19.007,19.007,0,0,0-2.981.045.968.968,0,0,0-.347.169h.146c1.373,0,2.747-.034,4.118.012a1.652,1.652,0,0,0,1.6-.786,4.39,4.39,0,0,1-2.537.56" transform="translate(-281.535 -248.413)" fill="#d43e2d"/><path d="M261.454,315l0,0c-.279.028-.558.056-.836.081a8.065,8.065,0,0,0,.826-.047c0-.009.01-.019.014-.029" transform="translate(-206.848 -250.011)" fill="#d43e2d"/><path d="M249.759,317.9a9.555,9.555,0,0,0-1.61-.055c-1.281-.02-2.563.048-3.841-.038a.985.985,0,0,1-1.035-.756.94.94,0,0,1,.6-1.117,8.786,8.786,0,0,1,2.291-.145c.379-.035.895.152,1.157-.1a22.7,22.7,0,0,1-3.429.034h0c-.8.264-1.132.8-.889,1.487a1.251,1.251,0,0,0,1.339.807c1.865.01,3.731.029,5.6.044h.145a.91.91,0,0,0-.326-.159" transform="translate(-192.81 -250.558)" fill="#d43e2d"/><path d="M41.187,16.812a54.17,54.17,0,0,0,1.7,9.287A47.8,47.8,0,0,0,48.823,39.39c.111.171.242.33.363.495h0c.7-.676,1.39-1.356,2.092-2.028a1.512,1.512,0,0,1,2.412.012c1.259,1.239,2.5,2.5,3.755,3.742.19.189.333.476.679.428.883-.746,1.76-1.5,2.651-2.237a14.8,14.8,0,0,1,8.992-3.174c3.607-.185,7.19.328,10.791.354a17.722,17.722,0,0,0,6.743-1,12.762,12.762,0,0,0,6.686-6.624h0a28.719,28.719,0,0,1,1.564-4.427q-4.73-2.874-9.459-5.75a8.57,8.57,0,0,1-3.457-4.015c-.365-.846-.733-1.692-1.127-2.525A3.835,3.835,0,0,0,78.6,10.363c-1.564-.279-3.142-.479-4.7-.8a7.592,7.592,0,0,0-4.588.143.853.853,0,0,1-.675.033,10.884,10.884,0,0,1-.7,7.979A3.6,3.6,0,0,1,64.664,19.8a7.027,7.027,0,0,1-3.032-.369c2.712-2.24,2.934-5.256,2.538-8.382a11.477,11.477,0,0,0-6.062-8.755c-.526-.306-1.131-.474-1.687-.734-.212-.1-.545-.043-.6-.392A4.212,4.212,0,0,0,53.315,3.8a11.946,11.946,0,0,0-.3,7.487c1.258.007,2.517.013,3.775.022a3.286,3.286,0,0,1,3.355,3.356c0,2.389,0,4.778,0,7.167a3.749,3.749,0,0,1-.128,1.061h0c.117,1.744.456,3.5-.317,5.191a2.976,2.976,0,0,1-2.784,1.728c-1.664.075-3.335.039-5,.013a3.239,3.239,0,0,1-3.186-3.268,18.915,18.915,0,0,1,.1-3.581.737.737,0,0,1,.015-.081,19.418,19.418,0,0,1-.132-3.667c-.028-1.355-.017-2.71-.022-4.065h0a10.547,10.547,0,0,1-3.858.544c-.9.01-1.794.024-2.691.029-1.05.006-1.057,0-.951,1.072m33.783,2.67A3.849,3.849,0,0,1,79.1,21.895a1.7,1.7,0,0,1,.18.86c.026.615-.189,1.063-.788,1.186a1.17,1.17,0,0,1-1.407-.672c-.066-.138-.1-.293-.157-.433a1.447,1.447,0,0,0-1.392-1.025,1.477,1.477,0,0,0-1.517.954,2.245,2.245,0,0,1-.591.97,1.027,1.027,0,0,1-1.217.127,1.082,1.082,0,0,1-.654-1.046,3.983,3.983,0,0,1,3.411-3.334" transform="translate(-32.655 -0.925)" fill="#3f5959"/><path d="M202.233,192.7c1.157-.223,2.423-.146,3.358-1.077a12.168,12.168,0,0,0-1.7-6.63c-.047,0-.094-.007-.14-.013h0c-.886,1.089-2.194,1.666-3.189,2.615-1.688,1.611-3.874,1.7-5.978,2.02-3.844.589-7.686,1.166-11.168,3.07a27.36,27.36,0,0,0-5.134,3.608,29.756,29.756,0,0,0-4.121,4.822c-.141.193-.247.392-.519.394a41.319,41.319,0,0,0,5.909,2.163,3.21,3.21,0,0,1,1.632.8,22.37,22.37,0,0,1,5.111-5.977,22.661,22.661,0,0,1,8.358-4.386c2.48-.71,5.061-.919,7.586-1.407" transform="translate(-137.814 -146.816)" fill="#fde6c8"/><path d="M72.68,237.105a50.563,50.563,0,0,1-8.328-3.265,19.83,19.83,0,0,1-2.834-1.389,7.77,7.77,0,0,0-1.46,1.332,1.472,1.472,0,0,1-2.342-.01c-.938-.936-1.853-1.9-2.778-2.845-.881-.858-1.77-1.709-2.642-2.577q-3.466-3.452-6.921-6.914c-.2-.2-.42-.373-.631-.558l-2.581.019-.021.026c.229.344-.045.53-.252.745a1.588,1.588,0,0,0,.027,2.64q6.262,6.272,12.534,12.535a1.6,1.6,0,0,0,2.5.022c.443-.426.845-1.091,1.355-1.19.453-.089,1.03.454,1.552.719a38.627,38.627,0,0,0,3.7,1.7,2.766,2.766,0,0,1,1.623,3.127,9.224,9.224,0,0,0-.211,1.589,44.458,44.458,0,0,0,5.525,1.735,1.7,1.7,0,0,0,2.341-1.632,33.521,33.521,0,0,1,.754-4.2c.168-.659.339-1.2,1.116-1.282a4.908,4.908,0,0,1-2.024-.332" transform="translate(-32.7 -175.311)" fill="#fde6c8"/><path d="M25.2,94.621l3.738-3.76a.6.6,0,0,1-.1-.018,2.883,2.883,0,0,1-.779-1.038,47.96,47.96,0,0,1-6.2-15.2,59.877,59.877,0,0,1-1.089-6.77c-.119-1.055.01-1.188,1.083-1.189.924,0,1.848,0,2.772,0-1.046-.011-2.091-.028-3.137-.027a.663.663,0,0,1-.73-.4,1.5,1.5,0,0,0-1.436-.85c-.562-.018-1.126.01-1.686-.026a1.714,1.714,0,0,0-1.948,1.242A54.452,54.452,0,0,0,24.82,94.041c.128.192.252.386.378.579" transform="translate(-12.452 -51.852)" fill="#fb7d4b"/><path d="M41.268,71.676c-1.073,0-1.2.134-1.083,1.189a59.88,59.88,0,0,0,1.089,6.77,47.962,47.962,0,0,0,6.2,15.2,2.884,2.884,0,0,0,.779,1.038.619.619,0,0,0,.1.018l.048-.048c-.121-.165-.251-.323-.363-.495A47.807,47.807,0,0,1,42.1,82.061a54.185,54.185,0,0,1-1.7-9.287c-.106-1.069-.1-1.066.951-1.072.9,0,1.794-.019,2.691-.029-.924.007-1.848,0-2.772,0" transform="translate(-31.866 -56.887)" fill="#fb7d4b"/><path d="M262.027,272.14c.411-.652.829-1.3,1.228-1.957a1.487,1.487,0,0,1,1.532-.806,1.418,1.418,0,0,1,1.237,1.2c.21.713.4,1.432.643,2.213a1.68,1.68,0,0,1,1.775-.98c1,.027,2,0,3.005,0h0a6.191,6.191,0,0,0,.392-6.738,10.787,10.787,0,0,0-1.33-1.683l-.088.014a5.415,5.415,0,0,0-2.786,1.554c-.3.282-.567.6-.89.853a1.637,1.637,0,0,1-2.127.013c-.346-.268-.626-.61-.949-.9a5.684,5.684,0,0,0-8.053.173,5.549,5.549,0,0,0-.163,7.852c.284.315.856.61.689,1.026,0,.007-.007.013-.01.019a26.5,26.5,0,0,1,2.877-.179c2.359.022,1.838.192,3.014-1.673" transform="translate(-201.527 -209.008)" fill="#fa6a3b"/><path d="M255.331,273.161c.167-.415-.405-.711-.689-1.025a5.548,5.548,0,0,1,.162-7.852,5.684,5.684,0,0,1,8.053-.173c.323.293.6.634.949.9a1.638,1.638,0,0,0,2.127-.013c.323-.256.591-.571.89-.853a5.417,5.417,0,0,1,2.786-1.554l.088-.014c-.045-.055-.09-.11-.133-.167a3.993,3.993,0,0,0-.448.083,7.076,7.076,0,0,0-3,2.082,1.56,1.56,0,0,1-2.534,0c-.146-.144-.289-.291-.435-.437a5.833,5.833,0,0,0-8.355-.124,5.721,5.721,0,0,0-.339,8.214c.268.307.545.607.857.954h.007c0-.007.007-.012.01-.02" transform="translate(-200.713 -208.196)" fill="#fa6a3b"/><path d="M250.295,315.32a13.638,13.638,0,0,0-2.682.1,18.737,18.737,0,0,0,2.682-.1" transform="translate(-196.53 -250.254)" fill="#fa6a3b"/><path d="M279.64,295.014c-1,0-2,.024-3.005,0a1.681,1.681,0,0,0-1.775.98c-.242-.781-.434-1.5-.643-2.213a1.418,1.418,0,0,0-1.237-1.2,1.487,1.487,0,0,0-1.532.806c-.4.658-.818,1.306-1.228,1.957-1.176,1.865-.655,1.695-3.014,1.672a26.449,26.449,0,0,0-2.877.179l0,.006.023.026-.038,0a.454.454,0,0,1-.08.108c.7-.043,1.4-.085,2.1-.089.823,0,1.645-.013,2.468,0a.848.848,0,0,0,.815-.461c.664-1.1,1.379-2.161,2-3.279a1.284,1.284,0,0,1,1.37-.749c.667.058.877.527,1.029,1.076.232.838.481,1.672.779,2.7a1.729,1.729,0,0,1,2.007-1.321c.894.073,1.8.012,2.7.009.05-.071.095-.143.142-.214Z" transform="translate(-209.719 -232.21)" fill="#fa6a3b"/><path d="M264.674,314.993h-.007l0,0,0-.006" transform="translate(-210.065 -250.009)" fill="#fa6a3b"/><path d="M251.04,315.268a.444.444,0,0,0,.08-.108,8.064,8.064,0,0,1-.826.047,18.737,18.737,0,0,1-2.682.1h0a22.72,22.72,0,0,0,3.429-.034" transform="translate(-196.528 -250.142)" fill="#fa6a3b"/><path d="M.73,74.506A34.662,34.662,0,0,0,1.666,82.4a53.672,53.672,0,0,0,8.165,19.651l.165.131h.038c.038-.047.074-.1.113-.142a9.515,9.515,0,0,1,2.264-.058,1.08,1.08,0,0,1,.114.025c-.586-1.072-.056-1.864.733-2.592a.641.641,0,0,1-.143-.057A31.738,31.738,0,0,1,10.363,95,56.019,56.019,0,0,1,3.8,74.115c-.062-.56-.1-1.124-.165-1.685a1.41,1.41,0,0,1,.169-1.111c-.536,0-1.075-.04-1.608,0A1.442,1.442,0,0,0,.72,72.5h0c0,.668.034,1.337.01,2" transform="translate(-0.57 -56.592)" fill="#384848"/><path d="M48.256,219.857a9.515,9.515,0,0,0-2.264.058c-.04.046-.076.094-.113.141l2.581-.019c-.033-.053-.061-.1-.089-.155a1.04,1.04,0,0,0-.114-.025" transform="translate(-36.413 -174.469)" fill="#384848"/><path d="M14.732,72.495c.061.561.1,1.124.165,1.685a56.019,56.019,0,0,0,6.56,20.883,31.789,31.789,0,0,0,2.754,4.359.646.646,0,0,0,.143.057l.056-.053h0c-.126-.193-.25-.388-.378-.579A54.446,54.446,0,0,1,14.9,71.384a1.409,1.409,0,0,0-.169,1.111" transform="translate(-11.665 -56.657)" fill="#384848"/><path d="M120.934,10.448a11.448,11.448,0,0,1-.677,5.614,5.43,5.43,0,0,1-1.684,2.272c2.54.895,5.045.17,5.925-2.187a11.3,11.3,0,0,0,.64-6.352,1.333,1.333,0,0,1-.021-.975A11.4,11.4,0,0,0,118,.829,8.909,8.909,0,0,0,112.3.24a11.851,11.851,0,0,1,8.635,10.209" transform="translate(-89.131 0)" fill="#384848"/><path d="M112.9,1.557c.556.26,1.16.428,1.687.734a11.477,11.477,0,0,1,6.062,8.755c.4,3.126.174,6.142-2.538,8.382a7.031,7.031,0,0,0,3.032.369,3.6,3.6,0,0,0,3.278-2.074,10.882,10.882,0,0,0,.7-7.979,1.33,1.33,0,0,0,.021.975,11.305,11.305,0,0,1-.64,6.352c-.88,2.357-3.385,3.081-5.925,2.187a5.429,5.429,0,0,0,1.684-2.271,11.451,11.451,0,0,0,.677-5.614A11.851,11.851,0,0,0,112.3,1.165c.053.349.386.293.6.392" transform="translate(-89.132 -0.925)" fill="#384848"/><path d="M322.924,134.354a14.42,14.42,0,0,1,.107,2.377,2.275,2.275,0,0,0,.239.179,1.318,1.318,0,0,1,.859,1.306c-.059.677-.538.926-1.09,1.112a4.87,4.87,0,0,1-2.589,4.608.365.365,0,0,1,.061.031,7.994,7.994,0,0,1,1.648,4.454c.052.718.408,1.456-.042,2.168a64.062,64.062,0,0,0,5.316-4.043,3.559,3.559,0,0,0,1.159-2.76c.021-1.566.008-3.133.006-4.7a3.937,3.937,0,0,0-1.8-3.462c-1.259-.832-2.583-1.567-3.879-2.345h0c-.387.352-.045.747.01,1.072" transform="translate(-254.34 -105.786)" fill="#fa936d"/><path d="M322.017,189.415a7.994,7.994,0,0,0-1.648-4.454.35.35,0,0,0-.061-.031l-.037.022h0a12.168,12.168,0,0,1,1.7,6.63c.45-.712.094-1.451.042-2.168" transform="translate(-254.198 -146.779)" fill="#fa936d"/><path d="M77.984,55.376c.035,2.143-.051,4.286.06,6.428-.016.147-.029.293-.041.44a3.341,3.341,0,0,0,3.457,1.971,3.64,3.64,0,0,0,2.775-4.05c-.046-1.9-.07-3.806.006-5.7A3.808,3.808,0,0,0,81.626,50.4a3.729,3.729,0,0,0-1.3.068c-1.744.467-2.507,1.555-2.614,3.756h0c.358.318.264.751.271,1.147" transform="translate(-61.681 -39.986)" fill="#fbc06d"/><path d="M77.868,76.771a.693.693,0,0,0-.015.081c.006-.027.008-.054.015-.081.044.1.089.191.136.282.012-.147.025-.294.041-.44-.111-2.141-.025-4.285-.06-6.428-.006-.4.087-.829-.271-1.147.006,1.355-.006,2.711.022,4.065a19.419,19.419,0,0,0,.132,3.667" transform="translate(-61.681 -54.796)" fill="#fbc06d"/><path d="M54.382,239.312a2.552,2.552,0,0,0-1.485-2.846c-1.6-.707-3.193-1.427-4.721-2.28a.662.662,0,0,0-.9.135c-.327.328-.639.672-.993.97a1.809,1.809,0,0,1-2.4.01c-.2-.164-.374-.352-.556-.534L31.493,222.928a4.607,4.607,0,0,1-.875-1.07,1.455,1.455,0,0,1,.051-1.609c.283-.392.544-.8.848-1.183l-.017-.026a.346.346,0,0,1-.339-.124l-.007-.01a32.153,32.153,0,0,1-3.344-.368c.381.725.734,1.467,1.149,2.172a43.707,43.707,0,0,0,7.933,9.992,47.273,47.273,0,0,0,3.749,3.164,48.553,48.553,0,0,0,9.2,5.363,27.873,27.873,0,0,0,4.5,1.729c-.324-.555-.024-1.107.041-1.646" transform="translate(-22.072 -173.453)" fill="#fef1e2"/><path d="M64.52,241.4a2.766,2.766,0,0,0-1.623-3.126,38.756,38.756,0,0,1-3.7-1.7c-.522-.265-1.1-.807-1.551-.719-.51.1-.912.764-1.355,1.19a1.6,1.6,0,0,1-2.5-.022q-6.271-6.263-12.534-12.535a1.588,1.588,0,0,1-.027-2.64c.207-.215.48-.4.252-.745-.3.38-.565.791-.848,1.183a1.454,1.454,0,0,0-.05,1.609,4.6,4.6,0,0,0,.875,1.07L53.3,236.8c.182.182.358.37.556.534a1.809,1.809,0,0,0,2.4-.01c.354-.3.666-.643.993-.97a.662.662,0,0,1,.9-.135c1.528.853,3.12,1.573,4.721,2.28a2.552,2.552,0,0,1,1.485,2.846c-.065.539-.365,1.091-.041,1.646h0a9.23,9.23,0,0,1,.211-1.59" transform="translate(-32.04 -175.486)" fill="#fef1e2"/><path d="M44.019,220.324l.007.01a.346.346,0,0,0,.339.124l-.165-.131c-.06,0-.12,0-.18,0" transform="translate(-34.938 -174.87)" fill="#fef1e2"/><path d="M99.483,53.5c.039,2.44.083,4.883-.014,7.321a3.445,3.445,0,0,1-2.394,3.3c1.373.027,2.749.093,4.116.009a3.175,3.175,0,0,0,2.779-1.976c-.008-.122-.012-.244-.021-.366.094-2.743.046-5.486.03-8.229a3.013,3.013,0,0,0-2.958-3.037c-.972-.06-1.948,0-2.922-.023-.349-.007-.728.066-1.006-.248l-.411.053h0a3.364,3.364,0,0,1,2.8,3.2" transform="translate(-76.735 -39.88)" fill="#fba52f"/><path d="M99.677,50.494c.974.019,1.95-.036,2.922.024a3.013,3.013,0,0,1,2.958,3.036c.016,2.743.064,5.486-.03,8.229.009.122.014.244.021.367.045-.1.089-.195.129-.3h0a3.749,3.749,0,0,0,.128-1.061c-.007-2.389,0-4.778,0-7.167a3.287,3.287,0,0,0-3.355-3.356q-1.887-.014-3.775-.022c.278.314.657.241,1.006.248" transform="translate(-78.315 -39.88)" fill="#fba52f"/><path d="M98.661,54.557c-.077,1.9-.053,3.8-.006,5.7a3.64,3.64,0,0,1-2.775,4.05q.279,0,.559.008a3.444,3.444,0,0,0,2.394-3.3c.1-2.438.054-4.881.015-7.321a3.365,3.365,0,0,0-2.8-3.2,3.808,3.808,0,0,1,2.616,4.055" transform="translate(-76.099 -40.083)" fill="#fba52f"/><path d="M299.143,116.818a39.8,39.8,0,0,0-1.47,4.126c-.018.038-.038.075-.056.112.158.764-.022,1.549.1,2.322a9.533,9.533,0,0,0,2.6,4.788,18.167,18.167,0,0,1,1.822,2.324l.023-.017a.341.341,0,0,1,.148.025c.065-.256.281-.384.473-.527a4.1,4.1,0,0,0,1.852-3.177,2.564,2.564,0,0,1,.2-.889c0-.007.009-.013.014-.019a5.8,5.8,0,0,1-1.843-.932,1.111,1.111,0,0,1-.382-1.55,1.14,1.14,0,0,1,1.53-.459c.211.092.418.194.625.294a.7.7,0,0,1-.032-.111,24.1,24.1,0,0,0-.238-2.638c-.041-.235-.153-.584.289-.635l-5.677-3.49h0a.6.6,0,0,1,.029.451" transform="translate(-236.218 -92.36)" fill="#fbab8c"/><path d="M297.289,120.8a2.531,2.531,0,0,1,.068.262c.018-.038.038-.074.056-.112a39.765,39.765,0,0,1,1.47-4.127.6.6,0,0,0-.029-.451h0a28.738,28.738,0,0,0-1.564,4.427h0" transform="translate(-235.957 -92.361)" fill="#fbab8c"/><path d="M319.516,184.743l-.022.016.02.031h0c.047.006.093.011.14.013,0-.013.007-.024.01-.036a.344.344,0,0,0-.148-.025" transform="translate(-253.581 -146.63)" fill="#fbab8c"/><path d="M330.821,133.917a24.053,24.053,0,0,1,.238,2.638.727.727,0,0,0,.032.111l.136.066a14.437,14.437,0,0,0-.107-2.377c-.055-.325-.4-.72-.01-1.072h0c-.442.051-.33.4-.289.635" transform="translate(-262.537 -105.786)" fill="#fbab8c"/><path d="M322.935,162.525c-.025,0-.049-.013-.074-.018,0,.007-.01.012-.014.019a2.568,2.568,0,0,0-.2.889,4.1,4.1,0,0,1-1.852,3.177c-.192.143-.408.272-.473.527.009,0,.018.009.027.014a4.87,4.87,0,0,0,2.588-4.608" transform="translate(-254.236 -128.981)" fill="#fbab8c"/><path d="M320.307,184.879c-.009,0-.018-.01-.027-.014,0,.012-.008.023-.01.036h0l.037-.022" transform="translate(-254.197 -146.727)" fill="#fbab8c"/><path d="M158.663,265.041c-.247-.106-.559-.15-.642-.485l.024-.033-.45-.144c-.009.354-.3.514-.508.726q-1.532,1.576-3.076,3.139a58.7,58.7,0,0,0,8.774,3.341c.484.142,1.044-.014,1.458.378,1.11-.579,1.874-3.1,1.359-4.476-2.306-.833-4.679-1.479-6.938-2.447" transform="translate(-122.237 -209.837)" fill="#fb7d4b"/><path d="M173.489,265.08l-.015,0-.024.033c.083.334.395.379.642.485,2.259.968,4.631,1.614,6.938,2.447a3.211,3.211,0,0,0-1.632-.8,41.35,41.35,0,0,1-5.909-2.163" transform="translate(-137.668 -210.389)" fill="#fb7d4b"/><path d="M153.548,283.114l-.12.122a50.57,50.57,0,0,0,8.328,3.265,4.905,4.905,0,0,0,2.024.332c-.414-.393-.974-.236-1.458-.378a58.717,58.717,0,0,1-8.774-3.341" transform="translate(-121.775 -224.707)" fill="#fb7d4b"/><path d="M304.346,317.527A1.2,1.2,0,0,0,303,318.4c-.188.558-.474,1.077-.714,1.614a1.453,1.453,0,0,1-2.168.865c-.028-.021-.052-.044-.077-.066a14.163,14.163,0,0,1-2.644,2.744l.035.037A8.137,8.137,0,0,0,298.747,325a1.957,1.957,0,0,0,2.9-.009c.835-.8,1.626-1.641,2.41-2.493,1.6-1.74,3.319-3.367,4.994-5.036a2.506,2.506,0,0,1-.71.07c-1.331,0-2.663.025-3.992-.011" transform="translate(-236.046 -251.973)" fill="#fa5532"/><path d="M308.587,316.883c-1.675,1.669-3.395,3.3-4.994,5.036-.784.853-1.575,1.7-2.41,2.493a1.957,1.957,0,0,1-2.9.008,8.143,8.143,0,0,1-1.311-1.408l-.035-.037-.12.1a6.993,6.993,0,0,0,1.285,1.413,2.081,2.081,0,0,0,3.244.014c2.531-2.581,5.042-5.183,7.561-7.776h0a1.092,1.092,0,0,1-.323.152" transform="translate(-235.585 -251.388)" fill="#fa5532"/><path d="M310.3,320.08a1.454,1.454,0,0,0,2.168-.865c.24-.537.526-1.056.714-1.614a1.2,1.2,0,0,1,1.341-.876c1.33.036,2.662.011,3.993.011a2.505,2.505,0,0,0,.709-.07l0,0a1.505,1.505,0,0,1,.175-.149c-1.312.006-2.631.09-3.932-.029-1.447-.132-2.486.148-2.8,1.743a5.027,5.027,0,0,1-.347.768c-.427,1.1-.883,1.3-2.02.906-.024.038-.052.074-.077.111.026.022.049.046.077.066" transform="translate(-246.22 -251.17)" fill="#fa5532"/><path d="M354.033,316.732a1.546,1.546,0,0,0-.175.149l0,0a1.092,1.092,0,0,0,.323-.152h-.146" transform="translate(-280.854 -251.388)" fill="#fa5532"/><path d="M336.879,266.147a6.146,6.146,0,0,1-.658,4.962,1.725,1.725,0,0,1-.323.423c1.443-.042,2.884-.014,4.326-.018a1.571,1.571,0,0,1,.87.176c-.174-.386.129-.724.241-1.063a5.845,5.845,0,0,0-3.815-7.445,5.746,5.746,0,0,0-2.629-.083,5.341,5.341,0,0,1,1.988,3.049" transform="translate(-265.802 -208.732)" fill="#fa5532"/><path d="M336.609,262.159a5.845,5.845,0,0,1,3.814,7.445c-.112.339-.415.677-.241,1.063.025.016.051.031.076.05a7.1,7.1,0,0,0,.425-4.72c-.86-3.018-4.208-4.99-6.94-4.072.082.048.16.1.237.15a5.747,5.747,0,0,1,2.629.083" transform="translate(-264.891 -207.709)" fill="#fa5532"/><path d="M342.888,304.3c-1.441,0-2.883-.024-4.326.018a1.178,1.178,0,0,1-.314.218l5.536-.01c-.009-.017-.018-.034-.026-.051a1.571,1.571,0,0,0-.87-.176" transform="translate(-268.466 -241.516)" fill="#fa5532"/><path d="M364.956,305.169c.008.017.017.034.026.051h.05c-.025-.019-.05-.034-.076-.05" transform="translate(-289.664 -242.212)" fill="#fa5532"/><path d="M335.327,271.963l.173,0a1.729,1.729,0,0,0,.323-.423,6.146,6.146,0,0,0,.658-4.962,5.343,5.343,0,0,0-1.988-3.049l-.1.017a10.791,10.791,0,0,1,1.33,1.683,6.19,6.19,0,0,1-.392,6.738" transform="translate(-265.404 -209.16)" fill="#fa5532"/><path d="M333.877,262.964l.1-.017q-.114-.078-.237-.15c.043.057.088.112.133.167" transform="translate(-264.892 -208.581)" fill="#fa5532"/><path d="M338.391,304.41c-.047.071-.092.143-.142.214a1.178,1.178,0,0,0,.314-.218l-.173,0" transform="translate(-268.467 -241.606)" fill="#fa5532"/><path d="M6.983,106.249a9.3,9.3,0,0,1,2.008.285A45.238,45.238,0,0,1,4.32,98.067,54.112,54.112,0,0,1,.214,82.878,32.666,32.666,0,0,1,.15,77.12c-.226.268-.127.59-.132.888A72.449,72.449,0,0,0,.628,89.376a53.919,53.919,0,0,0,5.109,16.918c.4-.294.838-.113,1.246-.045" transform="translate(0 -61.21)" fill="#3f5959"/><path d="M.423,82.879A54.11,54.11,0,0,0,4.529,98.068,45.246,45.246,0,0,0,9.2,106.535a1.983,1.983,0,0,1,.27.133A53.667,53.667,0,0,1,1.305,87.017a34.661,34.661,0,0,1-.937-7.893c.024-.667-.005-1.335-.01-2h0a32.663,32.663,0,0,0,.064,5.758" transform="translate(-0.209 -61.211)" fill="#3f5959"/><path d="M31.063,218.151a9.288,9.288,0,0,0-2.008-.285c-.408-.068-.842-.248-1.246.045a32.1,32.1,0,0,0,3.344.368c-.031-.042-.06-.086-.09-.129" transform="translate(-22.072 -172.827)" fill="#3f5959"/><path d="M43.582,219.7c.031.043.059.087.09.129.06,0,.12,0,.18,0a1.993,1.993,0,0,0-.27-.133" transform="translate(-34.591 -174.374)" fill="#3f5959"/><path d="M283.641,321.294a13.421,13.421,0,0,1,1.239-1.252,2.6,2.6,0,0,1-.635-1.3c-.2-.69-.418-1.374-.626-2.062-.015-.051-.055-.086-.167-.15a2.706,2.706,0,0,0-.763,1.061,2.272,2.272,0,0,1-2.38,1.342,8.7,8.7,0,0,1-1.976-.081c.013.012.026.024.039.036,1.286,1.3,2.612,2.557,3.861,3.892a9.273,9.273,0,0,1,1.407-1.484" transform="translate(-220.913 -251.227)" fill="#fa6a3b"/><path d="M277.251,327.346c-.013-.013-.026-.024-.039-.036a1.717,1.717,0,0,1-.292-.124l4.105,4.192c.027-.048.057-.093.086-.139-1.249-1.335-2.575-2.594-3.861-3.892" transform="translate(-219.791 -259.686)" fill="#fa6a3b"/><path d="M279.744,317.094a2.272,2.272,0,0,0,2.38-1.342,2.706,2.706,0,0,1,.763-1.061c.112.064.152.1.167.15.207.688.426,1.372.626,2.062a2.6,2.6,0,0,0,.635,1.3c.036-.028.072-.057.109-.083a2.513,2.513,0,0,1-.46-.958c-.245-.832-.486-1.665-.736-2.5-.049-.164-.025-.4-.235-.449-.23-.049-.26.2-.351.34-.324.49-.664.972-.95,1.484a1.6,1.6,0,0,1-1.523.843c-.849,0-1.7,0-2.547,0a1.494,1.494,0,0,1,.147.124,8.68,8.68,0,0,0,1.976.081" transform="translate(-220.347 -249.39)" fill="#fa6a3b"/><path d="M277.066,327.186h-.145a1.7,1.7,0,0,0,.292.124,1.471,1.471,0,0,0-.147-.124" transform="translate(-219.791 -259.686)" fill="#fa6a3b"/><path d="M299.916,333.593l-.032-.028a13.424,13.424,0,0,0-1.239,1.252,9.291,9.291,0,0,0-1.407,1.484l.034.035a14.17,14.17,0,0,0,2.644-2.744" transform="translate(-235.917 -264.75)" fill="#fa6a3b"/><path d="M296.941,346.865l-.034-.035c-.029.046-.059.091-.086.139l.12-.1" transform="translate(-235.586 -275.278)" fill="#fa6a3b"/><path d="M310.094,333.272c.025-.038.052-.073.077-.111-.038.027-.073.055-.109.083l.032.028" transform="translate(-246.095 -264.429)" fill="#fa6a3b"/><path d="M160.162,144.833a7.485,7.485,0,0,1-.863-4.546,12.541,12.541,0,0,1-5.925,6.031,14.352,14.352,0,0,1-5.527,1.253c-4.191.161-8.364-.463-12.554-.306a14.525,14.525,0,0,0-8.891,3.025,23.476,23.476,0,0,1-2.759,2.215.753.753,0,0,1-.141.035c.045.3.307.455.5.649q2.6,2.643,5.221,5.275c.892.876,1.8,1.736,2.671,2.634a1.562,1.562,0,0,1-.043,2.254,5.624,5.624,0,0,0-1.119,1.244l0,0,0,0,2.61,1.271.019-.02a.412.412,0,0,1,.476.176,33.232,33.232,0,0,1,3.56-4.48,24.555,24.555,0,0,1,11-6.411c2.986-.8,6.069-1.08,9.1-1.63a5.572,5.572,0,0,0,2.455-1.039c1.31-1,2.62-2,3.954-2.969a.278.278,0,0,1-.159-.082,37.368,37.368,0,0,1-3.587-4.581" transform="translate(-98.022 -111.345)" fill="#fef1e2"/><path d="M123.6,150.554a23.49,23.49,0,0,0,2.759-2.215,14.524,14.524,0,0,1,8.891-3.025c4.19-.157,8.363.467,12.555.306a14.347,14.347,0,0,0,5.527-1.253,12.54,12.54,0,0,0,5.925-6.031c.015-.169.033-.338.055-.507h0a12.762,12.762,0,0,1-6.686,6.624,17.72,17.72,0,0,1-6.742,1c-3.6-.026-7.184-.539-10.791-.354a14.8,14.8,0,0,0-8.992,3.174c-.892.736-1.768,1.491-2.651,2.237a.6.6,0,0,0,.009.081.768.768,0,0,0,.141-.035" transform="translate(-97.985 -109.394)" fill="#fef1e2"/><path d="M199.707,187.893a5.571,5.571,0,0,1-2.455,1.039c-3.033.55-6.117.829-9.1,1.63a24.553,24.553,0,0,0-11,6.411,33.233,33.233,0,0,0-3.56,4.48l.01.011c.272,0,.378-.2.519-.394a29.756,29.756,0,0,1,4.121-4.822,27.36,27.36,0,0,1,5.134-3.608c3.482-1.9,7.324-2.482,11.168-3.07,2.1-.322,4.29-.409,5.979-2.02.995-.949,2.3-1.526,3.189-2.615l-.047-.011c-1.334.97-2.643,1.97-3.954,2.969" transform="translate(-137.776 -146.774)" fill="#fef1e2"/><path d="M297.715,143.892a37.369,37.369,0,0,0,3.587,4.581.278.278,0,0,0,.159.082l.027-.02a18.186,18.186,0,0,0-1.821-2.323,9.532,9.532,0,0,1-2.6-4.788c-.118-.773.063-1.558-.1-2.322-.04.082-.082.163-.123.244a7.485,7.485,0,0,0,.863,4.546" transform="translate(-235.575 -110.405)" fill="#fef1e2"/><path d="M297.144,138.091a2.519,2.519,0,0,0-.068-.262c-.022.169-.04.338-.055.507.041-.081.083-.163.123-.245" transform="translate(-235.745 -109.394)" fill="#fef1e2"/><path d="M319.359,184.846l.047.011-.02-.031-.027.02" transform="translate(-253.474 -146.696)" fill="#fef1e2"/><path d="M171.21,264.119l-.019.02.04.019.45.144,0-.006a.411.411,0,0,0-.476-.176" transform="translate(-135.874 -209.616)" fill="#fef1e2"/><path d="M173.566,265.051l.015,0-.01-.011Z" transform="translate(-137.759 -210.365)" fill="#fef1e2"/><path d="M70.912,194.935h0c-.153-1.3.223-1.71,1.513-1.658a31.121,31.121,0,0,0,4.515-4.415c.255-.283.012-.712.188-1.033-1.726-1.759-3.488-3.481-5.215-5.239-.214-.218-.579-.4-.457-.8-.346.033-.575-.225-.807-.454-1.128-1.115-2.242-2.245-3.369-3.362s-1.7-1.12-2.832,0c-.419.413-.825.839-1.252,1.244-.186.177-.363.392-.641.384.028.3-.214.464-.392.646-.915.929-1.834,1.854-2.768,2.764-.178.174-.343.437-.621.41a.182.182,0,0,1-.033.157,2.485,2.485,0,0,0-.7,2.437,2.439,2.439,0,0,1,.94.73q4.694,4.68,9.381,9.368l.184.186c1.151.3,1.723-.61,2.367-1.367M65.551,182a1.128,1.128,0,0,1,1.756.063q2.928,2.9,5.835,5.831a1.125,1.125,0,0,1,.356,1.379,1.274,1.274,0,0,1-1.071.751,1.392,1.392,0,0,1-.884-.45c-1.96-1.965-3.928-3.922-5.883-5.892-.6-.6-.618-1.153-.108-1.682m2.709,9.844a1.159,1.159,0,1,1,2.318-.021,1.127,1.127,0,0,1-1.143,1.166,1.144,1.144,0,0,1-1.175-1.145" transform="translate(-46.021 -140.592)" fill="#a8d2d7"/><path d="M80.138,178.816c.277.009.454-.207.641-.384.427-.4.834-.831,1.252-1.244,1.135-1.121,1.7-1.124,2.832,0s2.241,2.246,3.369,3.361c.232.229.46.488.807.454a.744.744,0,0,1,.033-.087c-.345.048-.488-.24-.679-.428-1.255-1.243-2.5-2.5-3.755-3.742a1.512,1.512,0,0,0-2.412-.012c-.7.671-1.395,1.352-2.092,2.028a.49.49,0,0,1,0,.054" transform="translate(-63.601 -139.802)" fill="#a8d2d7"/><path d="M68.589,230.293q-4.7-4.672-9.381-9.368a2.437,2.437,0,0,0-.94-.73c.008.047.016.094.025.141.211.186.433.36.631.558q3.463,3.455,6.921,6.914c.871.868,1.76,1.719,2.642,2.577a2.318,2.318,0,0,0,.286.092l-.184-.186" transform="translate(-46.248 -174.768)" fill="#a8d2d7"/><path d="M61.792,192.906c.278.027.442-.236.621-.41.934-.91,1.853-1.835,2.768-2.764.178-.181.42-.342.392-.646-.017,0-.035,0-.053-.005l-3.738,3.76c0,.02.007.043.01.065" transform="translate(-49.036 -150.073)" fill="#a8d2d7"/><path d="M79.953,188.9a.492.492,0,0,0,0-.054l-.048.048c.018,0,.035,0,.052.005" transform="translate(-63.417 -149.888)" fill="#a8d2d7"/><path d="M57.763,207.733a.182.182,0,0,0,.033-.157.476.476,0,0,1-.067-.012c-.788.728-1.319,1.52-.733,2.592.021.005.044.008.065.014a2.485,2.485,0,0,1,.7-2.437" transform="translate(-45.041 -164.743)" fill="#a8d2d7"/><path d="M58.021,220.141c-.02-.006-.043-.009-.065-.014.028.051.056.1.089.155-.009-.047-.017-.094-.025-.141" transform="translate(-46 -174.714)" fill="#a8d2d7"/><path d="M61.564,207.309h0l-.057.053a.476.476,0,0,0,.067.012c0-.022-.006-.044-.01-.065" transform="translate(-48.818 -164.541)" fill="#a8d2d7"/><path d="M123.658,200.488c1.726,1.758,3.489,3.48,5.215,5.239a.489.489,0,0,1,.09-.118q-2.612-2.636-5.221-5.275c-.191-.194-.453-.348-.5-.649l-.042.005c-.122.4.243.579.457.8" transform="translate(-97.765 -158.489)" fill="#a8d2d7"/><path d="M123.337,199.372a.592.592,0,0,1-.009-.081.745.745,0,0,0-.033.087l.042-.005" transform="translate(-97.859 -158.177)" fill="#a8d2d7"/><path d="M87.421,111.086a23.478,23.478,0,0,1-4.733.068.44.44,0,0,1-.241-.079l-.059.018a3.623,3.623,0,0,1-3.484-1.624q-.037-.067-.071-.137a25.63,25.63,0,0,0,.036,3.4,2.973,2.973,0,0,0,2.885,2.621c1.691.077,3.388.073,5.08,0a3.032,3.032,0,0,0,2.934-2.841,27.953,27.953,0,0,0,.019-3.29,2.882,2.882,0,0,1-2.365,1.857" transform="translate(-62.537 -86.695)" fill="#384848"/><path d="M88.925,110.358a3.032,3.032,0,0,1-2.934,2.841c-1.691.071-3.389.074-5.08,0a2.973,2.973,0,0,1-2.885-2.621,25.631,25.631,0,0,1-.036-3.4.979.979,0,0,1-.124-.581,18.915,18.915,0,0,0-.1,3.581,3.239,3.239,0,0,0,3.186,3.268c1.668.025,3.338.062,5-.013A2.976,2.976,0,0,0,88.74,111.7c.773-1.688.434-3.447.317-5.191a2.388,2.388,0,0,1-.113.561,27.957,27.957,0,0,1-.019,3.29" transform="translate(-61.694 -84.534)" fill="#384848"/><path d="M79.062,108.4a3.623,3.623,0,0,0,3.484,1.624l.059-.018a.384.384,0,0,1-.13-.152,3.341,3.341,0,0,1-3.457-1.971c-.011.127-.019.253-.027.38.023.046.046.092.071.137" transform="translate(-62.695 -85.63)" fill="#384848"/><path d="M78.486,107.181c.008-.127.016-.253.027-.38-.047-.091-.092-.185-.136-.282-.006.027-.009.054-.015.081a.978.978,0,0,0,.124.581" transform="translate(-62.19 -84.544)" fill="#384848"/><path d="M96.753,110.136a23.478,23.478,0,0,0,4.733-.068,2.882,2.882,0,0,0,2.365-1.858c0-.088-.01-.177-.015-.265a3.174,3.174,0,0,1-2.779,1.976c-1.367.085-2.742.018-4.116-.009-.138.052-.28.1-.428.144a.438.438,0,0,0,.241.08" transform="translate(-76.601 -85.676)" fill="#384848"/><path d="M132.01,106.8q.008.132.015.265a2.379,2.379,0,0,0,.113-.562c-.04.1-.083.2-.128.3" transform="translate(-104.776 -84.534)" fill="#384848"/><path d="M96.009,117.592c.148-.043.291-.091.428-.144q-.279-.006-.559-.008a.383.383,0,0,0,.13.152" transform="translate(-76.099 -93.212)" fill="#384848"/><path d="M189.224,94.291a1.026,1.026,0,0,0,1.217-.127,2.246,2.246,0,0,0,.591-.97,1.477,1.477,0,0,1,1.517-.954,1.447,1.447,0,0,1,1.393,1.025c.061.14.091.3.157.433a1.17,1.17,0,0,0,1.407.672c.6-.123.814-.571.788-1.186a1.7,1.7,0,0,0-.18-.86,3.849,3.849,0,0,0-4.131-2.413,3.983,3.983,0,0,0-3.411,3.335,1.081,1.081,0,0,0,.654,1.046" transform="translate(-149.666 -71.354)" fill="#384848"/><path d="M119.81,235.454c-.1-.285.094-.478.265-.672.219-.249.469-.469.7-.711a1.42,1.42,0,0,0,.009-2.109c-.788-.83-1.611-1.628-2.425-2.434a2.127,2.127,0,0,1-.738,1.764c-1.07,1.029-2.1,2.095-3.156,3.142a2.008,2.008,0,0,1-.748.558,1.134,1.134,0,0,1,.534,1.248,1.15,1.15,0,0,1-.851.894,1.23,1.23,0,0,1-1.28-.511,3.028,3.028,0,0,1-.9,1.052,1.218,1.218,0,0,1-1.435.335q1.217,1.238,2.456,2.452a1.346,1.346,0,0,0,2.14.02c.524-.455.846-1.186,1.656-1.272l.011,0a42.557,42.557,0,0,1,3.769-3.762" transform="translate(-87.131 -182.176)" fill="#8fb9c3"/><path d="M114.459,271.011c-.81.086-1.131.817-1.656,1.272a1.346,1.346,0,0,1-2.14-.02q-1.242-1.212-2.456-2.452a2.923,2.923,0,0,1-.408-.217c.925.949,1.84,1.909,2.778,2.845a1.472,1.472,0,0,0,2.342.01,7.77,7.77,0,0,1,1.46-1.332c.03-.034.062-.067.092-.1l-.011,0" transform="translate(-85.56 -213.976)" fill="#8fb9c3"/><path d="M153.674,231.065a1.421,1.421,0,0,1-.009,2.109c-.227.242-.476.462-.7.711-.171.194-.365.387-.265.672l.026-.024,0,0a5.623,5.623,0,0,1,1.119-1.244,1.563,1.563,0,0,0,.043-2.255c-.87-.9-1.779-1.758-2.671-2.634.014.08.02.157.026.233.814.806,1.637,1.6,2.425,2.434" transform="translate(-120.025 -181.279)" fill="#8fb9c3"/><path d="M110.741,264.57a3.026,3.026,0,0,0,.9-1.052c-.032-.034-.063-.069-.094-.105-.644.758-1.215,1.665-2.367,1.368l.123.124a1.218,1.218,0,0,0,1.435-.335" transform="translate(-86.658 -209.07)" fill="#8fb9c3"/><path d="M132.693,228.971c-.177.321.067.75-.188,1.033a31.141,31.141,0,0,1-4.515,4.415c.06.043.12.087.177.132a2.006,2.006,0,0,0,.748-.558c1.052-1.048,2.086-2.114,3.156-3.142a2.127,2.127,0,0,0,.738-1.764l-.113-.112,0,0" transform="translate(-101.585 -181.734)" fill="#8fb9c3"/><path d="M108.086,269.687a2.315,2.315,0,0,1-.286-.093,2.933,2.933,0,0,0,.408.217l-.123-.124" transform="translate(-85.561 -213.976)" fill="#8fb9c3"/><path d="M150.786,228.516l0,0,.113.112c-.006-.077-.013-.153-.026-.233a.489.489,0,0,0-.09.118" transform="translate(-119.678 -181.279)" fill="#8fb9c3"/><path d="M143.956,258.266a41.23,41.23,0,0,1-3.756,3.764c.941.374,1.768.986,2.729,1.318.038-.262.275-.41.446-.585,1.062-1.087,2.159-2.141,3.207-3.243a7.383,7.383,0,0,1-2.6-1.191.556.556,0,0,1-.023-.063" transform="translate(-111.276 -204.985)" fill="#fa5532"/><path d="M142.523,277.83c-.961-.332-1.788-.944-2.729-1.318l-.105.1A19.857,19.857,0,0,0,142.523,278h0a.533.533,0,0,1,0-.166" transform="translate(-110.871 -219.467)" fill="#fa5532"/><path d="M153.875,267.587c-.171.175-.408.323-.446.585.038.013.075.029.113.041l.006,0q1.54-1.568,3.077-3.139c.206-.212.5-.372.508-.726l-.052-.007c-1.048,1.1-2.145,2.156-3.207,3.243" transform="translate(-121.776 -209.809)" fill="#fa5532"/><path d="M153.4,282.9a.533.533,0,0,0,0,.166h0l.12-.122-.006,0c-.039-.012-.076-.028-.114-.041" transform="translate(-121.75 -224.538)" fill="#fa5532"/><path d="M158.433,258.125l-.025.027a.558.558,0,0,0,.023.063,7.383,7.383,0,0,0,2.6,1.191l.012-.012-2.61-1.271,0,0" transform="translate(-125.728 -204.871)" fill="#fa5532"/><path d="M171.134,264.3l.052.007-.04-.02-.012.012" transform="translate(-135.829 -209.762)" fill="#fa5532"/><path d="M143.9,258.252v0a42.639,42.639,0,0,0-3.769,3.762l.014.006a41.226,41.226,0,0,0,3.756-3.764" transform="translate(-111.224 -204.971)" fill="#fa5532"/><path d="M139.782,276.484c-.03.034-.062.067-.092.1.036-.031.07-.064.105-.1l-.014-.006" transform="translate(-110.872 -219.445)" fill="#fa5532"/><path d="M158.4,258.16l.025-.027-.026.024v0" transform="translate(-125.722 -204.879)" fill="#fa5532"/><path d="M324.562,151.432c.912-.64.936-1.172.08-1.913a1.554,1.554,0,0,1-.354-.384c-.231.083-.429-.068-.636-.146q-1.008-.379-1.4.348c-.251.467-.067.982.5,1.375a15.772,15.772,0,0,1,1.579.935,1,1,0,0,1,.235-.215" transform="translate(-255.683 -118.149)" fill="#405959"/><path d="M332.54,150.042a1.548,1.548,0,0,0,.354.384c.857.741.832,1.273-.08,1.913a.99.99,0,0,0-.235.215c.018.016.037.03.054.046.552-.186,1.031-.435,1.09-1.112a1.318,1.318,0,0,0-.859-1.306,2.249,2.249,0,0,1-.239-.179.461.461,0,0,1-.086.04" transform="translate(-263.936 -119.056)" fill="#405959"/><path d="M321.87,149.757c-.563-.393-.746-.908-.5-1.375.261-.486.728-.6,1.4-.348.207.078.4.229.636.146a.7.7,0,0,1-.05-.106c-.207-.1-.414-.2-.625-.294a1.14,1.14,0,0,0-1.53.459,1.111,1.111,0,0,0,.382,1.55,5.8,5.8,0,0,0,1.843.932l.02-.028a15.82,15.82,0,0,0-1.579-.935" transform="translate(-254.805 -117.194)" fill="#405959"/><path d="M332.656,162.372l-.02.028c.025.006.049.013.074.018-.017-.017-.037-.03-.054-.046" transform="translate(-264.012 -128.874)" fill="#405959"/><path d="M332.434,149.748h0l-.136-.066a.712.712,0,0,0,.05.106.462.462,0,0,0,.086-.04" transform="translate(-263.744 -118.802)" fill="#405959"/><path d="M100.145,207.214a1.274,1.274,0,0,0,1.071-.751,1.125,1.125,0,0,0-.356-1.379q-2.913-2.92-5.835-5.831a1.128,1.128,0,0,0-1.756-.063c-.51.528-.491,1.078.108,1.682,1.956,1.969,3.923,3.927,5.883,5.891a1.391,1.391,0,0,0,.884.45" transform="translate(-73.739 -157.788)" fill="#31a6fa"/><path d="M121.238,257.7a.949.949,0,0,1,.366.194.883.883,0,0,0,1.309-.086.911.911,0,0,0-.051-1.321c-.08-.085-.193-.16-.231-.273l-.026,0c-1.151.089-1.191.119-1.367,1.482" transform="translate(-96.226 -203.359)" fill="#168f5f"/><path d="M120.652,257.022c.176-1.363.216-1.393,1.367-1.482l.026,0a.267.267,0,0,1,0-.173c-1.291-.052-1.666.359-1.513,1.658a.39.39,0,0,1,.12,0" transform="translate(-95.64 -202.677)" fill="#168f5f"/><path d="M122.76,256.332a.911.911,0,0,1,.051,1.321.884.884,0,0,1-1.309.086.946.946,0,0,0-.366-.194c0,.021-.005.04-.008.062s-.013.027-.019.041a1.23,1.23,0,0,0,1.28.511,1.15,1.15,0,0,0,.851-.894,1.134,1.134,0,0,0-.534-1.248.979.979,0,0,1-.177.041c.039.112.151.187.231.273" transform="translate(-96.124 -203.201)" fill="#168f5f"/><path d="M127.935,255.552a.955.955,0,0,0,.177-.041c-.057-.045-.117-.089-.177-.132a.267.267,0,0,0,0,.173" transform="translate(-101.53 -202.694)" fill="#168f5f"/><path d="M120.775,263.4a.39.39,0,0,0-.12,0c.031.036.062.071.094.105.006-.014.013-.027.019-.041s.005-.041.008-.062" transform="translate(-95.764 -209.057)" fill="#168f5f"/><path d="M110.116,243.824a1.159,1.159,0,1,0-2.318.021,1.144,1.144,0,0,0,1.175,1.145,1.127,1.127,0,0,0,1.143-1.166" transform="translate(-85.559 -192.597)" fill="#f95533"/></g></g></g></svg>