<svg xmlns="http://www.w3.org/2000/svg" xmlns:xlink="http://www.w3.org/1999/xlink" width="112" height="112" viewBox="0 0 112 112"><defs><clipPath id="a"><rect width="77.202" height="67.467" fill="none"/></clipPath></defs><g transform="translate(5525 10887.525)"><circle cx="56" cy="56" r="56" transform="translate(-5525 -10887.525)" fill="#9ea257"/><g transform="translate(-5508 -10865.99)"><g clip-path="url(#a)"><path d="M2.656,302.379q35.945-.042,71.89,0a2.6,2.6,0,0,0,2.656-1.392v-5.417a.233.233,0,0,1-.292-.165,2.105,2.105,0,0,0-1.684-1.226,7.873,7.873,0,0,0-1.393-.059,1.764,1.764,0,0,1-.517-.069h-.183q-14.22.007-28.44.013-3.724,0-7.448-.01H11.168l-2.427,0-6.9-.011A13.585,13.585,0,0,0,0,295.42v5.567a2.6,2.6,0,0,0,2.656,1.392" transform="translate(0 -234.912)" fill="#b4acb5"/><path d="M366.641,294.062h-2.074a1.763,1.763,0,0,0,.516.069,7.873,7.873,0,0,1,1.393.059,2.105,2.105,0,0,1,1.684,1.226.233.233,0,0,0,.292.165,2.134,2.134,0,0,0-1.811-1.521" transform="translate(-291.25 -234.924)" fill="#b4acb5"/><path d="M1.791,294.045h0A2.366,2.366,0,0,0,0,295.418a13.613,13.613,0,0,1,1.838-1.373H1.791" transform="translate(0 -234.911)" fill="#b4acb5"/><path d="M243.449,92.9l-16.236.015a1.475,1.475,0,0,1-.621.524,8.859,8.859,0,0,0-4.474,6.253,13.743,13.743,0,0,0-.178,2.458q-.017,14.737-.007,29.474c0,.787.006,1.1.3,1.218,1.685.011,3.37.023,5.054.021q10.947-.014,21.894,0a4,4,0,0,1,1.118.063h.1c-.007-.007-.015-.012-.022-.019a2.347,2.347,0,0,1-.177-1.32q-.007-15.1,0-30.2a8.43,8.43,0,0,0-3.939-7.422c-.187-.126-.368-.264-.564-.375a1.363,1.363,0,0,1-.755-1.064c-.135.368-.518.37-1.5.371" transform="translate(-177.3 -73.924)" fill="#eeecee"/><path d="M336.364,87.431a1.362,1.362,0,0,0,.755,1.064c.2.11.376.249.564.375a8.431,8.431,0,0,1,3.94,7.422q-.015,15.1,0,30.2a2.348,2.348,0,0,0,.177,1.319c.007.007.015.012.022.019h.023l.008,0q0-15.8,0-31.59a8.423,8.423,0,0,0-4.011-7.51c-.864-.56-1.524-1.095-1.276-2.231.022-.1-.068-.23-.107-.345a.471.471,0,0,0-.053.045,3.809,3.809,0,0,1-.042,1.239" transform="translate(-268.719 -68.822)" fill="#eeecee"/><path d="M250.38,293.012q-10.947,0-21.894,0c-1.685,0-3.369-.009-5.054-.021a3.062,3.062,0,0,0,.994.081l27.072,0a4,4,0,0,0-1.118-.063" transform="translate(-178.499 -234.07)" fill="#eeecee"/><path d="M97.323,70.313a5.392,5.392,0,0,1,5.52-5.521c.125,0,.25,0,.376,0a33.839,33.839,0,0,1,.132-3.515,5.442,5.442,0,0,1,4.086-4.3c1.514-.273,1.514-.273,1.514-1.826,0-1.653-.048-3.308.01-4.959a11.4,11.4,0,0,1,4.574-8.88,2.629,2.629,0,0,0,.664-.7q.069-.137.127-.278a1.775,1.775,0,0,0,.074-.743,4.721,4.721,0,0,1,.724-3.511,3.825,3.825,0,0,1,3.186-1.678c1.443.017,2.887,0,4.331,0a13.114,13.114,0,0,0-4.561-4.345,2.248,2.248,0,0,1-.922-.768l-23.436.007q0,26.021,0,52.042c0,.331.005.663.009.994q1.8-.04,3.6,0c.005-4,.059-8.009-.007-12.012" transform="translate(-74.875 -23.394)" fill="#e4e0e4"/><path d="M211.183,30.051a13.116,13.116,0,0,1,4.561,4.345h.187a10.658,10.658,0,0,0-1.5-2.026,21.933,21.933,0,0,0-4.089-3.087h-.081a2.247,2.247,0,0,0,.922.768" transform="translate(-167.976 -23.394)" fill="#e4e0e4"/><path d="M93.772,292.959c0,.07,0,.139,0,.209h3.6c0-.07,0-.14,0-.21q-1.8-.04-3.6,0" transform="translate(-74.914 -234.027)" fill="#e4e0e4"/><path d="M15.407,31.7a11.391,11.391,0,0,0-5.568,8.256,9.785,9.785,0,0,0-.072,1.5q0,20.438,0,40.876a5.366,5.366,0,0,1-.072,1.345c-.008.021-.014.047-.023.07a1.525,1.525,0,0,1,.7-.123c2.02,0,4.04-.03,6.06.016h.039q0-26.356,0-52.711a4.273,4.273,0,0,1-1.064.773" transform="translate(-7.725 -24.705)" fill="#d6cfd5"/><path d="M9.08,82.963a5.355,5.355,0,0,0,.072-1.345q0-20.438,0-40.876a9.785,9.785,0,0,1,.072-1.5,11.39,11.39,0,0,1,5.568-8.256,4.26,4.26,0,0,0,1.064-.773v-.179c-.75.5-1.526.96-2.246,1.5a10.891,10.891,0,0,0-4.681,9.028c-.034,9.8-.011,19.6-.014,29.406q0,6.58-.015,13.161a.9.9,0,0,1,.154-.1c.008-.023.015-.049.022-.07" transform="translate(-7.113 -23.995)" fill="#d6cfd5"/><path d="M16.007,292.938c-2.02-.046-4.04-.012-6.06-.016a1.524,1.524,0,0,0-.7.124.1.1,0,0,1-.04.059l-.066.037,6.9.011v-.215h-.038" transform="translate(-7.303 -234.007)" fill="#d6cfd5"/><path d="M9.059,293.57a.891.891,0,0,0-.154.1h.048c.022-.012.043-.025.066-.037a.1.1,0,0,0,.04-.059" transform="translate(-7.114 -234.531)" fill="#d6cfd5"/><path d="M53.614,77.071q-.01-6.089,0-12.178,0-19.206,0-38.412a2.56,2.56,0,0,1,.2-1.467c.014-.011.028-.019.042-.029a1.133,1.133,0,0,0-2.257.05q0,.3,0,.607c0,1.1-.015,2.207.011,3.309.011.459-.149.615-.608.606-1.256-.024-2.512-.01-3.768-.011-1.059,0-1.059,0-1.059-1.078q0-1.716,0-3.433c-.358-1.058-.816-1.272-2.059-.9a2.228,2.228,0,0,1-.242,1.084c-.014.02-.029.038-.044.057A1.959,1.959,0,0,1,44,26.48q.011,9.359,0,18.718,0,15.824,0,31.648a2.735,2.735,0,0,1-.11,1.228c.763-.018,1.527-.021,2.29,0,0-1.73.005-3.461-.019-5.191-.007-.538.16-.772.729-.761q1.992.04,3.985,0c.568-.011.738.221.731.76-.024,1.731-.016,3.461-.019,5.192q1.071-.029,2.143,0a2.191,2.191,0,0,1-.114-1.006M46.791,31.8c1.4.018,2.808.015,4.212,0,.389,0,.609.075.6.533q-.034,1.651,0,3.3c.009.448-.194.553-.592.542-.7-.019-1.4-.005-2.106-.005-.727,0-1.455-.017-2.181.006-.429.014-.57-.156-.562-.572.019-1.076.026-2.152,0-3.227-.013-.486.2-.585.631-.58m4.811,37.5c.007.412-.125.581-.557.576-1.454-.018-2.908-.016-4.362,0-.4,0-.525-.156-.52-.535.014-1.1.02-2.2,0-3.3-.009-.452.2-.548.6-.537.7.019,1.4.005,2.106.005.727,0,1.455.017,2.181-.006.431-.014.567.159.559.574q-.029,1.613,0,3.227m0-20.092c.006.411-.188.505-.551.5-1.454-.011-2.908-.013-4.362,0-.393,0-.529-.148-.524-.531.015-1.1.02-2.2,0-3.3-.009-.446.191-.554.591-.543.7.02,1.4.005,2.106.006.727,0,1.454.009,2.181,0,.354-.006.568.074.562.493q-.024,1.688,0,3.377m0,6.7c.007.414-.13.579-.56.574-1.453-.018-2.906-.016-4.359,0-.4,0-.524-.158-.52-.536.014-1.15.02-2.3,0-3.45-.008-.454.206-.545.6-.535.7.018,1.4.005,2.1.005.727,0,1.454.017,2.18-.006.431-.014.566.161.559.574q-.028,1.687,0,3.375m0,6.717c0,.36-.155.483-.5.477-.752-.012-1.5,0-2.256,0-.7,0-1.4-.015-2.106.007-.414.013-.585-.125-.577-.557.021-1.1.018-2.2,0-3.3-.006-.4.162-.519.539-.516q2.181.018,4.362,0c.378,0,.543.119.538.517-.017,1.126-.013,2.251,0,3.377M51,42.947c-.727-.018-1.454-.005-2.181-.005-.677,0-1.354-.017-2.03.006-.426.014-.647-.086-.635-.576.028-1.075.022-2.151,0-3.227-.007-.414.129-.579.559-.574,1.454.018,2.908.016,4.362,0,.4,0,.522.16.518.537-.014,1.1-.02,2.2,0,3.3.009.455-.206.544-.6.535" transform="translate(-35.01 -19.147)" fill="#cac3cb"/><path d="M43.6,10.253a2.231,2.231,0,0,0,.242-1.084l-.07.021V5.23h0c-.22.258-.115.568-.128.856a24.938,24.938,0,0,1-.155,4.133.922.922,0,0,1,.067.091c.014-.019.03-.037.044-.057" transform="translate(-34.742 -4.178)" fill="#cac3cb"/><path d="M43.6,292.966a1.048,1.048,0,0,1-.137.217l2.427,0q0-.106,0-.211c-.763-.024-1.527-.021-2.29,0" transform="translate(-34.726 -234.038)" fill="#cac3cb"/><path d="M82.418,292.976c0,.07,0,.139,0,.209H84.7a.9.9,0,0,1-.142-.211q-1.072-.029-2.143,0" transform="translate(-65.843 -234.045)" fill="#cac3cb"/><path d="M92.7,29.088h0c0-.021,0-.038-.005-.057-.014.01-.029.018-.043.029a2.563,2.563,0,0,0-.2,1.467q-.008,19.206,0,38.412,0,6.089,0,12.178a2.191,2.191,0,0,0,.114,1.006l.137,0h0c0-.331-.009-.663-.009-.994q0-26.021,0-52.042" transform="translate(-73.85 -23.193)" fill="#cac3cb"/><path d="M93.213,293.032l-.137,0a.9.9,0,0,0,.142.211c0-.07,0-.139,0-.209h0" transform="translate(-74.358 -234.1)" fill="#cac3cb"/><path d="M43.714,82.059q.01-15.824,0-31.648,0-9.359,0-18.718a1.959,1.959,0,0,0-.175-1.2c-.022.03-.044.06-.067.087q0,26.356,0,52.711l.137,0a2.735,2.735,0,0,0,.11-1.228" transform="translate(-34.726 -24.358)" fill="#cac3cb"/><path d="M43.554,30.127a.928.928,0,0,0-.067-.092v.179c.024-.028.045-.058.067-.087" transform="translate(-34.742 -23.995)" fill="#cac3cb"/><path d="M43.467,293.024v.215a1.043,1.043,0,0,0,.137-.217l-.137,0" transform="translate(-34.726 -234.094)" fill="#cac3cb"/><path d="M159.754,55.314c-1.206.01-2.412-.009-3.619.008a3.611,3.611,0,0,0-3.642,3.566,4.875,4.875,0,0,1-.318,2.145,1.473,1.473,0,0,1-.127.278,5.439,5.439,0,0,1-1.38,1.671,10.694,10.694,0,0,0-3.659,8.649c.018,1.6.009,3.21,0,4.814-.005,1.046-.1,1.151-1.1,1.344a5.269,5.269,0,0,0-4.638,5.579,4.342,4.342,0,0,1-.173,2.13h3.131c0-.851,0-1.7.008-2.553a2.148,2.148,0,0,1,2.263-2.258c1.1,0,2.207,0,3.311,0,0-2.9.022-5.8,0-8.7a9.435,9.435,0,0,1,2.55-6.818,14.656,14.656,0,0,1,2.9-2.1c0-1.2-.014-2.392-.007-3.588.005-.945.425-1.36,1.374-1.365,1.5-.006,3,0,4.494,0l.7-.013a1.506,1.506,0,0,1-.2-.469,12.569,12.569,0,0,0-1.054-2.4l-.022-.037a1.476,1.476,0,0,1-.8.111" transform="translate(-112.724 -44.101)" fill="#d6cfd5"/><path d="M237.842,54.842a12.577,12.577,0,0,1,1.054,2.4,1.507,1.507,0,0,0,.2.469h.071a7.532,7.532,0,0,0-1.217-3,.663.663,0,0,1-.127.1l.022.037" transform="translate(-189.993 -43.704)" fill="#d6cfd5"/><path d="M141.149,107.631a5.269,5.269,0,0,1,4.638-5.579c1-.193,1.094-.3,1.1-1.344.008-1.6.017-3.21,0-4.814a10.694,10.694,0,0,1,3.659-8.649,5.438,5.438,0,0,0,1.38-1.671,2.626,2.626,0,0,1-.664.7,11.4,11.4,0,0,0-4.574,8.88c-.058,1.651-.01,3.306-.01,4.959,0,1.554,0,1.554-1.515,1.827a5.442,5.442,0,0,0-4.086,4.3,33.729,33.729,0,0,0-.132,3.515h.031a4.342,4.342,0,0,0,.173-2.13" transform="translate(-112.6 -68.365)" fill="#d6cfd5"/><path d="M200.159,54.7a3.825,3.825,0,0,0-3.186,1.678,4.721,4.721,0,0,0-.724,3.511,1.777,1.777,0,0,1-.074.743,4.874,4.874,0,0,0,.318-2.145,3.611,3.611,0,0,1,3.642-3.566c1.206-.017,2.412,0,3.618-.008a1.477,1.477,0,0,0,.8-.111c-.02-.034-.04-.066-.06-.1-1.444,0-2.887.016-4.331,0" transform="translate(-156.723 -43.697)" fill="#d6cfd5"/><path d="M237.522,54.706c.02.033.04.066.06.1a.664.664,0,0,0,.128-.1h-.187" transform="translate(-189.755 -43.704)" fill="#d6cfd5"/><path d="M71.928,3.931a3.26,3.26,0,0,0,2.508.965Q86.717,4.9,99,4.9c0-.03,0-.06,0-.09-.047-.677,0-1.353-.025-2.029-.035-1.137-.428-1.537-1.555-1.555-.979-.016-1.959,0-2.938,0H72.336A10.325,10.325,0,0,1,71.283,1.2h-.117a3.435,3.435,0,0,0,.762,2.727" transform="translate(-56.848 -0.962)" fill="#cac3cb"/><path d="M71.313.3a10.267,10.267,0,0,0,1.053.019q11.073,0,22.146,0c.979,0,1.959-.011,2.938,0C98.577.344,98.97.744,99,1.881c.021.676-.022,1.353.025,2.029,0,.03,0,.061,0,.091h.2c.006-.827.025-1.653.014-2.48A1.339,1.339,0,0,0,97.795.076Q84.5.073,71.2.08,71.2.191,71.2.3h.117" transform="translate(-56.878 -0.06)" fill="#cac3cb"/><path d="M45.793,2.924c.014.946,0,1.893.008,2.853,1.065-.423,1.731-.068,2.079,1.07v0h5.033C53.127,5.8,53.89,5.319,54.8,5.7c.463.2.842.5.617,1.069a1.651,1.651,0,0,1,.924-.162q10.779-.009,21.558,0a1.592,1.592,0,0,1,.88.153,1.031,1.031,0,0,1-.041-.106,9.538,9.538,0,0,1-.054-1.62,1.858,1.858,0,0,1-.8.095q-11.848.006-23.7,0c-2.225-.005-3.66-1.4-3.566-3.374a1.608,1.608,0,0,1,.1-.549c-1.193,0-2.387,0-3.581,0a1.266,1.266,0,0,0-1.388.9c-.009.045-.014.091-.023.136a1.777,1.777,0,0,1,.07.679" transform="translate(-36.528 -0.963)" fill="#b4acb5"/><path d="M209.562,19.729a9.517,9.517,0,0,0,.054,1.62,1.035,1.035,0,0,0,.041.106.84.84,0,0,1,.119.09h0q-.007-.974-.013-1.948a.788.788,0,0,1-.2.133" transform="translate(-167.411 -15.655)" fill="#b4acb5"/><path d="M45.086,1.145a1.266,1.266,0,0,1,1.388-.9c1.194,0,2.388,0,3.581,0a.774.774,0,0,1,.139-.223C48.87.011,47.546-.007,46.223,0A1.2,1.2,0,0,0,44.9,1.051a.635.635,0,0,1,.166.231c.008-.045.013-.091.023-.136" transform="translate(-35.868 0.001)" fill="#b4acb5"/><path d="M116.241,28.062q-10.779-.008-21.558,0a1.651,1.651,0,0,0-.924.162c-.011.028-.022.056-.036.086l23.436-.006c-.015-.028-.026-.059-.039-.09a1.594,1.594,0,0,0-.88-.153" transform="translate(-74.875 -22.415)" fill="#b4acb5"/><path d="M210.069,28.836c.012.03.024.062.039.09h.081a.84.84,0,0,0-.119-.09" transform="translate(-167.823 -23.037)" fill="#b4acb5"/><path d="M83.356,23.053c-.906-.384-1.669.1-1.884,1.148h.2a1.133,1.133,0,0,1,2.257-.05l.042-.029c.225-.574-.154-.873-.616-1.069" transform="translate(-65.088 -18.312)" fill="#b4acb5"/><path d="M47.276,10.983h.193v0c-.347-1.138-1.014-1.493-2.079-1.07-.009-.96.007-1.907-.008-2.853a1.777,1.777,0,0,0-.07-.679,24.291,24.291,0,0,0-.085,3.346c-.005.121-.007.242-.012.363,1.243-.375,1.7-.161,2.059.9" transform="translate(-36.118 -5.095)" fill="#b4acb5"/><path d="M44.9,9.191l.07-.021c0-.121.006-.242.012-.363a24.289,24.289,0,0,1,.085-3.346.633.633,0,0,0-.166-.23c0,1.313,0,2.626,0,3.96" transform="translate(-35.868 -4.179)" fill="#b4acb5"/><path d="M93.7,28.916c0,.02.005.037.005.057h0c.014-.03.025-.058.036-.086l-.042.029" transform="translate(-74.853 -23.078)" fill="#b4acb5"/><path d="M73.617,5.127q11.848.027,23.7,0a1.857,1.857,0,0,0,.8-.095c0-.044,0-.089,0-.133Q85.829,4.9,73.547,4.9a3.261,3.261,0,0,1-2.508-.965A3.436,3.436,0,0,1,70.277,1.2h-.132a1.6,1.6,0,0,0-.1.549c-.094,1.977,1.341,3.368,3.566,3.374" transform="translate(-55.96 -0.962)" fill="#b4acb5"/><path d="M209.594,19.729a.787.787,0,0,0,.2-.133h-.2c0,.044,0,.089,0,.133" transform="translate(-167.443 -15.655)" fill="#b4acb5"/><path d="M70.674.319q0-.111.008-.223a.769.769,0,0,0-.139.223h.132" transform="translate(-56.356 -0.077)" fill="#b4acb5"/><path d="M240.658,71a1.94,1.94,0,0,0,2.1,2.1q8.523,0,17.047,0c0-.014-.007-.029-.012-.043a8.089,8.089,0,0,1-.074-1.572c-.022-1.186-.274-1.446-1.485-1.453-2.032-.012-4.064,0-6.1,0q-4.7,0-9.407,0a4.178,4.178,0,0,1-1.121-.074.493.493,0,0,1-.222-.136,1.013,1.013,0,0,1-.736.189q0,.5,0,.993" transform="translate(-192.256 -55.777)" fill="#cac3cb"/><path d="M244.534,69.811a4.178,4.178,0,0,0,1.121.074q4.7,0,9.407,0c2.032,0,4.064-.008,6.1,0,1.212.007,1.464.268,1.485,1.453a8.077,8.077,0,0,0,.075,1.572c.005.014.007.028.012.043h.188c-.011-.6-.028-1.2-.032-1.8-.008-1.2-.31-1.506-1.509-1.507l-17.027-.011c-.012.014-.026.024-.039.036a.493.493,0,0,0,.222.136" transform="translate(-195.179 -55.634)" fill="#cac3cb"/><path d="M240.649,69.869a1.013,1.013,0,0,0,.736-.189c-.011-.011-.023-.022-.032-.035l-.7.013c0,.07,0,.14,0,.21" transform="translate(-192.252 -55.64)" fill="#cac3cb"/><path d="M244.152,69.64c.01.012.021.023.032.035.013-.012.026-.022.039-.036h-.071" transform="translate(-195.052 -55.634)" fill="#cac3cb"/><path d="M363.635,293.531h.007l-.007-.006v.005" transform="translate(-290.506 -234.496)" fill="#eeecee"/><path d="M363.637,293.357c.747.13,1.508-.053,2.254.1h0a8.006,8.006,0,0,0-2.258-.136l0,0c0,.008,0,.016,0,.025l.007.006" transform="translate(-290.501 -234.321)" fill="#eeecee"/><path d="M363.636,293.552c0,.035,0,.069,0,.1h.183a.624.624,0,0,1-.18-.1h-.007" transform="translate(-290.507 -234.517)" fill="#eeecee"/><path d="M363.671,293.557a.625.625,0,0,0,.18.1h2.074c-.746-.155-1.508.029-2.254-.1" transform="translate(-290.535 -234.521)" fill="#eeecee"/><path d="M191.78,133.679a6.677,6.677,0,0,1-.046-.976q0-14.366,0-28.733A16.918,16.918,0,0,1,192,100.83,8.935,8.935,0,0,1,196.47,94.7c.187-.113.37-.232.555-.349l-7.061-.025a2.2,2.2,0,0,1-.905.78,8.839,8.839,0,0,0-4.41,8.013c-.013,2.6,0,5.2-.006,7.8a1.556,1.556,0,0,1-.2,1.08l-.013.006q0,7.113,0,14.226,0,3.664,0,7.327a2.44,2.44,0,0,0,.046.719h.134c2.486-.031,4.973-.015,7.459,0a.876.876,0,0,1-.29-.6" transform="translate(-147.338 -75.356)" fill="#e4e0e4"/><path d="M363.424,293.443h0l-.029.015.014,0a.068.068,0,0,1,.016-.016" transform="translate(-290.313 -234.429)" fill="#e4e0e4"/><path d="M363.539,293.412a.034.034,0,0,1,.017-.008h0l-.014.008h0" transform="translate(-290.428 -234.399)" fill="#e4e0e4"/><path d="M220.617,293.042a.115.115,0,0,1,.015-.022l-.014,0-.076.039c-9.221.02-18.442,0-27.663.019a.953.953,0,0,1-.609-.165c-2.486-.017-4.973-.032-7.459,0h-.134a.84.84,0,0,0,.106.223h0q3.725.005,7.449.01,14.219,0,28.439-.013h0q-.077-.041-.054-.087" transform="translate(-147.537 -233.99)" fill="#e4e0e4"/><path d="M363.092,293.4h-.1c.025.007.051.013.076.022h.005l.029-.015-.009-.007" transform="translate(-289.991 -234.4)" fill="#e4e0e4"/><path d="M220.99,133.158q0-14.737.007-29.474a13.763,13.763,0,0,1,.178-2.458,8.859,8.859,0,0,1,4.474-6.253,1.477,1.477,0,0,0,.621-.524h-.226c-.185.116-.368.235-.555.349a8.934,8.934,0,0,0-4.467,6.131,16.916,16.916,0,0,0-.266,3.141q-.01,14.366,0,28.733a6.65,6.65,0,0,0,.046.976.876.876,0,0,0,.29.6h.2c-.295-.122-.3-.431-.3-1.218" transform="translate(-176.357 -75.454)" fill="#e4e0e4"/><path d="M363.5,293.412l.014-.007h-.023l.009.007" transform="translate(-290.394 -234.4)" fill="#e4e0e4"/><path d="M250.7,293.07l-27.072,0a3.061,3.061,0,0,1-.994-.081h-.2a.953.953,0,0,0,.609.165c9.221-.021,18.442,0,27.663-.019l.076-.039h-.005c-.025-.009-.05-.015-.076-.022" transform="translate(-177.7 -234.065)" fill="#e4e0e4"/><path d="M189.863,94.324a14.651,14.651,0,0,0-2.9,2.1,9.436,9.436,0,0,0-2.55,6.818c.024,2.9,0,5.8,0,8.7V112l.013-.006a1.555,1.555,0,0,0,.2-1.08c.007-2.6-.007-5.2.006-7.8a8.84,8.84,0,0,1,4.41-8.013,2.2,2.2,0,0,0,.906-.78Z" transform="translate(-147.328 -75.355)" fill="#e4e0e4"/><path d="M363.481,293.446a.067.067,0,0,0-.016.016l.034.005v-.005l-.018-.016" transform="translate(-290.37 -234.432)" fill="#e4e0e4"/><path d="M363.561,293.428c0-.008,0-.016,0-.025a.034.034,0,0,0-.017.008l.018.016" transform="translate(-290.432 -234.399)" fill="#e4e0e4"/><path d="M363.384,293.528a.124.124,0,0,0-.015.022q-.023.046.054.087c0-.034,0-.069,0-.1l-.034-.005" transform="translate(-290.289 -234.498)" fill="#e4e0e4"/><path d="M118.108,210.55h3.162q0-2.306,0-4.613c-.01.01-.017.021-.029.031a5.4,5.4,0,0,1-3.108-.079c-.012.021-.022.043-.035.064a1.921,1.921,0,0,1-.878.167,5.089,5.089,0,0,0-4.765,5.238c-.01,3.707,0,7.414-.006,11.121a2.138,2.138,0,0,1-.091.933q2.274-.04,4.547,0h.008q-.005-5.848-.01-11.7c0-1.116.058-1.17,1.2-1.17" transform="translate(-89.762 -164.485)" fill="#cac3cb"/><path d="M116.347,292.948q-2.274-.043-4.547,0a.817.817,0,0,1-.14.212h4.7q0-.106,0-.212h-.008" transform="translate(-89.205 -234.017)" fill="#cac3cb"/><path d="M111.862,222.443c.006-3.707,0-7.414.006-11.122a5.089,5.089,0,0,1,4.765-5.238,1.92,1.92,0,0,0,.877-.167c.013-.021.023-.042.035-.064l-.026-.01c-.125,0-.251.005-.376,0a5.392,5.392,0,0,0-5.52,5.521c.066,4,.012,8.008.007,12.012h.015l.125,0a2.145,2.145,0,0,0,.091-.933" transform="translate(-89.175 -164.446)" fill="#cac3cb"/><path d="M111.675,293.028h-.015c0,.07,0,.14,0,.21a.82.82,0,0,0,.14-.212l-.125,0" transform="translate(-89.205 -234.097)" fill="#cac3cb"/><path d="M144.21,205.839h-3.131l-.005.01a5.4,5.4,0,0,0,3.108.078c.011-.01.019-.021.029-.031Z" transform="translate(-112.702 -164.444)" fill="#cac3cb"/><path d="M140.944,205.843l.026.01.005-.01h-.031" transform="translate(-112.599 -164.447)" fill="#cac3cb"/><path d="M149.5,234.054c-1.029,0-2.058.012-3.086,0a2.151,2.151,0,0,1-2.267-2.258c-.011-.835-.006-1.67-.008-2.5a2.6,2.6,0,0,1-1.439.185c-.565.016-1.132.025-1.7-.011l-.02,0a15.464,15.464,0,0,0,.266,3.87,5.192,5.192,0,0,0,4.415,3.729c.908.072,1.043.209,1.044,1.079,0,1.1,0,2.2,0,3.3a2.224,2.224,0,0,1-.049.65q1.484-.012,2.968,0a1.355,1.355,0,0,1-.138-.766c0-2.426-.03-4.853.01-7.279" transform="translate(-112.626 -183.18)" fill="#d6cfd5"/><path d="M171.763,292.958q-1.484-.01-2.968,0a.806.806,0,0,1-.1.221h3.321a.68.68,0,0,1-.249-.223" transform="translate(-134.766 -234.039)" fill="#d6cfd5"/><path d="M183.467,260.3q0-3.664,0-7.327h-.221c-.04,2.426-.013,4.853-.01,7.279a1.354,1.354,0,0,0,.138.766h.143a2.439,2.439,0,0,1-.046-.719" transform="translate(-146.374 -202.095)" fill="#d6cfd5"/><path d="M183.966,292.975a.68.68,0,0,0,.249.223.829.829,0,0,1-.106-.223h-.143" transform="translate(-146.969 -234.056)" fill="#d6cfd5"/><path d="M144.109,229.06h-3.162q0,.112.006.225l.02,0c.565.035,1.132.027,1.7.011a2.6,2.6,0,0,0,1.439-.185c0-.015,0-.03,0-.046" transform="translate(-112.602 -182.994)" fill="#d6cfd5"/><path d="M142.248,239.04a.874.874,0,0,0-.862-.991,5.441,5.441,0,0,1-4.835-5.231,6.186,6.186,0,0,1,.075-2.568c-.79.12-.864.226-.867,1.123-.012,3.5,0,6.994-.009,10.492a2.414,2.414,0,0,1-.094,1.01c2.208-.032,4.415-.022,6.622-.007h0c-.116-1.274-.021-2.552-.033-3.828" transform="translate(-108.376 -183.945)" fill="#e4e0e4"/><path d="M141.765,292.935h0c-2.207-.015-4.415-.025-6.622.007a.914.914,0,0,1-.13.213h6.773c-.008-.074-.013-.147-.02-.221" transform="translate(-107.859 -234.013)" fill="#e4e0e4"/><path d="M135.192,240.912c.008-3.5,0-6.994.009-10.492,0-.9.077-1,.867-1.123.028-.08.058-.16.095-.24-1.147,0-1.205.055-1.2,1.17q0,5.847.01,11.7h.13a2.413,2.413,0,0,0,.094-1.01" transform="translate(-107.817 -182.993)" fill="#e4e0e4"/><path d="M135.14,293.025h-.13c0,.071,0,.141,0,.212a.912.912,0,0,0,.13-.213" transform="translate(-107.859 -234.096)" fill="#e4e0e4"/><path d="M145.613,242.157c0-1.1,0-2.2,0-3.3,0-.87-.136-1.007-1.044-1.079a5.192,5.192,0,0,1-4.415-3.729,15.465,15.465,0,0,1-.266-3.87l-.1.015a6.187,6.187,0,0,0-.075,2.568,5.44,5.44,0,0,0,4.835,5.231.874.874,0,0,1,.862.991c.011,1.276-.083,2.553.033,3.828h.124a2.215,2.215,0,0,0,.049-.65" transform="translate(-111.536 -183.885)" fill="#e4e0e4"/><path d="M168.593,292.988c.007.074.011.147.02.221h0a.814.814,0,0,0,.1-.221h-.124" transform="translate(-134.688 -234.066)" fill="#e4e0e4"/><path d="M140.573,229.059c-.036.079-.067.159-.095.24l.1-.015q0-.112-.006-.224" transform="translate(-112.227 -182.994)" fill="#e4e0e4"/><path d="M61.251,269.539c-.009-1.3.005-2.6-.007-3.9-.008-.937-.087-1.009-1.047-1.015-.978-.007-1.956-.01-2.934,0-.866.009-.957.094-.968.941-.017,1.326,0,2.652-.008,3.978a1.978,1.978,0,0,1-.088.788c1.713-.026,3.427-.029,5.14,0a1.975,1.975,0,0,1-.088-.79" transform="translate(-44.897 -211.398)" fill="#e4e0e4"/><path d="M60.808,292.947c-1.713-.03-3.427-.026-5.14,0a.8.8,0,0,1-.134.212H60.94a.8.8,0,0,1-.132-.21" transform="translate(-44.366 -234.017)" fill="#e4e0e4"/><path d="M60.153,263.439q-1.992.04-3.985,0c-.569-.011-.737.223-.729.761.024,1.73.016,3.46.019,5.191h0l.132,0a1.979,1.979,0,0,0,.088-.788c.009-1.326-.008-2.652.008-3.978.011-.847.1-.932.968-.941.978-.011,1.956-.008,2.934,0,.96.007,1.039.079,1.047,1.016.012,1.3,0,2.6.007,3.9a1.975,1.975,0,0,0,.088.79h.133c0-1.731-.005-3.462.019-5.192.007-.539-.162-.771-.731-.76" transform="translate(-44.29 -210.46)" fill="#e4e0e4"/><path d="M55.535,293.031h0q0,.105,0,.211a.8.8,0,0,0,.133-.212l-.132,0" transform="translate(-44.366 -234.099)" fill="#e4e0e4"/><path d="M81.868,293.033h-.109a.8.8,0,0,0,.132.21h0c0-.07,0-.14,0-.209h-.023" transform="translate(-65.317 -234.102)" fill="#e4e0e4"/><path d="M236.239,74.091c-5.394.005-10.788.023-16.182-.008a2.367,2.367,0,0,1-2.269-3.322c-1.326.027-2.653,0-3.98.014-1.3.012-1.553.289-1.585,1.606a18.991,18.991,0,0,1-.084,3.024,1.236,1.236,0,0,1,.645-.131c1.95-.012,3.9-.016,5.849,0a1.042,1.042,0,0,1,.668.163l.072-.045a3.684,3.684,0,0,1,1.342-.122q7.425,0,14.849,0c1.243,0,1.243,0,1.467-1.2a.454.454,0,0,1,.04-.066c-.005-.023-.013-.045-.019-.067a1.415,1.415,0,0,1-.812.149" transform="translate(-169.476 -56.531)" fill="#b4acb5"/><path d="M336.036,86.3a.453.453,0,0,1,.093-.108c0-.016,0-.03,0-.046h0a.748.748,0,0,1-.109.087c.006.023.014.045.019.067" transform="translate(-268.442 -68.819)" fill="#b4acb5"/><path d="M264.01,88.171q-7.425,0-14.849,0a3.684,3.684,0,0,0-1.342.121l-.072.045a.651.651,0,0,1,.09.085l16.236-.015c.977,0,1.361,0,1.5-.371a1.77,1.77,0,0,1-.007-.363,2.452,2.452,0,0,0-.044-.769.448.448,0,0,0-.04.066c-.224,1.2-.224,1.2-1.467,1.2" transform="translate(-197.923 -69.43)" fill="#b4acb5"/><path d="M336.112,86.48a2.447,2.447,0,0,1,.043.769,1.785,1.785,0,0,0,.007.363,3.811,3.811,0,0,0,.042-1.239.453.453,0,0,0-.093.108" transform="translate(-268.518 -69.002)" fill="#b4acb5"/><path d="M211.594,74.547a18.991,18.991,0,0,0,.084-3.024c.031-1.317.287-1.594,1.585-1.606,1.327-.012,2.654.014,3.98-.013.027-.071.052-.141.085-.212-1.5,0-3-.009-4.494,0-.949,0-1.369.42-1.374,1.364-.007,1.2,0,2.392.007,3.588h0a.727.727,0,0,1,.127-.094" transform="translate(-168.932 -55.672)" fill="#b4acb5"/><path d="M239.582,71.75q0-.5,0-.993h-.086a2.367,2.367,0,0,0,2.27,3.322c5.394.03,10.788.013,16.182.007a1.414,1.414,0,0,0,.812-.149c-.008-.029-.015-.058-.024-.087q-8.523,0-17.047,0a1.94,1.94,0,0,1-2.1-2.1" transform="translate(-191.18 -56.527)" fill="#b4acb5"/><path d="M335.921,86.229a.759.759,0,0,0,.109-.087H335.9c.009.029.016.058.024.087" transform="translate(-268.346 -68.818)" fill="#b4acb5"/><path d="M240.227,69.922h.086q0-.1,0-.21h0c-.033.071-.058.141-.085.212" transform="translate(-191.916 -55.691)" fill="#b4acb5"/><path d="M218.487,93.164c-1.95-.019-3.9-.015-5.849,0a1.237,1.237,0,0,0-.644.131c0,.013,0,.027-.006.04s-.02.036-.03.055l7.061.025.136-.085a1.041,1.041,0,0,0-.668-.163" transform="translate(-169.331 -74.418)" fill="#b4acb5"/><path d="M247.068,94.111h.226a.651.651,0,0,0-.09-.086l-.136.085" transform="translate(-197.381 -75.117)" fill="#b4acb5"/><path d="M211.632,93.854a.728.728,0,0,0-.127.094h.091c.01-.019.021-.036.03-.055s0-.027.006-.04" transform="translate(-168.97 -74.979)" fill="#b4acb5"/><path d="M60.328,163.181c-.726.024-1.453.006-2.18.006-.7,0-1.4.013-2.1-.005-.392-.01-.606.081-.6.535.022,1.15.016,2.3,0,3.45,0,.378.123.54.52.536,1.453-.014,2.906-.016,4.359,0,.43.005.567-.16.56-.574q-.028-1.687,0-3.375c.007-.413-.128-.588-.559-.574" transform="translate(-44.295 -130.364)" fill="#e4e0e4"/><path d="M55.438,66.729c-.007.416.133.586.562.572.726-.023,1.454-.006,2.181-.006.7,0,1.4-.014,2.106.005.4.011.6-.094.592-.542q-.033-1.651,0-3.3c.009-.458-.212-.536-.6-.533-1.4.013-2.808.016-4.212,0-.429-.005-.644.094-.631.58.028,1.075.021,2.152,0,3.227" transform="translate(-44.287 -50.268)" fill="#e4e0e4"/><path d="M60.877,97.126c0-.377-.118-.541-.518-.537-1.454.014-2.908.016-4.362,0-.431-.005-.567.16-.559.574.019,1.076.026,2.152,0,3.227-.013.489.209.59.634.576.676-.023,1.354-.006,2.031-.006.727,0,1.454-.013,2.181.005.392.01.607-.08.6-.535-.023-1.1-.016-2.2,0-3.3" transform="translate(-44.287 -77.163)" fill="#e4e0e4"/><path d="M60.324,130.25c-.727.012-1.454,0-2.181,0-.7,0-1.4.014-2.106-.006-.4-.011-.6.1-.591.543.022,1.1.017,2.2,0,3.3-.005.383.131.535.524.531,1.454-.014,2.908-.012,4.362,0,.364,0,.558-.092.551-.5q-.025-1.688,0-3.377c.006-.419-.208-.5-.562-.493" transform="translate(-44.296 -104.054)" fill="#e4e0e4"/><path d="M60.349,196.857q-2.181.018-4.362,0c-.377,0-.545.116-.539.516.017,1.1.019,2.2,0,3.3-.008.431.163.57.577.557.7-.022,1.4-.006,2.105-.007.752,0,1.5-.009,2.256,0,.344.006.5-.116.5-.477-.011-1.126-.014-2.252,0-3.377.006-.4-.159-.52-.538-.517" transform="translate(-44.296 -157.268)" fill="#e4e0e4"/><path d="M60.328,230.511c-.726.024-1.454.006-2.181.006-.7,0-1.4.014-2.106-.005-.395-.011-.6.085-.6.537.022,1.1.016,2.2,0,3.3,0,.379.122.539.52.535,1.454-.015,2.908-.017,4.362,0,.433.005.565-.163.557-.576q-.029-1.613,0-3.227c.007-.414-.129-.588-.559-.574" transform="translate(-44.296 -184.153)" fill="#e4e0e4"/><path d="M57.042,30.041a1.347,1.347,0,0,1-.569-.1c.059,1.066.029,2.133.02,3.2-.005.621.158,1.019.868.966h0a2.662,2.662,0,0,1,.8-1.07,10.247,10.247,0,0,1,3.327-2.524s0-.009,0-.013c0-.184-.012-.367,0-.551a1.373,1.373,0,0,1-.552.1q-1.946.021-3.892,0" transform="translate(-45.116 -23.916)" fill="#d6cfd5"/><path d="M81.38,29.969s0,.009,0,.013c.071-.032.14-.067.212-.1q0-.3,0-.607a.8.8,0,0,1-.216.14c-.012.183,0,.367,0,.551" transform="translate(-65.009 -23.39)" fill="#d6cfd5"/><path d="M56.569,33.578c-.71.053-.874-.344-.868-.966.009-1.066.039-2.134-.02-3.2a.791.791,0,0,1-.2-.132q0,1.717,0,3.433c0,1.081,0,1.081,1.059,1.078a1.063,1.063,0,0,1,.031-.214h0" transform="translate(-44.324 -23.392)" fill="#d6cfd5"/><path d="M57.021,29.514q1.946.021,3.892,0a1.373,1.373,0,0,0,.552-.1c0-.042.005-.084.011-.126l0-.014H56.446c0,.044,0,.088.005.132a1.347,1.347,0,0,0,.569.1" transform="translate(-45.094 -23.39)" fill="#d6cfd5"/><path d="M81.413,29.292c-.005.042-.008.084-.011.126a.8.8,0,0,0,.216-.14h-.2s0,.009,0,.014" transform="translate(-65.032 -23.39)" fill="#d6cfd5"/><path d="M55.677,29.28h-.193a.8.8,0,0,0,.2.132c0-.044,0-.088-.005-.132" transform="translate(-44.326 -23.392)" fill="#d6cfd5"/><path d="M61.624,36.724c1.048-.027,2.1-.025,3.144,0,.619.012.839-.234.825-.838-.021-.886-.027-1.773.006-2.659-.562.462-1.212.8-1.79,1.242a13.134,13.134,0,0,0-2.185,2.259" transform="translate(-49.231 -26.542)" fill="#e4e0e4"/><path d="M64.9,32.483c-.034.886-.028,1.773-.006,2.659.014.6-.206.851-.825.839-1.047-.021-2.1-.023-3.144,0l-.175.217c1.256,0,2.512-.013,3.768.011.46.009.619-.148.608-.607-.026-1.1-.01-2.206-.011-3.309h0c-.07.065-.142.126-.215.186" transform="translate(-48.534 -25.802)" fill="#e4e0e4"/><path d="M61.7,35.3a2.666,2.666,0,0,0-.8,1.07l.144,0a13.141,13.141,0,0,1,2.185-2.259c.579-.441,1.228-.78,1.79-1.242,0-.03,0-.06,0-.09A10.248,10.248,0,0,0,61.7,35.3" transform="translate(-48.657 -26.185)" fill="#e4e0e4"/><path d="M81.389,32.483c.073-.06.145-.122.215-.186-.072.03-.141.065-.212.1,0,.03,0,.06,0,.09" transform="translate(-65.021 -25.802)" fill="#e4e0e4"/><path d="M60.782,50.638a1.1,1.1,0,0,0-.031.214l.176-.217-.144,0" transform="translate(-48.534 -40.452)" fill="#e4e0e4"/><path d="M160.973,182.525c-.6.016-1.2,0-1.8.007a2,2,0,0,0-2.171,2.129c-.025.547,0,1.1-.013,1.642a1.226,1.226,0,0,1-.2.843c.046.044.1.085.1.148a13.757,13.757,0,0,1-.071,4.5c-.012.009-.025.014-.037.022.269.3.187.682.2,1.037.018.5-.016,1,.016,1.5a1.948,1.948,0,0,0,2,2.005c.8.049,1.605.007,2.407.018a1.955,1.955,0,0,1,.708.079c-.044-4.435-.013-8.869-.015-13.3a1.287,1.287,0,0,1,.162-.751,3.144,3.144,0,0,1-1.3.12" transform="translate(-125.262 -145.722)" fill="#b4acb5"/><path d="M156.895,185.909c.016-.547-.012-1.1.013-1.642a2,2,0,0,1,2.171-2.129c.6-.012,1.2.01,1.8-.007a3.141,3.141,0,0,0,1.3-.12.808.808,0,0,1,.075-.095c-1.1,0-2.207-.007-3.311,0a2.148,2.148,0,0,0-2.263,2.258c-.012.851-.006,1.7-.008,2.553.008.01.018.019.028.028a1.227,1.227,0,0,0,.2-.843" transform="translate(-125.163 -145.329)" fill="#b4acb5"/><path d="M183.216,183.015c0,4.435-.029,8.869.015,13.3a.774.774,0,0,1,.222.135q0-7.113,0-14.226c-.025.014-.05.024-.075.036a1.287,1.287,0,0,0-.162.751" transform="translate(-146.363 -145.581)" fill="#b4acb5"/><path d="M184.133,181.935h0a.809.809,0,0,0-.075.095c.025-.012.05-.022.075-.036Z" transform="translate(-147.043 -145.347)" fill="#b4acb5"/><path d="M156.732,210.63a13.758,13.758,0,0,0,.071-4.5c-.006-.064-.059-.1-.1-.148l-.028.03q0,2.306,0,4.613c.01.01.016.021.025.031.012-.008.025-.013.037-.022" transform="translate(-125.163 -164.555)" fill="#b4acb5"/><path d="M156.671,205.839v.058l.028-.03c-.01-.009-.02-.018-.028-.028" transform="translate(-125.164 -164.444)" fill="#b4acb5"/><path d="M162.032,233.859a1.954,1.954,0,0,0-.708-.079c-.8-.011-1.606.031-2.407-.018a1.949,1.949,0,0,1-2.005-2.005c-.032-.5,0-1-.016-1.5-.013-.354.07-.734-.2-1.037l-.025.015c0,.835,0,1.67.008,2.5A2.151,2.151,0,0,0,158.947,234c1.029.011,2.058,0,3.087,0v-.008c0-.042,0-.085,0-.128" transform="translate(-125.164 -183.121)" fill="#b4acb5"/><path d="M183.327,252.424v.008h.221a.766.766,0,0,0-.222-.135c0,.042,0,.085,0,.128" transform="translate(-146.458 -201.558)" fill="#b4acb5"/><path d="M156.672,229.066v.045l.025-.015c-.009-.01-.015-.021-.025-.031" transform="translate(-125.164 -182.999)" fill="#b4acb5"/></g></g></g></svg>