<svg xmlns="http://www.w3.org/2000/svg" width="610" height="361.514" viewBox="0 0 610 361.514"><g transform="translate(-495 -2531)"><text transform="translate(495 2700.93)" fill="#12263f" font-size="18" font-family="Roboto-Black, Roboto" font-weight="800"><tspan x="-60.42" y="19">Compensación</tspan></text><g transform="translate(335 -4737)"><g transform="translate(-645.537 6039)"><path d="M1992.709-10286.465h-2v-155.23a152.743,152.743,0,0,1,.659-15.522,41.326,41.326,0,0,1,1.686-8.729c1.184-3.447,2.846-5.054,5.23-5.054h6.252v2h-6.252c-.618,0-2.066,0-3.338,3.7-1.484,4.32-2.237,12.262-2.237,23.6Z" transform="translate(-884 11700)" fill="#f4b740"/><path d="M2004.537-10285.465h-6.252c-2.383,0-4.045-1.605-5.23-5.054a41.328,41.328,0,0,1-1.686-8.728,152.722,152.722,0,0,1-.659-15.521V-10470h2v155.232c0,11.339.753,19.278,2.237,23.6,1.272,3.7,2.72,3.7,3.338,3.7h6.252Z" transform="translate(-884 11738.386)" fill="#ffb500"/></g><path d="M5.5,0,11,5H0Z" transform="translate(456.393 7385) rotate(-90)" fill="#ffb500"/></g><g transform="translate(463.121 -4718.018)"><g transform="translate(-645.537 6135.019)"><path d="M1992.709-10401.3h-2v-58.107c0-4.608.836-7.759,2.555-9.633a6.443,6.443,0,0,1,5.021-1.963h6.252v2h-6.252a4.457,4.457,0,0,0-3.547,1.315c-1.346,1.467-2.028,4.253-2.028,8.28Z" transform="translate(-884 11700)" fill="#ffb500"/><path d="M2004.537-10400.3h-6.252a6.443,6.443,0,0,1-5.021-1.963c-1.719-1.873-2.555-5.023-2.555-9.632V-10470h2v58.108c0,4.027.682,6.813,2.028,8.279a4.457,4.457,0,0,0,3.547,1.315h6.252Z" transform="translate(-884 11738.386)" fill="#ffb500"/></g><path d="M5.5,0,11,5H0Z" transform="translate(456.393 7424.018) rotate(-90)" fill="#ffb500"/></g><g transform="translate(463.121 -4849.328)"><g transform="translate(-645.537 6151.329)"><path d="M1992.709-10408.5h-2v-52.013c0-4.174.848-7.03,2.593-8.732a6.829,6.829,0,0,1,4.982-1.752h6.252v2h-6.252a4.9,4.9,0,0,0-3.586,1.184c-1.32,1.287-1.99,3.744-1.99,7.3Z" transform="translate(-884 11700)" fill="#ffb500"/><path d="M2004.537-10400.3h-6.252a6.443,6.443,0,0,1-5.021-1.963c-1.719-1.873-2.555-5.023-2.555-9.632V-10460h2v48.108c0,4.027.682,6.813,2.028,8.279a4.457,4.457,0,0,0,3.547,1.315h6.252Z" transform="translate(-884 11705.765)" fill="#ffb500"/></g><path d="M5.5,0,11,5H0Z" transform="translate(456.393 7424.018) rotate(-90)" fill="#ffb500"/></g><text transform="translate(674.335 2629.045)" fill="#12263f" font-size="18" font-family="Roboto-Medium, Roboto" font-weight="500"><tspan x="0" y="19">Monetaria</tspan></text><text transform="translate(674.335 2843.779)" fill="#12263f" font-size="18" font-family="Roboto-Medium, Roboto" font-weight="500"><tspan x="0" y="19">No monetaria</tspan></text><g transform="translate(-52 -264.912)"><text transform="translate(1005 2796.912)" fill="#12263f" font-size="16" font-family="Roboto-Medium, Roboto" font-weight="500"><tspan x="0" y="17">Sueldo base</tspan></text><text transform="translate(1005 2823.912)" fill="#12263f" font-size="16" font-family="Roboto-Medium, Roboto" font-weight="500"><tspan x="0" y="17">Comisiones</tspan></text><text transform="translate(1005 2850.912)" fill="#12263f" font-size="16" font-family="Roboto-Medium, Roboto" font-weight="500"><tspan x="0" y="17">Incentivos</tspan></text></g><g transform="translate(-161.178 -243.955)"><g transform="translate(515.121 -4320.328)"><g transform="translate(-645.537 6151.329)"><path d="M1992.709-10401.3h-2v-58.107c0-4.608.836-7.759,2.555-9.633a6.443,6.443,0,0,1,5.021-1.963h6.252v2h-6.252a4.457,4.457,0,0,0-3.547,1.315c-1.346,1.467-2.028,4.253-2.028,8.28Z" transform="translate(-884 11700)" fill="#ffb500"/><path d="M2004.537-10400.3h-6.252a6.443,6.443,0,0,1-5.021-1.963c-1.719-1.873-2.555-5.023-2.555-9.632V-10470h2v58.108c0,4.027.682,6.813,2.028,8.279a4.457,4.457,0,0,0,3.547,1.315h6.252Z" transform="translate(-884 11705.765)" fill="#ffb500"/></g><path d="M5.5,0,11,5H0Z" transform="translate(456.393 7424.018) rotate(-90)" fill="#ffb500"/></g><text transform="translate(1005 3061.001)" fill="#12263f" font-size="16" font-family="Roboto-Medium, Roboto" font-weight="500"><tspan x="0" y="17">Servicios de disfrute</tspan></text><text transform="translate(1005 3088.001)" fill="#12263f" font-size="16" font-family="Roboto-Medium, Roboto" font-weight="500"><tspan x="0" y="17">Pensiones voluntarias</tspan></text><text transform="translate(1005 3115.001)" fill="#12263f" font-size="16" font-family="Roboto-Medium, Roboto" font-weight="500"><tspan x="0" y="17">Seguros de vida</tspan></text></g><text transform="translate(953 2651)" fill="#12263f" font-size="16" font-family="Roboto-Medium, Roboto" font-weight="500"><tspan x="0" y="17">Primarias</tspan></text><text transform="translate(953 2678)" fill="#12263f" font-size="16" font-family="Roboto-Medium, Roboto" font-weight="500"><tspan x="0" y="17">Cesantías</tspan></text><text transform="translate(953 2705)" fill="#12263f" font-size="16" font-family="Roboto-Medium, Roboto" font-weight="500"><tspan x="0" y="17">Bonos de antigüedad</tspan></text><text transform="translate(953 2732)" fill="#12263f" font-size="16" font-family="Roboto-Medium, Roboto" font-weight="500"><tspan x="0" y="17">Bonos de mercados</tspan></text><text transform="translate(835.634 2559.734)" fill="#12263f" font-size="16" font-family="Roboto-Medium, Roboto" font-weight="500"><tspan x="0" y="17">Directa</tspan></text><text transform="translate(835.634 2691.5)" fill="#12263f" font-size="16" font-family="Roboto-Medium, Roboto" font-weight="500"><tspan x="0" y="17">Indirecta</tspan></text><g transform="translate(215.667 -234)"><path d="M1992.709-10288.5h-2v-172.013c0-4.174.848-7.03,2.593-8.732a6.829,6.829,0,0,1,4.982-1.752h6.252v2h-6.252a4.9,4.9,0,0,0-3.586,1.184c-1.32,1.287-1.99,3.744-1.99,7.3Z" transform="translate(-1566.416 13236)" fill="#ffb500"/><path d="M2004.537-10400.3h-6.252a6.443,6.443,0,0,1-5.021-1.963c-1.719-1.873-2.555-5.023-2.555-9.632V-10580h2v168.108c0,4.027.682,6.813,2.028,8.279a4.457,4.457,0,0,0,3.547,1.315h6.252Z" transform="translate(-1566.416 13526.811)" fill="#ffb500"/><path d="M5.5,0,11,5H0Z" transform="translate(419.513 2953.689) rotate(-90)" fill="#ffb500"/></g></g></svg>