<svg xmlns="http://www.w3.org/2000/svg" xmlns:xlink="http://www.w3.org/1999/xlink" width="49.936" height="51.906" viewBox="0 0 49.936 51.906"><defs><clipPath id="a"><rect width="49.936" height="51.906" fill="none"/></clipPath></defs><g clip-path="url(#a)"><path d="M218.513,252.019l.014.016c0-.005.006-.01.008-.015h-.022" transform="translate(-188.152 -217.003)" fill="#fefefe"/><path d="M317.841,105.02,317.83,105l-.008.015h.019" transform="translate(-273.663 -90.415)" fill="#fefefe"/><path d="M352.7,222.048s0,.006,0,.009a.166.166,0,0,1,.061,0,.3.3,0,0,1-.061-.013h0" transform="translate(-303.694 -191.196)" fill="#fefefe"/><path d="M23.022,256.179a1.058,1.058,0,0,0,.48-.292l-.122-.3a1.348,1.348,0,0,1,.432-1.719,1.436,1.436,0,0,1,1.748.055h0a1.353,1.353,0,0,1,.461.617h0a30.889,30.889,0,0,0,3.91-2.652c.185-.138.418-.229.528-.455l-.014-.016c-.2-.006-.4-.015-.6-.015q-13.772,0-27.543,0c-.219,0-.452.067-.656-.077h0l-1.539,0h0c0,1.662-.015,3.324,0,4.986a2.7,2.7,0,0,0,2.533,2.608c2.937.023,5.874,0,8.811,0h0a6.593,6.593,0,0,1,1.572-.178,31.811,31.811,0,0,0,10-2.546" transform="translate(-0.084 -216.396)" fill="#a2dbf1"/><path d="M1.575,77.46c.16-.156.361-.092.544-.092q16.1,0,32.2,0c.172,0,.344.023.515.036l.014-.036h0L37.239,72.9c-.086,0-.173-.013-.259-.013q-17.147,0-34.294,0A2.71,2.71,0,0,0,.113,74.921a13.31,13.31,0,0,0-.1,2.537Zm24.3-2.241a.442.442,0,0,1,.45-.469c.345-.013.69-.005,1.036-.006a.465.465,0,0,1,.532.5c.013.348-.189.5-.5.536a4.832,4.832,0,0,1-.517,0c0,.005,0,.01,0,.015a4.134,4.134,0,0,1-.618-.042.456.456,0,0,1-.38-.534m-5.173-.478c.588.006,1.177,0,1.765,0s1.177.005,1.765,0c.351,0,.63.074.64.494.01.447-.286.548-.653.548q-1.765,0-3.53,0c-.356,0-.617-.135-.617-.537,0-.418.276-.508.63-.5" transform="translate(0 -62.757)" fill="#a2dbf1"/><path d="M257.227,122.042c-.008,1.175-.031,2.35-.018,3.524,0,.388-.076.552-.511.541-.953-.024-.954,0-.954-.973q0-9.616-.005-19.233a.286.286,0,0,0-.079-.006h0q-.013,1.238-.027,2.476c.007.156.021.311.021.467,0,5.57-.006,11.141.013,16.711,0,.491-.145.593-.605.591-4.087-.017-8.175-.011-12.262-.008a1.384,1.384,0,0,0-.664.066,12.283,12.283,0,0,0-.311,2.192,9.987,9.987,0,0,0,1.347,5.3c3.719.006,7.44-.037,11.158.039a2.909,2.909,0,0,0,2.982-2.994c-.034-2.894-.017-5.789-.022-8.684a.166.166,0,0,0-.061,0m-7.784,9.889c-.378,0-.756.005-1.134,0a.5.5,0,0,1-.518-.528.5.5,0,0,1,.538-.51h.567c.189,0,.378,0,.567,0a.519.519,0,1,1-.02,1.039m5.115-.617a2.365,2.365,0,0,1-1.942.617c-.395,0-.672,0-.949,0-.342-.006-.5-.189-.5-.527a.454.454,0,0,1,.511-.512c.433,0,.866.007,1.3,0a1.127,1.127,0,0,0,1.2-1.2c.009-.347.018-.695,0-1.04a.479.479,0,0,1,.426-.553.465.465,0,0,1,.58.394c.053.99.216,2.01-.63,2.823" transform="translate(-208.222 -91.181)" fill="#2ca3e7"/><path d="M104.942,259.007a9.781,9.781,0,0,1-.858-6.477,1.321,1.321,0,0,1,.176-.507H100.8l-.009.015c.114.151-.113.293-.245.4-.726.582-1.479,1.129-2.25,1.651-.47.319-.935.648-1.429.931-.156.089-.3.222-.5.184a1.416,1.416,0,0,1-.663,1.683,1.505,1.505,0,0,1-1.826-.355.39.39,0,0,1-.015.055,1.159,1.159,0,0,1-.593.4,30.323,30.323,0,0,1-9.421,2.424c-.686.067-1.379.048-2.067.1h0q4.058.007,8.115.012a3.2,3.2,0,0,1,.918.1c.123-.138.287-.093.437-.093q3.772,0,7.543,0c.15,0,.315-.045.434.1a3.482,3.482,0,0,1,.969-.1c1.723,0,3.446-.009,5.169-.014a.877.877,0,0,1-.425-.5" transform="translate(-70.418 -217.007)" fill="#60c2e7"/><path d="M190.581,252.589a30.9,30.9,0,0,1-3.91,2.652h0c0,.02.007.038.011.058.2.038.347-.095.5-.184.494-.283.958-.612,1.429-.931.77-.522,1.524-1.069,2.25-1.651.133-.106.36-.248.245-.4-.11.227-.343.318-.528.455" transform="translate(-160.734 -217.102)" fill="#60c2e7"/><path d="M93.27,284.711a1.16,1.16,0,0,0,.593-.4.369.369,0,0,0,.015-.055l-.04-.035a1.055,1.055,0,0,1-.48.292,31.808,31.808,0,0,1-10,2.546,6.578,6.578,0,0,0-1.572.178c.688-.055,1.381-.037,2.066-.1a30.329,30.329,0,0,0,9.421-2.424" transform="translate(-70.419 -244.731)" fill="#60c2e7"/><path d="M240.929,254.217a12.286,12.286,0,0,1,.311-2.192h-.071a1.317,1.317,0,0,0-.175.506,9.781,9.781,0,0,0,.858,6.477.879.879,0,0,0,.425.5,9.987,9.987,0,0,1-1.347-5.3" transform="translate(-207.328 -217.008)" fill="#60c2e7"/><path d="M1.578,125.9q.011-2.782.023-5.564c0-.258.013-.516.02-.774-.007-1.8-.017-3.6-.02-5.4q-.008-4.116-.009-8.231a2.584,2.584,0,0,1-1.563-.129Q.024,115.84.019,125.872a1.213,1.213,0,0,0,.019.154h0a2.6,2.6,0,0,1,1.539-.121" transform="translate(-0.016 -91.108)" fill="#1d77da"/><path d="M1.7,250.215h0q0-.061,0-.123a2.6,2.6,0,0,0-1.539.121Z" transform="translate(-0.138 -215.295)" fill="#1d77da"/><path d="M1.652,105.938c0-.042,0-.085,0-.127H.089a2.585,2.585,0,0,0,1.563.129" transform="translate(-0.077 -91.108)" fill="#1d77da"/><path d="M146.517,315.557q-.23,1.768-.46,3.537a8.948,8.948,0,0,0,3.106-.891,17.571,17.571,0,0,0,4.855-3.29.775.775,0,0,1,.13-.082l-.195-1.365-7.161-.011q-.138,1.051-.275,2.1" transform="translate(-125.763 -269.902)" fill="#a2dbf1"/><path d="M151.227,324.35a15.9,15.9,0,0,1-5.58,3.1c-.491.148-1,.426-1.544.171-.214.533-.112,1.126-.315,1.661l9.255-.005h0c-.071-.459-.147-.916-.212-1.376q-.322-2.271-.638-4.543a2.773,2.773,0,0,1-.966.992" transform="translate(-123.81 -278.43)" fill="#60c2e7"/><path d="M149.163,326.73a8.951,8.951,0,0,1-3.106.89c.547.255,1.052-.023,1.544-.171a15.9,15.9,0,0,0,5.58-3.1,2.772,2.772,0,0,0,.966-.992h0a.792.792,0,0,0-.13.083,17.569,17.569,0,0,1-4.854,3.29" transform="translate(-125.763 -278.429)" fill="#60c2e7"/><path d="M311.3,1.932q-1.546-.9-3.142-1.715a1.78,1.78,0,0,0-2.423.728c-.4.686-.767,1.395-1.148,2.094l2.6,1.47a3.961,3.961,0,0,1,.849.437h0l2.776,1.519c.388-.695.8-1.38,1.159-2.088a1.793,1.793,0,0,0-.675-2.445" transform="translate(-262.267 -0.001)" fill="#1d77da"/><path d="M275.543,29.253c.752.241,1.509.468,2.254.728.469.164.761.142,1.032-.383,1.071-2.075,2.2-4.121,3.306-6.176l-.009,0c-.694-.369-1.373-.765-2.073-1.124-.194-.1-.415-.179-.475-.431a25.135,25.135,0,0,0-1.244,2.2c-.908,1.628-1.8,3.262-2.705,4.894l-.087.292h0" transform="translate(-237.258 -18.824)" fill="#fe81a7"/><path d="M305.062,22.292c.7.359,1.379.755,2.073,1.124l.009,0,.048-.089-2.6-1.471c.06.252.28.332.475.431" transform="translate(-262.267 -18.824)" fill="#fe81a7"/><path d="M310.876,37.432c-.639-.321-1.27-.662-1.886-1.026a19.453,19.453,0,0,1-1.234,2.418c-.623,1.212-1.276,2.408-1.928,3.6-.18.329-.091.408.256.405a11.479,11.479,0,0,0,2.72-.2.289.289,0,0,1,.33.08h0l.741-1.243c.061-.124.121-.248.184-.37.572-1.1,1.236-2.157,1.747-3.292h0c-.392.079-.634-.231-.93-.38" transform="translate(-263.257 -31.348)" fill="#fe81a7"/><path d="M329.187,35.59c-.012.038-.028.075-.041.113.617.364,1.248.7,1.887,1.026.3.149.539.459.93.38h0l-2.776-1.519h0" transform="translate(-283.413 -30.645)" fill="#fe81a7"/><path d="M130.618,366.132q-3.944.008-7.889,0a.873.873,0,0,1-.685-.168q-1.453,0-2.905.01c-.367,0-.619.173-.6.555.015.352.258.507.608.485.052,0,.1,0,.156,0q7.394,0,14.788,0c.373,0,.731-.023.733-.508s-.339-.538-.72-.538c-.934,0-1.868-.008-2.8-.013a.847.847,0,0,1-.682.173" transform="translate(-102.066 -315.111)" fill="#1d77da"/><path d="M144.473,366.133q3.944.008,7.889,0a.846.846,0,0,0,.682-.173l-9.255.005a.873.873,0,0,0,.685.168" transform="translate(-123.81 -315.112)" fill="#1d77da"/><path d="M326.325,79.286h0c.537,0,1.074,0,1.61.01.163,0,.342-.049.477.095a.113.113,0,0,1,.113.014c.337-.009.675,0,1.01-.034.382-.037.456.138.454.482-.012,2.164,0,4.328,0,6.492q0,4.6,0,9.193h0a.315.315,0,0,0,.061.013,1.554,1.554,0,0,0,.027-.206q-.008-8.742-.024-17.484a2.854,2.854,0,0,0-1.543-2.737c-.426,1.02-1.041,1.941-1.532,2.928-.207.417-.435.824-.654,1.235" transform="translate(-280.984 -64.686)" fill="#a2dbf1"/><path d="M341.36,105.784a.291.291,0,0,1,.079.006h.024a.112.112,0,0,0-.113-.015l.01.009h0" transform="translate(-293.922 -91.07)" fill="#a2dbf1"/><path d="M147.927,306.784a6.063,6.063,0,0,1-1.13-.073h0a1.233,1.233,0,0,1,.632.937.936.936,0,0,1,.688-.156q2.9-.007,5.791,0a.861.861,0,0,1,.682.166,1.4,1.4,0,0,1,.621-.942,6.3,6.3,0,0,1-1.08.067q-3.1,0-6.2,0" transform="translate(-126.401 -264.095)" fill="#49ace7"/><path d="M154.777,306q-3.772,0-7.543,0c-.15,0-.314-.045-.437.093a6.076,6.076,0,0,0,1.13.073q3.1,0,6.2,0a6.3,6.3,0,0,0,1.08-.067c-.119-.144-.284-.1-.434-.1" transform="translate(-126.401 -263.477)" fill="#49ace7"/><path d="M157.821,312.307q-2.9-.009-5.791,0a.935.935,0,0,0-.688.156l7.161.011a.86.86,0,0,0-.682-.166" transform="translate(-130.314 -268.911)" fill="#49ace7"/><path d="M253.543,73.395c-.678,1.295-1.387,2.572-2.089,3.853a.658.658,0,0,1-.139.177l1.053.022h0l2.3-4.182c-.078-.129.02-.22.1-.315l-1.132,0h0a.527.527,0,0,1-.092.44" transform="translate(-216.396 -62.815)" fill="#60c2e7"/><path d="M250.887,77.451a.661.661,0,0,0,.139-.177c.7-1.282,1.411-2.559,2.089-3.853a.527.527,0,0,0,.092-.44h0l-2.389,4.468.069,0" transform="translate(-215.968 -62.841)" fill="#60c2e7"/><path d="M275.275,73.266l.013-.023h0l.087-.292c-.079.095-.177.185-.1.315" transform="translate(-237.003 -62.815)" fill="#60c2e7"/><path d="M319.555,74.189h0l-1.678,3.159.011.015,1.052.042.1-.043a.292.292,0,0,1,.027-.288,37.393,37.393,0,0,1,2.168-3.879,2.327,2.327,0,0,0-.908-.311,1.822,1.822,0,0,1-.773,1.3" transform="translate(-273.71 -62.758)" fill="#60c2e7"/><path d="M329.984,74.129h0l-.032.061h0a1.822,1.822,0,0,0,.773-1.3h0l-.741,1.243" transform="translate(-284.107 -62.759)" fill="#60c2e7"/><path d="M326.083,79.29l.01,0c.219-.411.447-.818.654-1.235.491-.986,1.106-1.907,1.532-2.928A37.379,37.379,0,0,0,326.11,79a.292.292,0,0,0-.027.288" transform="translate(-280.752 -64.686)" fill="#60c2e7"/><path d="M52.892,107.93h0a4.5,4.5,0,0,0,1.187-.108c-.3.566-.545,1.048-.8,1.523-.514.942-1.043,1.876-1.548,2.823a1.191,1.191,0,0,1-.777.631c-1.4.381-2.789.786-4.193,1.141a1.629,1.629,0,0,1-2.072-1.17c-.152-.459-.252-.937-.422-1.388-.178-.474-.057-.759.422-.91a2.011,2.011,0,0,0,.321-.167h0a.42.42,0,0,0-.017-.154c-.851-1.538-.128-2.783.737-4l.476-.955c-.018.008-.035.018-.055.025a1.441,1.441,0,0,1-1-.075.547.547,0,0,1-.082.053c-.564.873-1,1.817-1.508,2.721a1.253,1.253,0,0,0,.021,1.006c.139.5.274,1,.431,1.492a.41.41,0,0,1-.2.558,18.242,18.242,0,0,0-4.927,4.753,13.091,13.091,0,0,1-5.937,4.191c-.241.093-.481.19-.722.285h0c-.046.428-.3.576-.709.563-.464-.014-.929.012-1.393.021a28.587,28.587,0,0,1-7.508.559,20.976,20.976,0,0,1-3.485-.382h0a2.789,2.789,0,0,1-3.016,2.081,2.756,2.756,0,0,1-2.52-2.514c-.015-.31,0-.621,0-.932l-1.6-.586c.03,1.93.01,3.861.01,5.792a.962.962,0,0,1-.084.51,7.045,7.045,0,0,0,1.034.046H39.485a4.975,4.975,0,0,1,.931.037.57.57,0,0,1,.2.126h.022a9.268,9.268,0,0,1,3.475-.022.623.623,0,0,1,.073-.082,1.509,1.509,0,0,1,.955-.162q5.638-.005,11.277,0c.139,0,.277,0,.416,0,.629-.011.672-.047.673-.69,0-3.263,0-6.526,0-9.789,0-2.343-.022-4.686.013-7.028,0-.015,0-.03,0-.044a23.4,23.4,0,0,0-3.009.1c-.1.017-.241.018-.3-.039-.1-.106.02-.222.073-.323a22.832,22.832,0,0,0,1.173-2.239l-.009.005a1.8,1.8,0,0,1-.947-.026.319.319,0,0,1-.075-.074h-.019c-.541.922-1.067,1.853-1.525,2.82M42.025,117.7a11.748,11.748,0,0,0-1.09,1.229,2.793,2.793,0,1,1-5.213,1.669A2.831,2.831,0,0,1,37.1,117.8a2.711,2.711,0,0,1,3.135.245c.343-.36.694-.713,1.027-1.082.253-.28.531-.5.874-.2.373.33.144.639-.115.928M49,122.088q-2.386,0-4.772,0c-.362,0-.636-.134-.638-.517,0-.416.284-.537.671-.53.8.014,1.591,0,2.386,0,.778,0,1.556.009,2.334,0,.37-.006.631.127.639.51s-.253.536-.619.535m5.079,0q-1.22.013-2.439,0a.485.485,0,0,1-.541-.552c.014-.338.217-.488.547-.485.415,0,.83,0,1.246,0,.381,0,.762.007,1.142,0,.349-.008.589.14.6.493a.5.5,0,0,1-.558.546m.556-2.883c.008.431-.3.52-.677.518-1.626-.007-3.253,0-4.879,0-1.592,0-3.183-.006-4.775,0-.391,0-.725-.066-.714-.533.011-.425.337-.514.7-.514q4.827,0,9.654,0c.368,0,.683.107.691.527" transform="translate(-10.258 -90.506)" fill="#f9db71"/><path d="M39.833,250.588a4.974,4.974,0,0,0-.931-.037H12.363a7.044,7.044,0,0,1-1.034-.046.467.467,0,0,1-.094.114c.2.144.437.077.656.077q13.772.006,27.543,0c.2,0,.4.01.6.015a.57.57,0,0,0-.2-.126" transform="translate(-9.674 -215.698)" fill="#f9db71"/><path d="M250.518,105.222a.54.54,0,0,0,.082-.053l-.041-.027-.014.036-.027.044" transform="translate(-215.71 -90.533)" fill="#f9db71"/><path d="M257.09,123.769c-.035,2.343-.01,4.686-.013,7.028-.005,3.263,0,6.526,0,9.789,0,.643-.044.679-.673.69-.139,0-.277,0-.416,0q-5.638,0-11.277,0a1.51,1.51,0,0,0-.955.163.623.623,0,0,0-.073.082.538.538,0,0,1,.055.022,1.385,1.385,0,0,1,.664-.066c4.087,0,8.175-.009,12.262.008.461,0,.607-.1.605-.591-.019-5.57-.012-11.141-.013-16.711,0-.156-.014-.311-.021-.467-.048,0-.1,0-.145.006,0,.015,0,.03,0,.044" transform="translate(-209.822 -106.529)" fill="#f9db71"/><path d="M218.672,250.939h3.459l.016-.022a9.271,9.271,0,0,0-3.475.022" transform="translate(-188.289 -215.922)" fill="#f9db71"/><path d="M243.565,251.886h.071a.556.556,0,0,0-.055-.022l-.016.022" transform="translate(-209.723 -216.869)" fill="#f9db71"/><path d="M11.332,211.171a.962.962,0,0,0,.084-.51c0-1.93.02-3.861-.01-5.791l-.126-.046c-.007.258-.019.516-.02.774q-.013,2.782-.023,5.564l.04,0,.054.007" transform="translate(-9.677 -176.365)" fill="#f9db71"/><path d="M11.275,250.444l-.04,0v.123a.471.471,0,0,0,.094-.114l-.054-.007" transform="translate(-9.674 -215.645)" fill="#f9db71"/><path d="M252.109,105.253c.02-.007.037-.017.055-.025l.026-.053-1.052-.022c-.009.008-.018.018-.029.025a1.441,1.441,0,0,0,1,.075" transform="translate(-216.22 -90.543)" fill="#f9db71"/><path d="M250.858,105.169c.01-.008.019-.017.028-.026h-.069l.041.027" transform="translate(-215.968 -90.533)" fill="#f9db71"/><path d="M318.031,105.189a1.794,1.794,0,0,0,.947.026l.009,0c.007-.018.015-.035.022-.053l-1.052-.042a.319.319,0,0,0,.075.074" transform="translate(-273.778 -90.51)" fill="#f9db71"/><path d="M168.3,270.56c.911-.143,1.26-.779,1.514-1.522a.562.562,0,0,0-.047-.039,1.346,1.346,0,0,0-1.636.044,1.255,1.255,0,0,0-.368,1.491c.17-.07.353.055.536.026" transform="translate(-144.38 -231.405)" fill="#3d82de"/><path d="M167.116,268.157a1.346,1.346,0,0,1,1.636-.044.581.581,0,0,1,.047.039l.037-.11h0a1.436,1.436,0,0,0-1.748-.055,1.348,1.348,0,0,0-.432,1.719.3.3,0,0,1,.092-.059,1.255,1.255,0,0,1,.368-1.491" transform="translate(-143.36 -230.519)" fill="#3d82de"/><path d="M170.576,271.034a1.692,1.692,0,0,1-2.054,1.559.666.666,0,0,1,.049.269c.151-.009.25.1.363.181a1.292,1.292,0,0,0,1.366.089,1.193,1.193,0,0,0,.676-1.182c0-.132-.063-.279.034-.4-.192-.131-.272-.36-.434-.518" transform="translate(-145.107 -233.376)" fill="#3449b8"/><path d="M167.834,282.335a.663.663,0,0,0-.049-.269c-.04-.01-.079-.017-.119-.03l.122.3a.288.288,0,0,1,.045,0" transform="translate(-144.37 -242.849)" fill="#3449b8"/><path d="M183.742,270.71a.253.253,0,0,1,.033-.036h0a1.354,1.354,0,0,0-.461-.617h0c0,.046,0,.091-.006.136.162.157.243.387.434.518" transform="translate(-157.839 -232.533)" fill="#3449b8"/><path d="M171.281,274.76c-.1.119-.037.266-.034.4a1.193,1.193,0,0,1-.676,1.182,1.292,1.292,0,0,1-1.366-.089c-.113-.078-.213-.19-.363-.181a.354.354,0,0,1-.005.039,1.5,1.5,0,0,0,1.826.355,1.415,1.415,0,0,0,.663-1.683l-.018,0c-.01-.006-.018-.013-.027-.019" transform="translate(-145.377 -236.584)" fill="#3449b8"/><path d="M186.433,274.537c.009.006.017.014.027.019l.018,0c0-.019-.007-.038-.011-.058a.255.255,0,0,0-.033.036" transform="translate(-160.529 -236.361)" fill="#3449b8"/><path d="M168.547,284.193h0l.04.035a.346.346,0,0,0,.005-.039.3.3,0,0,0-.045,0" transform="translate(-145.128 -244.702)" fill="#3449b8"/><path d="M170.408,270.876c-.009-.009-.021-.017-.031-.026-.254.743-.6,1.379-1.514,1.522-.183.029-.366-.1-.536-.026.005.018.01.035.015.054l.012.035a1.692,1.692,0,0,0,2.054-1.559" transform="translate(-144.938 -233.217)" fill="#3449b8"/><path d="M167.772,281.667c-.006-.018-.01-.036-.015-.054a.3.3,0,0,0-.092.059c.04.013.079.02.119.03l-.012-.035" transform="translate(-144.369 -242.485)" fill="#3449b8"/><path d="M183.116,270.193c0-.045.007-.09.006-.136-.012.037-.025.074-.037.11.01.009.022.016.031.026" transform="translate(-157.647 -232.534)" fill="#3449b8"/><path d="M16.012,118.278a2.856,2.856,0,0,1,3.165,2.12,3.584,3.584,0,0,1,.015,1.347.664.664,0,0,1,.075-.042c.916.02,1.818.181,2.731.245a29.679,29.679,0,0,0,7.473-.367h.008l-.277-.009a.511.511,0,0,1-.041-1.017c.877-.024,1.755-.02,2.632,0a.514.514,0,0,1,.468.4,1.557,1.557,0,0,1,.549-.284,14.473,14.473,0,0,0,5.057-3.1,15.366,15.366,0,0,0,1.63-1.95,15.273,15.273,0,0,1,4.045-3.763.645.645,0,0,0,.338-.858c-.157-.477-.277-.966-.419-1.448a1.218,1.218,0,0,1,.091-.958c.421-.776.824-1.562,1.259-2.331a.687.687,0,0,1,.164-.2l-.025.005a6.825,6.825,0,0,1-1.038.033h-30.9a7,7,0,0,0-1.022.045.857.857,0,0,1,.073.413c0,4.405.025,8.811-.009,13.216v.01a3.943,3.943,0,0,1,1.618.594,2.931,2.931,0,0,1,2.345-2.1m10.6,3.3c-.811-.01-1.623,0-2.435,0-.777,0-1.554-.005-2.331,0-.36,0-.622-.1-.627-.509s.268-.532.617-.532q2.383-.006,4.766,0c.354,0,.631.145.636.528s-.258.52-.626.515m.27-11.371q2.359,0,4.718,0c.358,0,.637.127.647.511.012.424-.282.539-.663.535-.795-.01-1.59,0-2.385,0-.778,0-1.555,0-2.333,0-.353,0-.631-.084-.639-.5-.009-.441.283-.546.655-.546m-5.186.012q1.3-.03,2.593,0a.511.511,0,0,1-.023,1.019c-.449.011-.9,0-1.348,0v0c-.4,0-.8,0-1.193,0a.459.459,0,0,1-.508-.471.466.466,0,0,1,.479-.555m-.472,2.774a.431.431,0,0,1,.4-.405,1.87,1.87,0,0,1,.207-.007q4.9,0,9.8,0c.344,0,.593.117.612.479.022.395-.249.538-.6.562-.12.008-.242,0-.363,0H26.727q-2.334,0-4.668,0a1.234,1.234,0,0,1-.56-.068.479.479,0,0,1-.27-.56m-7.519-1.827a2.871,2.871,0,0,1,2.675-2.089,3.276,3.276,0,0,1,1.839.625h0c.32-.335.643-.668.958-1.008.254-.274.53-.41.841-.112.291.279.177.548-.064.808-.35.378-.688.768-1.031,1.153a2.835,2.835,0,0,1-.575,3.432,2.789,2.789,0,0,1-3.356.378,2.839,2.839,0,0,1-1.288-3.187" transform="translate(-10.32 -91.324)" fill="#fcf3d3"/><path d="M12.45,105.241h30.9a6.826,6.826,0,0,0,1.038-.032l.025-.006a.445.445,0,0,1,.181-.091h0c-.172-.013-.343-.036-.515-.036q-16.1,0-32.2,0c-.183,0-.384-.063-.544.092a.473.473,0,0,1,.09.118,7,7,0,0,1,1.022-.045" transform="translate(-9.763 -90.466)" fill="#fcf3d3"/><path d="M11.492,120.305s0-.007,0-.01c.034-4.405.012-8.811.009-13.216a.86.86,0,0,0-.073-.413l-.066.008h-.024q0,4.116.009,8.231c0,1.8.013,3.6.02,5.4.042,0,.084,0,.125,0" transform="translate(-9.763 -91.845)" fill="#fcf3d3"/><path d="M11.427,105.937a.469.469,0,0,0-.09-.118q0,.064,0,.127h.024l.065-.008" transform="translate(-9.762 -91.116)" fill="#fcf3d3"/><path d="M170.621,105.765a.686.686,0,0,0-.164.2c-.435.769-.838,1.555-1.259,2.331a1.218,1.218,0,0,0-.091.958c.142.482.261.971.419,1.448a.645.645,0,0,1-.338.858,15.273,15.273,0,0,0-4.045,3.763,15.384,15.384,0,0,1-1.63,1.95,14.473,14.473,0,0,1-5.057,3.1,1.557,1.557,0,0,0-.549.284c.008.023.016.045.022.069h0c.241-.1.48-.192.722-.285a13.092,13.092,0,0,0,5.937-4.191,18.238,18.238,0,0,1,4.927-4.753.41.41,0,0,0,.2-.558c-.157-.493-.292-.993-.431-1.492a1.252,1.252,0,0,1-.021-1.006c.508-.9.944-1.848,1.508-2.721h0a.673.673,0,0,1-.154.048" transform="translate(-135.968 -91.028)" fill="#fcf3d3"/><path d="M74.1,217.76a29.679,29.679,0,0,1-7.473.367c-.913-.064-1.815-.225-2.731-.245a.624.624,0,0,0-.075.042c0,.011,0,.022-.005.033a20.963,20.963,0,0,0,3.486.382,28.586,28.586,0,0,0,7.508-.559l-.7-.022H74.1" transform="translate(-54.949 -187.503)" fill="#fcf3d3"/><path d="M12.446,204.83c0,.015,0,.03,0,.045l1.6.586.014-.037a3.939,3.939,0,0,0-1.618-.594" transform="translate(-10.717 -176.37)" fill="#fcf3d3"/><path d="M249.409,105.494a.672.672,0,0,0,.154-.048h0l.027-.043h0a.445.445,0,0,0-.181.091" transform="translate(-214.755 -90.758)" fill="#fcf3d3"/><path d="M11.67,204.82q-.062,0-.125,0l.126.046c0-.015,0-.03,0-.045" transform="translate(-9.941 -176.36)" fill="#fcf3d3"/><path d="M145.105,87.291q1.765,0,3.53,0c.367,0,.663-.1.653-.548-.01-.42-.289-.5-.64-.494-.588.007-1.177,0-1.765,0s-1.177,0-1.765,0c-.354,0-.631.086-.63.5,0,.4.261.537.617.537" transform="translate(-124.412 -74.265)" fill="#1e77da"/><path d="M186.619,87.271a4.134,4.134,0,0,0,.617.042c0-.005,0-.01,0-.015a4.83,4.83,0,0,0,.517,0c.313-.034.515-.189.5-.537a.465.465,0,0,0-.532-.5c-.345,0-.691-.007-1.036.006a.442.442,0,0,0-.45.469.456.456,0,0,0,.38.534" transform="translate(-160.36 -74.275)" fill="#1e77da"/><path d="M343.655,121.443q-.009-6.978,0-13.955c0-.174,0-.347,0-.521-.019-.546-.058-.586-.6-.615a1.251,1.251,0,0,1-.636-.119,1.625,1.625,0,0,1,.113.881q.005,8.994,0,17.988c0,.173,0,.347,0,.52.017.512.1.6.56.6s.55-.08.557-.595c.012-.832,0-1.664.005-2.5a1.625,1.625,0,0,1,.086-.716.13.13,0,0,1,.1-.078v-.009c-.268-.249-.188-.58-.189-.882" transform="translate(-294.839 -91.473)" fill="#1e77da"/><path d="M343.376,122.159a1.624,1.624,0,0,0-.086.716c0,.832.006,1.664-.005,2.5-.007.515-.091.594-.557.595s-.543-.083-.56-.6c-.006-.173,0-.347,0-.52q0-8.994,0-17.988a1.625,1.625,0,0,0-.113-.881.61.61,0,0,1-.059-.041q0,9.616.005,19.233c0,.974,0,.949.954.973.435.011.515-.153.511-.541-.013-1.174.009-2.349.018-3.524a.13.13,0,0,0-.1.078" transform="translate(-294.474 -91.22)" fill="#1e77da"/><path d="M342.2,105.734a1.247,1.247,0,0,0,.636.119c.54.029.58.069.6.615.006.173,0,.347,0,.52q0,6.978,0,13.955c0,.3-.079.633.189.882q0-4.6,0-9.193c0-2.164-.008-4.328,0-6.492,0-.344-.072-.519-.454-.482-.335.033-.673.025-1.01.034a.176.176,0,0,1,.019.012c.006.009.01.02.016.029" transform="translate(-294.621 -90.974)" fill="#1e77da"/><path d="M342.051,105.977c-.006-.009-.01-.02-.016-.029a.178.178,0,0,0-.019-.012h-.024a.551.551,0,0,0,.059.041" transform="translate(-294.474 -91.217)" fill="#1e77da"/><path d="M318.549,106.115c-.253.487-.538.958-.787,1.537.891-.077,1.726-.058,2.562-.055a1.594,1.594,0,0,1,.552.039c-.015-.61-.006-1.22,0-1.83a.894.894,0,0,1,.122-.545.17.17,0,0,1,.027-.018,7.971,7.971,0,0,1-1.951-.013.255.255,0,0,1-.126-.1.316.316,0,0,1-.092.074c.112.368-.158.626-.3.907" transform="translate(-273.611 -90.526)" fill="#fcf3d3"/><path d="M340.237,105.92a.892.892,0,0,0-.122.545c0,.61-.012,1.22,0,1.83a.536.536,0,0,1,.146.08q.014-1.238.027-2.476h0l-.028,0a.176.176,0,0,0-.027.018" transform="translate(-292.854 -91.185)" fill="#fcf3d3"/><path d="M326.4,105.185a7.957,7.957,0,0,0,1.951.013.182.182,0,0,1,.019-.012c-.135-.144-.314-.092-.477-.095-.537-.008-1.074-.007-1.61-.01l-.008.007a.255.255,0,0,0,.126.1" transform="translate(-280.937 -90.482)" fill="#fcf3d3"/><path d="M341.245,105.841l-.01-.009a.192.192,0,0,0-.018.012l.029,0" transform="translate(-293.806 -91.127)" fill="#fcf3d3"/><path d="M325.541,105.188a.317.317,0,0,0,.092-.074l0,0-.1.043c0,.012.007.023.011.035" transform="translate(-280.3 -90.506)" fill="#fcf3d3"/><path d="M326.265,105.082l-.01,0,0,0,.008-.007" transform="translate(-280.924 -90.482)" fill="#fcf3d3"/><path d="M318.919,108.059c-.835,0-1.671-.022-2.562.055.248-.58.533-1.05.787-1.537.146-.281.416-.539.3-.907a.365.365,0,0,1-.032.018,22.839,22.839,0,0,1-1.173,2.239c-.053.1-.173.216-.073.323.054.057.2.056.3.039a23.444,23.444,0,0,1,3.009-.1c0-.029,0-.057,0-.086a1.591,1.591,0,0,0-.552-.039" transform="translate(-272.206 -90.988)" fill="#fcf3d3"/><path d="M340.174,123.229c.048,0,.1,0,.145-.006a.538.538,0,0,0-.146-.08c0,.029,0,.057,0,.086" transform="translate(-292.907 -106.033)" fill="#fcf3d3"/><path d="M325.407,105.452c0-.012-.006-.023-.011-.035-.007.018-.015.035-.022.053a.324.324,0,0,0,.032-.018" transform="translate(-280.166 -90.77)" fill="#fcf3d3"/><path d="M312.557,265.615a.479.479,0,0,0-.426.553c.021.346.012.693,0,1.04a1.128,1.128,0,0,1-1.2,1.2c-.433.009-.865,0-1.3,0a.454.454,0,0,0-.511.512c0,.338.153.522.5.527.277,0,.554,0,.949,0a2.366,2.366,0,0,0,1.942-.617c.846-.813.683-1.833.63-2.823a.465.465,0,0,0-.58-.394" transform="translate(-266.17 -228.699)" fill="#1d77da"/><path d="M286.461,285.787c-.189-.006-.378,0-.567,0h-.567a.5.5,0,0,0-.538.51.5.5,0,0,0,.518.528c.378.007.756,0,1.134,0a.519.519,0,1,0,.02-1.039" transform="translate(-245.22 -246.077)" fill="#1d77da"/><path d="M264.742,42.937c.469-.914.975-1.808,1.468-2.709a.261.261,0,0,1,.053-.065,14.97,14.97,0,0,1-2.871.167c-.5-.032-.605-.182-.375-.623,1.039-1.992,2.106-3.969,3.18-5.942a.154.154,0,0,1,.017-.023c-.241-.132-.476-.273-.724-.392a.745.745,0,0,1-.135.359c-1,1.818-1.965,3.653-2.936,5.486-.539,1.016-.552,1.013-1.644.722a13.964,13.964,0,0,1-1.936-.713c.039.2-.091.355-.181.516q-.846,1.522-1.664,3.059a1.261,1.261,0,0,1-.481.611,1.843,1.843,0,0,1-.386.958c.764-.07,1.53-.12,2.288-.228.413-.059.823-.048,1.234-.074q.986-1.82,1.972-3.64a.928.928,0,0,1,1.166-.165c.115.134-.04.214-.09.31q-1.059,2.017-2.123,4.031c.639,1.021,1.043,2.164,1.656,3.2h0l.94-1.629c-.089-.12-.038-.241.022-.357.376-.736.786-1.452,1.175-2.181.071-.132.154-.275.334-.292l.008-.015a.367.367,0,0,1,.038-.369" transform="translate(-220.537 -28.716)" fill="#fe2e6e"/><path d="M324.083,32.963a.5.5,0,0,1,.1-.081h0a3.955,3.955,0,0,0-.849-.437.341.341,0,0,1,.026.126c.248.119.484.26.724.392" transform="translate(-278.408 -27.937)" fill="#fe2e6e"/><path d="M277.494,39.691c1.091.291,1.1.294,1.644-.722.972-1.832,1.937-3.668,2.936-5.485a.747.747,0,0,0,.136-.359l-.075-.036c-1.108,2.056-2.236,4.1-3.306,6.176-.271.525-.562.547-1.032.383-.745-.261-1.5-.487-2.254-.728a.413.413,0,0,1,.014.059,13.967,13.967,0,0,0,1.936.714" transform="translate(-237.258 -28.491)" fill="#fe2e6e"/><path d="M323.061,32.572a.34.34,0,0,0-.026-.126l-.048.089.075.036" transform="translate(-278.109 -27.938)" fill="#fe2e6e"/><path d="M308.211,36.172a.143.143,0,0,0-.016.023c-1.073,1.974-2.141,3.95-3.18,5.942-.23.441-.122.591.375.623a14.948,14.948,0,0,0,2.871-.167.3.3,0,0,1,.152-.076.289.289,0,0,0-.33-.08,11.479,11.479,0,0,1-2.72.2c-.347,0-.436-.076-.256-.405.652-1.2,1.305-2.393,1.928-3.6a19.449,19.449,0,0,0,1.234-2.418l-.026-.015-.031-.017" transform="translate(-262.536 -31.146)" fill="#fe2e6e"/><path d="M328.734,35.673l.031.017.026.015c.013-.038.028-.075.041-.113a.5.5,0,0,0-.1.081" transform="translate(-283.059 -30.647)" fill="#fe2e6e"/><path d="M259.373,78.828q.819-1.536,1.664-3.059c.09-.161.22-.315.181-.516l0,0a.267.267,0,0,1-.023-.034l-2.3,4.182h0c0,.014,0,.027,0,.04a1.262,1.262,0,0,0,.481-.611" transform="translate(-222.919 -64.765)" fill="#fe2e6e"/><path d="M275.479,75.112a.422.422,0,0,0-.014-.059h0l-.012.023a.271.271,0,0,0,.023.034l0,0" transform="translate(-237.18 -64.625)" fill="#fe2e6e"/><path d="M319.156,82.353c-.492.9-1,1.8-1.468,2.709a.368.368,0,0,0-.038.369l1.678-3.158-.119.015a.262.262,0,0,0-.053.066" transform="translate(-273.483 -70.841)" fill="#fe2e6e"/><path d="M329.211,81.894l.032-.061h0a.3.3,0,0,0-.152.076l.119-.015" transform="translate(-283.367 -70.463)" fill="#fe2e6e"/><path d="M308.041,105.11c-.181.018-.263.16-.334.292-.389.728-.8,1.445-1.175,2.181-.06.117-.11.237-.022.357l.006-.01c.457-.968.984-1.9,1.525-2.82" transform="translate(-263.882 -90.506)" fill="#fe2e6e"/><path d="M255.276,106.572l.118-.01a1.843,1.843,0,0,0,.386-.957l-.028.013-.476.955" transform="translate(-219.807 -90.931)" fill="#fe2e6e"/><path d="M258.729,105.354c0-.013,0-.027,0-.04l-.026.053.028-.013" transform="translate(-222.756 -90.681)" fill="#fe2e6e"/><path d="M247.914,112.669a.955.955,0,0,0-.058.741,3.832,3.832,0,0,1,.312,1.549c-.006.01-.013.02-.02.03l.248.661h0c.3-.114.6-.246.91-.339a1.1,1.1,0,0,1,1.528.782c.12.335.2.684.3,1.026l2.5-.636a.577.577,0,0,0,.387-.315c.335-.644.678-1.283,1.019-1.924-.165-.033-.227-.177-.291-.307-.481-.97-.928-1.956-1.4-2.93,0-.016.007-.031.01-.046a3.946,3.946,0,0,0-.826-.476.733.733,0,0,1-.175.094q-1.47.134-2.933.327a.693.693,0,0,1-.5-.064l-.011.022c-.347.594-.657,1.21-1,1.806" transform="translate(-213.378 -95.134)" fill="#fcf3d3"/><path d="M247.673,116.755a3.834,3.834,0,0,0-.312-1.549.954.954,0,0,1,.058-.741c.344-.6.653-1.211,1-1.806l.011-.022a.453.453,0,0,1-.079-.066c-.864,1.22-1.588,2.465-.737,4a.42.42,0,0,1,.017.154l.021.057.02-.03" transform="translate(-212.883 -96.929)" fill="#fcf3d3"/><path d="M287.692,113.955c.473.974.92,1.96,1.4,2.93.064.129.126.273.291.306l.024-.046h0c-.613-1.035-1.016-2.178-1.656-3.2-.016-.013-.034-.024-.05-.038,0,.016-.008.031-.01.046" transform="translate(-247.719 -98.082)" fill="#fcf3d3"/><path d="M256.343,110.763q1.463-.194,2.933-.327a.735.735,0,0,0,.176-.094l-.049-.023c-.411.026-.82.015-1.234.074-.758.109-1.525.159-2.288.228-.014.025-.027.051-.039.077a.693.693,0,0,0,.5.064" transform="translate(-220.294 -94.992)" fill="#fcf3d3"/><path d="M255.355,112.572c.013-.026.026-.052.039-.077l-.118.01a.458.458,0,0,0,.079.066" transform="translate(-219.807 -96.865)" fill="#fcf3d3"/><path d="M29.72,197.709a2.687,2.687,0,0,0-5.081-1.468c-.094.18-.121.412-.328.515l.008,0a1.731,1.731,0,0,1,.092.817,2.6,2.6,0,0,0,1.88,2.411,2.646,2.646,0,0,0,2.97-1.056c.176-.265.231-.621.519-.809-.123-.119-.072-.27-.06-.414" transform="translate(-20.933 -167.687)" fill="#a2dbf1"/><path d="M28.928,211.39a2.646,2.646,0,0,1-2.97,1.056,2.6,2.6,0,0,1-1.88-2.411,1.729,1.729,0,0,0-.092-.817l-.008,0a.39.39,0,0,1-.044.021c0,.311-.019.622,0,.932a2.756,2.756,0,0,0,2.52,2.514,2.789,2.789,0,0,0,3.016-2.081c-.008-.006-.013-.013-.019-.019-.288.187-.343.543-.519.809" transform="translate(-20.599 -180.145)" fill="#a2dbf1"/><path d="M29.6,195.875a2.856,2.856,0,0,0-3.165-2.12,2.931,2.931,0,0,0-2.345,2.1l.03.016c.207-.1.234-.335.328-.515a2.687,2.687,0,0,1,5.081,1.468c-.011.145-.063.3.06.414l.024-.014a3.581,3.581,0,0,0-.015-1.347" transform="translate(-20.745 -166.8)" fill="#a2dbf1"/><path d="M63.7,218.956l-.024.014c.007.006.012.013.019.019,0-.011,0-.022.005-.033" transform="translate(-54.829 -188.533)" fill="#a2dbf1"/><path d="M24.009,209.1l-.014.037a.387.387,0,0,0,.044-.021l-.03-.016" transform="translate(-20.661 -180.049)" fill="#a2dbf1"/><path d="M185.416,197.221c-.281-.281-.563-.561-.832-.852a.5.5,0,0,1-.014-.779c.267-.253.522-.162.771.069.61.566.617.564,1.189-.06.384-.419.758-.847,1.137-1.271h0a2.711,2.711,0,0,0-3.135-.245,2.831,2.831,0,0,0-1.382,2.791,2.793,2.793,0,1,0,5.213-1.669q-.941,1-1.881,1.992c-.441.464-.622.468-1.065.024" transform="translate(-157.685 -166.785)" fill="#fe719b"/><path d="M251.872,129.416a5.532,5.532,0,0,1-2.654.7.51.51,0,0,1-.066-.05c-.477.137-.953.279-1.433.409a.628.628,0,0,1-.87-.491c-.12-.445-.238-.892-.356-1.338a.68.68,0,0,1-.289-.693.3.3,0,0,1-.054.055c-.662.5-.662.5-.431,1.292.092.316.168.637.282.946a1.522,1.522,0,0,0,2,1.088q2.009-.52,4.009-1.08a1.152,1.152,0,0,0,.746-.52c.768-1.334,1.482-2.7,2.235-4.076-.309-.113-.624.033-.883-.136-.007-.007-.011-.015-.016-.022a3.792,3.792,0,0,1-.944,1.678l-.008,0a3.35,3.35,0,0,1-1.265,2.241" transform="translate(-211.458 -108.062)" fill="#f8b223"/><path d="M252.889,124.75c.005.007.01.014.016.022.259.17.575.023.883.136-.753,1.38-1.467,2.742-2.235,4.076a1.151,1.151,0,0,1-.746.52q-2,.556-4.009,1.08a1.521,1.521,0,0,1-2-1.088c-.114-.31-.19-.63-.282-.946-.231-.79-.231-.789.431-1.292A.3.3,0,0,0,245,127.2c0-.031,0-.061,0-.092a2,2,0,0,1-.322.168c-.479.151-.6.436-.421.91.17.452.27.929.422,1.388a1.629,1.629,0,0,0,2.072,1.17c1.4-.355,2.8-.76,4.193-1.141a1.191,1.191,0,0,0,.777-.631c.5-.947,1.034-1.881,1.548-2.824.259-.475.506-.956.8-1.522a4.507,4.507,0,0,1-1.187.108l0,.013" transform="translate(-210.258 -107.313)" fill="#f8b223"/><path d="M299.978,127.161a3.794,3.794,0,0,0,.944-1.678l0,0-.94,1.629h0c0,.016-.007.033-.01.049l.008,0" transform="translate(-258.291 -108.045)" fill="#f8b223"/><path d="M306.811,125.407h0l-.006.01,0,0,0-.013" transform="translate(-264.176 -107.983)" fill="#f8b223"/><path d="M273.854,139.778l-2.5.636-.062.018a.532.532,0,0,0,.066.05,5.532,5.532,0,0,0,2.654-.7,3.35,3.35,0,0,0,1.265-2.241l-.014,0c-.34.641-.684,1.281-1.019,1.924a.577.577,0,0,1-.387.315" transform="translate(-233.594 -118.428)" fill="#f8b223"/><path d="M250.361,143.628l-.018-.067h0l-.248-.661c-.008.012-.015.024-.024.035a.68.68,0,0,0,.289.693" transform="translate(-215.325 -123.045)" fill="#f8b223"/><path d="M250.1,142.549l-.021-.057q0,.046,0,.092c.009-.011.016-.023.024-.035" transform="translate(-215.33 -122.694)" fill="#f8b223"/><path d="M299.881,137.257l.01-.049-.024.046.014,0" transform="translate(-258.202 -118.144)" fill="#f8b223"/><path d="M240.61,202.734c-.363,0-.689.089-.7.514-.012.466.323.535.714.533,1.592-.01,3.183,0,4.775,0,1.626,0,3.253,0,4.879,0,.375,0,.685-.087.677-.518s-.323-.527-.691-.527q-4.827,0-9.654,0" transform="translate(-206.576 -174.565)" fill="#2da4e6"/><path d="M198.426,188.119c-.343-.3-.621-.081-.874.2-.333.369-.683.722-1.027,1.082a1.119,1.119,0,0,1-.413.695c-.291.32-.615.606-.888.945-.306.378-.495.382-.864.063a3.2,3.2,0,0,0-.388-.343.336.336,0,0,0-.431.005.328.328,0,0,0-.074.427,3.694,3.694,0,0,0,1.179,1.215c.223.149.414-.064.584-.215.544-.485.944-1.105,1.486-1.591.15-.135.264-.33.506-.325a11.745,11.745,0,0,1,1.09-1.229c.259-.289.488-.6.115-.928" transform="translate(-166.544 -161.856)" fill="#1d77da"/><path d="M195.679,199.44c-.543.486-.943,1.106-1.486,1.591-.17.151-.361.365-.584.215a3.693,3.693,0,0,1-1.179-1.215.328.328,0,0,1,.074-.427.336.336,0,0,1,.431-.005,3.2,3.2,0,0,1,.388.343c.369.319.558.315.864-.063.273-.338.6-.625.888-.945a1.119,1.119,0,0,0,.413-.695h0c-.379.424-.753.852-1.137,1.271-.572.624-.579.626-1.189.06-.249-.231-.5-.322-.771-.069a.5.5,0,0,0,.014.779c.269.292.551.572.831.852.444.444.625.44,1.066-.024q.943-.994,1.881-1.992c-.241-.006-.355.19-.506.325" transform="translate(-165.507 -170.695)" fill="#1d77da"/><path d="M245.3,219.778c-.778.013-1.556,0-2.334,0-.8,0-1.591.01-2.386,0-.386-.007-.673.113-.671.53,0,.384.276.518.638.517q2.386-.006,4.772,0c.366,0,.626-.153.619-.536s-.269-.516-.639-.51" transform="translate(-206.575 -189.24)" fill="#2ca4e7"/><path d="M296.877,219.795c-.38.009-.761,0-1.142,0-.415,0-.831,0-1.246,0-.331,0-.533.147-.547.485a.485.485,0,0,0,.541.552q1.22.013,2.439,0a.5.5,0,0,0,.558-.546c-.014-.353-.255-.5-.6-.493" transform="translate(-253.1 -189.256)" fill="#2da4e7"/><path d="M135.872,211.056c-.5.027-1-.019-1.5.023-.233.02-.464.093-.445.393.017.269.239.295.45.333s.48-.057.68.077c.024-.006.048-.011.072-.019a7.038,7.038,0,0,1,1.331-.05.724.724,0,0,0,.694-.347.786.786,0,0,1,.072-.084,2.006,2.006,0,0,0-1.355-.326" transform="translate(-115.319 -181.726)" fill="#2ea4e7"/><path d="M144.163,213.522a.724.724,0,0,1-.694.347,7.026,7.026,0,0,0-1.33.05c-.024.008-.048.013-.072.019a.442.442,0,0,1,.121.123c.464-.009.929-.035,1.393-.021.412.013.663-.135.709-.563h0c-.018-.014-.037-.025-.055-.039a.769.769,0,0,0-.072.084" transform="translate(-122.327 -183.782)" fill="#2ea4e7"/><path d="M135.469,210.272c-.877-.019-1.755-.023-2.632,0a.511.511,0,0,0,.041,1.017l.277.009c.193-.035.39-.05.58-.1-.2-.133-.458-.036-.68-.077s-.433-.064-.45-.333c-.019-.3.212-.374.445-.393.5-.042,1,0,1.5-.023a2.007,2.007,0,0,1,1.355.326l.033-.03a.514.514,0,0,0-.468-.4" transform="translate(-113.996 -181.043)" fill="#2ea4e7"/><path d="M157.674,213.251c.018.013.037.024.055.039-.007-.023-.015-.046-.023-.069-.011.01-.022.019-.033.03" transform="translate(-135.766 -183.595)" fill="#2ea4e7"/><path d="M138.469,217.036c-.19.051-.387.066-.58.1l.7.022a.444.444,0,0,0-.121-.123" transform="translate(-118.73 -186.88)" fill="#2ea4e7"/><path d="M25.071,133.043a2.789,2.789,0,0,0,3.356-.378A2.835,2.835,0,0,0,29,129.234c-.671.719-1.339,1.442-2.014,2.158-.439.465-.652.461-1.109,0-.28-.282-.564-.561-.83-.855a.476.476,0,0,1,.013-.735.482.482,0,0,1,.733.018c.213.193.386.592.632.54s.455-.39.664-.617c.407-.444.8-.9,1.205-1.349a3.276,3.276,0,0,0-1.839-.625,2.871,2.871,0,0,0-2.675,2.089,2.838,2.838,0,0,0,1.288,3.187" transform="translate(-20.393 -110.015)" fill="#fe719b"/><path d="M78.729,153.942a1.234,1.234,0,0,0,.56.068q2.334,0,4.668,0h4.564c.121,0,.243.005.363,0,.35-.025.621-.168.6-.562-.02-.362-.269-.479-.612-.479q-4.9.007-9.8,0a1.837,1.837,0,0,0-.207.007.431.431,0,0,0-.4.405.479.479,0,0,0,.27.56" transform="translate(-67.55 -131.712)" fill="#2da4e7"/><path d="M35.983,125.264a6.293,6.293,0,0,1-.855.9.427.427,0,0,1-.708,0,3.728,3.728,0,0,0-.376-.357.344.344,0,0,0-.473-.007.324.324,0,0,0-.08.464,4.217,4.217,0,0,0,1.125,1.132c.283.187.54-.006.719-.231.484-.611,1.072-1.127,1.574-1.721.127-.151.217-.371.482-.316.343-.385.681-.775,1.031-1.154.24-.26.355-.528.064-.808-.311-.3-.588-.162-.841.112-.315.34-.639.672-.958,1.008h0c-.036.466-.486.639-.7.981" transform="translate(-28.782 -105.906)" fill="#1d77da"/><path d="M33.856,134.23c-.246.052-.42-.347-.632-.54a.482.482,0,0,0-.733-.018.476.476,0,0,0-.013.735c.267.294.551.573.83.856.458.463.671.466,1.109,0,.675-.716,1.343-1.438,2.014-2.158-.265-.055-.354.166-.482.316-.5.594-1.09,1.109-1.574,1.721-.179.225-.436.418-.719.231a4.215,4.215,0,0,1-1.125-1.132.324.324,0,0,1,.08-.464.344.344,0,0,1,.473.007,3.755,3.755,0,0,1,.376.357.427.427,0,0,0,.708,0,6.292,6.292,0,0,0,.855-.9c.217-.342.667-.514.7-.981-.4.45-.8.9-1.205,1.349-.209.227-.41.564-.664.618" transform="translate(-27.821 -113.887)" fill="#1d77da"/><path d="M115.161,136.942c.778-.007,1.555,0,2.333,0,.8,0,1.59-.007,2.385,0,.381,0,.675-.111.663-.535-.011-.383-.289-.511-.647-.511q-2.359.005-4.718,0c-.371,0-.663.1-.655.546.008.414.286.5.639.5" transform="translate(-98.61 -117.016)" fill="#2ca4e7"/><path d="M83.857,210.225q-2.383,0-4.766,0c-.349,0-.622.123-.617.533s.267.513.627.509c.777-.008,1.554,0,2.331,0,.812,0,1.623-.007,2.435,0,.368,0,.631-.127.626-.516s-.282-.527-.636-.528" transform="translate(-67.57 -181.014)" fill="#2da4e7"/><path d="M78.961,136.929c.4,0,.8,0,1.193,0v0c.449,0,.9.008,1.348,0a.511.511,0,0,0,.023-1.019q-1.3-.034-2.593,0a.466.466,0,0,0-.479.555.459.459,0,0,0,.508.471" transform="translate(-67.551 -117.008)" fill="#2da4e7"/><path d="M282.82,87.142a5.06,5.06,0,0,1,.593-1.28c.429-.808.885-1.6,1.289-2.423.07-.142.317-.334.056-.476a.491.491,0,0,0-.728.138c-.15.252-.315.5-.439.763-.351.752-.79,1.457-1.159,2.2a1.658,1.658,0,0,1-.418.619.948.948,0,0,1,.807.46" transform="translate(-242.829 -71.349)" fill="#cb1059"/><path d="M281.545,85.874a1.66,1.66,0,0,0,.418-.619c.369-.742.808-1.447,1.159-2.2.124-.266.289-.511.439-.763a.491.491,0,0,1,.728-.138c.261.142.014.334-.056.476-.4.821-.86,1.615-1.289,2.423a5.056,5.056,0,0,0-.593,1.28c.014.024.03.046.043.072q1.062-2.015,2.123-4.031c.05-.1.2-.177.09-.31a.928.928,0,0,0-1.166.165q-.988,1.819-1.972,3.64c.026,0,.05,0,.075,0" transform="translate(-242.362 -70.541)" fill="#cb1059"/><path d="M282.656,110.814a.948.948,0,0,0-.807-.46l-.026.018a3.943,3.943,0,0,1,.826.476c0-.012.005-.023.008-.034" transform="translate(-242.666 -95.021)" fill="#cb1059"/><path d="M287.766,113.7c.017.013.034.024.05.038-.013-.026-.028-.048-.043-.072,0,.011-.005.023-.007.034" transform="translate(-247.783 -97.87)" fill="#cb1059"/><path d="M281.545,110.326c-.025,0-.05,0-.075,0l.049.023.026-.018" transform="translate(-242.362 -94.993)" fill="#cb1059"/><path d="M253.951,147.712a3.31,3.31,0,0,1,1.144-.237,1.369,1.369,0,0,1-.229-.631c-.281-1.035-.776-1.291-1.795-.916a1.907,1.907,0,0,1-.54.168c.258.281.244.674.359,1.01.228.665.362.742,1.061.606" transform="translate(-217.443 -125.511)" fill="#1d77da"/><path d="M252.1,145.128a1.913,1.913,0,0,0,.54-.168c1.019-.375,1.514-.119,1.8.916a1.367,1.367,0,0,0,.229.631.894.894,0,0,1,.1.022c-.1-.342-.181-.691-.3-1.026a1.1,1.1,0,0,0-1.528-.782c-.309.092-.607.225-.91.339a.81.81,0,0,1,.07.068" transform="translate(-217.011 -124.543)" fill="#1d77da"/><path d="M254.773,149.522a3.311,3.311,0,0,0-1.144.237c-.7.136-.833.058-1.061-.606-.115-.337-.1-.729-.359-1.011-.016,0-.032,0-.048,0l0,0c.119.446.236.892.356,1.338a.627.627,0,0,0,.87.491c.479-.129.955-.271,1.433-.409a.52.52,0,0,1-.042-.04" transform="translate(-217.121 -127.559)" fill="#1d77da"/><path d="M271.025,158.116l.062-.018a.88.88,0,0,0-.1-.022.528.528,0,0,0,.042.04" transform="translate(-233.332 -136.112)" fill="#1d77da"/><path d="M252.047,147.726l0,0c.016,0,.032,0,.048,0a.833.833,0,0,0-.07-.068h0l.018.067" transform="translate(-217.011 -127.143)" fill="#1d77da"/></g></svg>