<svg xmlns="http://www.w3.org/2000/svg" xmlns:xlink="http://www.w3.org/1999/xlink" width="45.146" height="52.189" viewBox="0 0 45.146 52.189"><defs><clipPath id="a"><rect width="45.146" height="52.19" fill="none"/></clipPath></defs><g clip-path="url(#a)"><path d="M80.607.3a1.293,1.293,0,0,0-.645,1.239,6.723,6.723,0,0,1-.019.761.789.789,0,0,1-.871.8c-.593.019-1.188.015-1.781,0a1.361,1.361,0,0,0-1.522.991.451.451,0,0,1-.152.238q0,1.552,0,3.1H92.192q0-1.549,0-3.1A.653.653,0,0,1,92,3.991a1.257,1.257,0,0,0-1.286-.885c-.628-.014-1.256,0-1.884-.007-.681-.013-.94-.27-.979-.958-.01-.186-.011-.373,0-.559A1.3,1.3,0,0,0,87.161.263c-.1-.054-.218-.111-.2-.263H80.838c.021.174-.119.236-.231.3" transform="translate(-65.314)" fill="#c1cfd9"/><path d="M79.831,1.765a3.2,3.2,0,0,1,0,.456c-.02.527-.225.73-.745.733-.66,0-1.321,0-1.981,0a1.341,1.341,0,0,0-1.471,1.337v.033a.45.45,0,0,0,.152-.238A1.362,1.362,0,0,1,77.309,3.1c.593.012,1.188.016,1.781,0a.789.789,0,0,0,.871-.8,6.72,6.72,0,0,0,.019-.761A1.293,1.293,0,0,1,80.624.3c.112-.062.252-.123.231-.3a1.551,1.551,0,0,0-1.024,1.766" transform="translate(-65.331 0.001)" fill="#c1cfd9"/><path d="M159.115.263A1.3,1.3,0,0,1,159.8,1.58c-.007.186-.006.373,0,.559.039.688.3.946.979.958.628.012,1.256-.006,1.884.007a1.257,1.257,0,0,1,1.286.885.654.654,0,0,0,.192.341c0-.012,0-.023,0-.035h0a1.342,1.342,0,0,0-1.473-1.339c-.678-.006-1.357-.013-2.035,0-.457.01-.642-.241-.686-.643a2.635,2.635,0,0,1,0-.558A1.522,1.522,0,0,0,158.919,0c-.023.152.1.209.2.263" transform="translate(-137.268)" fill="#c1cfd9"/><path d="M31.777,76.725h0L28.3,76.688H21.9c-1.259,0-2.518.014-3.777.014q-6.484,0-12.967,0c-.744,0-.953-.2-.953-.918q0-19.872,0-39.743c0-.7.235-.925.958-.927l6.147-.012a.485.485,0,0,1-.1-.271c-.04-.864-.043-1.729,0-2.594a.4.4,0,0,1,.07-.2h0a2.117,2.117,0,0,1-.808.079c-2.366,0-4.732,0-7.1,0A1.9,1.9,0,0,0,1.2,34.27Q1.2,55.93,1.2,77.59a1.89,1.89,0,0,0,2.169,2.1q13.226,0,26.451,0c.17,0,.341-.009.51,0h.311c1.159-.637,1.2-1.781,1.135-2.977" transform="translate(-1.035 -27.671)" fill="#fec150"/><path d="M29.3,79.215c-.17-.014-.34,0-.51,0q-13.226,0-26.451,0A1.89,1.89,0,0,1,.165,77.1q-.005-21.66,0-43.32A1.9,1.9,0,0,1,2.339,31.63c2.366,0,4.732,0,7.1,0a2.114,2.114,0,0,0,.808-.079h0a.479.479,0,0,1,.056-.07q-4.032,0-8.064-.007A1.988,1.988,0,0,0,0,33.688Q0,55.413,0,77.137a1.985,1.985,0,0,0,2.218,2.236H28.706c.2,0,.407-.012.611-.019a2.918,2.918,0,0,0,.289-.139H29.3" transform="translate(0 -27.184)" fill="#fec150"/><path d="M74.5,32c-.045.864-.042,1.729,0,2.594a.485.485,0,0,0,.1.271h.03q0-1.551,0-3.1a.328.328,0,0,1-.056.037.4.4,0,0,0-.07.2" transform="translate(-64.321 -27.438)" fill="#fec150"/><path d="M75.278,31.556v-.033a.478.478,0,0,0-.056.07.336.336,0,0,0,.056-.037" transform="translate(-64.975 -27.229)" fill="#fec150"/><path d="M222.176,214.267h0q.007,6.872.014,13.744c0,.39.006.781,0,1.171-.013.551-.227.766-.776.774-.816.012-1.632.015-2.449.022,0,.006.008.011.01.018a2.392,2.392,0,0,1-1.125,2.96c1.828,0,3.657.014,5.485-.013a1.812,1.812,0,0,0,1.843-1.8c.015-.237.008-.475.008-.713q0-10.03,0-20.06c0-.3,0-.609.025-.911-1.039,1.585-2.072,3.175-3.033,4.809" transform="translate(-188.172 -180.924)" fill="#e9b04d"/><path d="M222.909,209.194q0,10.03,0,20.06c0,.237.007.475-.008.713a1.812,1.812,0,0,1-1.843,1.8c-1.828.027-3.656.01-5.485.013a1.932,1.932,0,0,1-.359.139q2.831.01,5.662.019a1.969,1.969,0,0,0,2.2-2.2q0-10.54,0-21.08c0-.186-.011-.373-.016-.559l-.121.185c-.023.3-.025.607-.025.912" transform="translate(-185.896 -179.749)" fill="#e9b04d"/><path d="M218.532,360.1a.185.185,0,0,0-.01-.018h-.049c.068,1.2.024,2.34-1.135,2.977h.07a2.392,2.392,0,0,0,1.125-2.96" transform="translate(-187.731 -311.032)" fill="#e9b04d"/><path d="M215.5,381.941a2.952,2.952,0,0,1-.289.139,1.94,1.94,0,0,0,.359-.139H215.5" transform="translate(-185.896 -329.91)" fill="#e9b04d"/><path d="M218.309,34.642c-.009.3,0,.606,0,.909q1.173.008,2.345.016c.738,0,.931.19.931.931q0,6.82,0,13.64c0,.2.008.39.013.586l.011.008c1.061-1.645,2.137-3.279,3.132-4.965a.269.269,0,0,1-.1-.122,2.483,2.483,0,0,1-.062-.809q0-5.042,0-10.084a2.315,2.315,0,0,0-.3-1.321,1.85,1.85,0,0,0-1.641-.86c-1.833-.01-3.665,0-5.5-.008a2.123,2.123,0,0,1,1.161,2.079" transform="translate(-187.567 -28.127)" fill="#e9b04d"/><path d="M220.99,31.635a1.849,1.849,0,0,1,1.641.86,2.313,2.313,0,0,1,.3,1.321q0,5.042,0,10.083a2.482,2.482,0,0,0,.062.809.269.269,0,0,0,.1.122l.014-.024c0-.237-.013-.474-.014-.711q0-5.313,0-10.627a1.905,1.905,0,0,0-1.844-1.98c-2-.025-4.007,0-6.01.008.092.04.178.084.261.129,1.833.009,3.666,0,5.5.008" transform="translate(-185.91 -27.191)" fill="#e9b04d"/><path d="M174.44,129.725c-.871,1.354-1.716,2.725-2.6,4.073-.076.116-.149.439-.356.314l-.011.017q-2.171,3.443-4.345,6.885c-.69,1.087-1.4,2.162-2.1,3.243h0c-.76,1.223-1.515,2.449-2.28,3.668-.992,1.58-2,3.151-2.987,4.732a4.757,4.757,0,0,0-.645,1.644h0a4.9,4.9,0,0,1,1.806.346h0c.748-1.189,1.492-2.381,2.244-3.567q3.264-5.146,6.532-10.29,3.279-5.167,6.556-10.335c.063-.1.133-.2.2-.294l-1.666-1.069a.524.524,0,0,1-.072.054.141.141,0,0,1-.078.007c.06.231-.09.4-.2.571" transform="translate(-137.443 -111.506)" fill="#fb7f85"/><path d="M273.008,128.9a.141.141,0,0,0,.078-.007.534.534,0,0,0,.072-.054l-.062-.04-.095.07h0c0,.011,0,.02.007.031" transform="translate(-235.811 -111.254)" fill="#fb7f85"/><path d="M250.263,134.141c.882-1.347,1.726-2.718,2.6-4.073.11-.17.26-.34.2-.571l-.021-.007c-.995,1.686-2.071,3.321-3.132,4.965.207.125.28-.2.356-.314" transform="translate(-215.863 -111.85)" fill="#fb7f85"/><path d="M272.9,129.339l.021.007c0-.01,0-.02-.007-.031h0l-.014.024" transform="translate(-235.72 -111.699)" fill="#fb7f85"/><path d="M197.97,143.522c-.277-.208-.59-.37-.887-.551q-1.577,2.486-3.154,4.971-3.422,5.4-6.843,10.805-2.566,4.052-5.137,8.1c-.133.209-.229.462-.483.576a4.312,4.312,0,0,1,1.144,1.507,6.372,6.372,0,0,0,1.531-1.7h0q2.611-4.132,5.223-8.262c.41-.646.833-1.284,1.252-1.924,0-.007,0-.014,0-.021a1.806,1.806,0,0,1,.349-.836c.856-1.327,1.69-2.668,2.544-4,.081-.126.137-.293.3-.334a1.825,1.825,0,0,1,.269-.577c1.539-2.362,2.994-4.778,4.549-7.13l.069-.113c-.151-.279-.491-.335-.726-.512" transform="translate(-156.745 -123.495)" fill="#fb7f85"/><path d="M276.964,150.775l-.069.113c-1.555,2.352-3.01,4.767-4.549,7.13a1.825,1.825,0,0,0-.269.577.323.323,0,0,1,.094-.011l4.845-7.674h0a.6.6,0,0,0-.052-.135" transform="translate(-235.013 -130.235)" fill="#fb7f85"/><path d="M251.525,208.508c-.854,1.329-1.688,2.67-2.544,4a1.807,1.807,0,0,0-.349.836c0,.007,0,.014,0,.021l.134-.2c.961-1.634,1.994-3.224,3.033-4.809v0a1.075,1.075,0,0,1,.027-.172c-.162.042-.219.208-.3.334" transform="translate(-214.761 -179.815)" fill="#fb7f85"/><path d="M271.88,208.278v0L272,208.1a.323.323,0,0,0-.094.01,1.083,1.083,0,0,0-.027.172" transform="translate(-234.843 -179.747)" fill="#fb7f85"/><path d="M290.807,96.4h0c.379-.583.748-1.173,1.113-1.766a1.975,1.975,0,0,0-.617-2.8c-.393-.268-.8-.518-1.209-.756a1.949,1.949,0,0,0-2.69.6c-.393.574-.734,1.182-1.136,1.751l-.013.021q1.911,1.229,3.821,2.459c.247.159.488.327.731.493" transform="translate(-247.259 -78.404)" fill="#8b9aa5"/><path d="M285.691,92.561c.4-.569.743-1.177,1.136-1.751a1.949,1.949,0,0,1,2.69-.6c.41.239.816.489,1.209.757a1.975,1.975,0,0,1,.617,2.8c-.364.592-.733,1.182-1.113,1.766h0l.062.042a10.492,10.492,0,0,0,1.357-2.136,2.006,2.006,0,0,0-.712-2.481c-.46-.32-.934-.622-1.422-.9a2.035,2.035,0,0,0-2.78.656c-.4.592-.766,1.2-1.148,1.8l.091.059.013-.021" transform="translate(-246.682 -77.541)" fill="#8b9aa5"/><path d="M276.007,114.619l-.012.026a7.834,7.834,0,0,1,1.249.778c.01-.006.02-.013.03-.019a4.8,4.8,0,0,1,1.587.919.205.205,0,0,1,.079.1c.5-.817,1.02-1.617,1.525-2.429a1.954,1.954,0,0,1-.719-.4c-1.171-.717-2.326-1.461-3.486-2.2-.134-.085-.315-.143-.386-.3-.44.71-.893,1.412-1.337,2.12a1.431,1.431,0,0,1-.232.315,3.635,3.635,0,0,1,1.7,1.079" transform="translate(-236.938 -95.97)" fill="#c8e1e6"/><path d="M274.013,112.259c.444-.707.9-1.41,1.337-2.12a.347.347,0,0,1-.032-.153l-1.62,2.563h0c.028.007.055.017.083.025a1.434,1.434,0,0,0,.232-.315" transform="translate(-236.413 -95.003)" fill="#c8e1e6"/><path d="M308.325,134.761a.319.319,0,0,1,0,.218c.513-.893,1.158-1.706,1.607-2.638a.633.633,0,0,1-.083-.008c-.5.812-1.028,1.612-1.525,2.429" transform="translate(-266.323 -114.305)" fill="#c8e1e6"/><path d="M275.865,130.084l.012-.026a3.637,3.637,0,0,0-1.7-1.079l-.021.016,1.666,1.069.043.021" transform="translate(-236.808 -111.409)" fill="#c8e1e6"/><path d="M273.781,128.824c-.028-.008-.055-.017-.083-.025l.062.04.021-.015" transform="translate(-236.413 -111.253)" fill="#c8e1e6"/><path d="M297.49,143.583a4.8,4.8,0,0,0-1.587-.919c-.011.006-.02.013-.031.019l.032.023c.3.182.61.343.887.551.235.177.575.232.726.512l.051-.084a.207.207,0,0,0-.079-.1" transform="translate(-255.567 -123.229)" fill="#c8e1e6"/><path d="M308,150.161l-.051.084a.6.6,0,0,1,.052.135h0a.319.319,0,0,0,0-.218" transform="translate(-265.998 -129.705)" fill="#c8e1e6"/><path d="M286.207,110.807c1.16.735,2.315,1.478,3.486,2.2a1.953,1.953,0,0,0,.718.4l.021-.034c-.243-.165-.484-.333-.731-.493q-1.909-1.232-3.821-2.459l-.059.094c.071.155.252.213.386.3" transform="translate(-246.885 -95.374)" fill="#c8e1e6"/><path d="M285.679,110.044l-.091-.058a.346.346,0,0,0,.032.153l.059-.094" transform="translate(-246.683 -95.003)" fill="#c8e1e6"/><path d="M319.516,132.117a.631.631,0,0,0,.083.008l-.062-.042-.021.034" transform="translate(-275.989 -114.09)" fill="#c8e1e6"/><path d="M197.607,34.812a.528.528,0,0,1-.1.285l.263.026,3.53-.032a.72.72,0,0,1-.091-.391c-.015-.251,0-.5-.013-.754a1.974,1.974,0,0,0-.938-1.635c-.1-.064-.231-.105-.3-.21h-.047a14.171,14.171,0,0,1-2.387-.072.486.486,0,0,1,.078.254c.03.843.034,1.686,0,2.529" transform="translate(-170.605 -27.666)" fill="#fec150"/><path d="M199.712,31.678h.047a.274.274,0,0,1-.041-.128l-2.446-.01a.445.445,0,0,1,.053.067,14.17,14.17,0,0,0,2.387.072" transform="translate(-170.398 -27.243)" fill="#fec150"/><path d="M197.4,34.61c.037-.843.033-1.686,0-2.529a.486.486,0,0,0-.078-.254h0a.351.351,0,0,1-.05-.031q0,1.549,0,3.1l.029,0a.528.528,0,0,0,.1-.285" transform="translate(-170.398 -27.464)" fill="#fec150"/><path d="M197.272,31.574a.352.352,0,0,0,.05.031h0a.436.436,0,0,0-.054-.067v.035" transform="translate(-170.398 -27.243)" fill="#fec150"/><path d="M215.824,32.768a1.974,1.974,0,0,1,.938,1.635c.016.251,0,.5.013.755a.721.721,0,0,0,.091.391h.042c0-.3-.008-.607,0-.91a2.123,2.123,0,0,0-1.161-2.079h-.221c.066.1.2.146.3.209" transform="translate(-186.167 -28.124)" fill="#fec150"/><path d="M215.49,31.744c-.083-.045-.169-.089-.261-.129a.276.276,0,0,0,.041.128h.221" transform="translate(-185.909 -27.308)" fill="#fec150"/><path d="M30.65,54.811c-1.718.007-3.436,0-5.154,0-.884,0-1.043.159-1.044,1.048q0,19.607,0,39.214c0,.859.14.993,1.022.993q7.577.005,15.155,0c.393,0,.786,0,1.179.013a1.047,1.047,0,0,1-.242-1.133c.427-1.627.815-3.265,1.217-4.9-.183-.208-.023-.421.037-.621A12.006,12.006,0,0,1,44.4,86.6c1.391-2.243,2.835-4.454,4.225-6.7l.088-.137Q48.7,75.46,48.7,71.152q0-4.582,0-9.163-3.821,0-7.642,0c-.663,0-1.011-.249-1.038-.716-.036-.594.281-.911.936-.911q3.694-.005,7.388,0h.357c0-1.517-.014-3.035.009-4.551a1.481,1.481,0,0,0-.3-1.015l-.053,0a.444.444,0,0,1-.338-.133c-.006.008-.011.016-.017.024a1.2,1.2,0,0,1-.738.134q-7.543,0-15.085,0a1.281,1.281,0,0,1-.742-.125.44.44,0,0,1-.029-.036.987.987,0,0,1-.752.158M46.431,77.166a.979.979,0,0,1-.88.719c-.8.013-1.6,0-2.393,0-.747,0-1.493,0-2.24,0-.535,0-.87-.267-.9-.688-.046-.555.108-.749.722-.889a2.066,2.066,0,0,1,.451-.05c1.324,0,2.647,0,3.971,0a1.95,1.95,0,0,1,.55.073c.472.135.766.458.724.834m1.029-4.118a.718.718,0,0,1,.622.7c.041.39-.217.594-.5.751a1.164,1.164,0,0,1-.539.123q-3.036.012-6.073,0c-.559,0-.908-.256-.955-.646A.8.8,0,0,1,40.884,73c1.055-.01,2.109,0,3.164,0,.97,0,1.939,0,2.909,0a2.76,2.76,0,0,1,.5.049m-6.715-9.381a2.1,2.1,0,0,1,.453-.046c1.31,0,2.62,0,3.93,0a3.469,3.469,0,0,1,.6.075.728.728,0,0,1,.668.809.834.834,0,0,1-.839.741c-.8.016-1.6,0-2.4,0-.749,0-1.5,0-2.246,0-.51,0-.851-.256-.9-.644-.071-.567.1-.8.73-.937M36.83,90.921a1.29,1.29,0,0,1-1.46,1.432c-.952,0-1.9,0-2.856,0-.935,0-1.87,0-2.8,0a1.278,1.278,0,0,1-1.424-1.416q-.011-2.85,0-5.7a1.262,1.262,0,0,1,1.382-1.406q2.881-.027,5.763,0a1.277,1.277,0,0,1,1.4,1.443q.008,2.825,0,5.65m0-12.638a1.283,1.283,0,0,1-1.414,1.429q-2.856.012-5.713,0a1.281,1.281,0,0,1-1.418-1.424q-.01-2.851,0-5.7a1.271,1.271,0,0,1,1.388-1.4q2.882-.016,5.764,0a1.273,1.273,0,0,1,1.393,1.4c.01.95,0,1.9,0,2.851s.006,1.9,0,2.851M35.393,58.542A1.288,1.288,0,0,1,36.831,60q.008,2.8,0,5.6a1.3,1.3,0,0,1-1.473,1.473q-2.806.007-5.611,0a1.3,1.3,0,0,1-1.463-1.483c0-.933,0-1.867,0-2.8s0-1.867,0-2.8a1.289,1.289,0,0,1,1.447-1.446q2.831-.008,5.662,0" transform="translate(-21.12 -47.208)" fill="#f4f4f4"/><path d="M75.511,54.587a1.28,1.28,0,0,0,.742.125q7.543,0,15.085,0a1.2,1.2,0,0,0,.738-.134c.007-.008.011-.016.017-.024l-.017-.019H75.5c-.006.006-.012.01-.018.015.01.012.018.024.029.035" transform="translate(-65.199 -47.106)" fill="#f4f4f4"/><path d="M23.234,55.482q0,19.872,0,39.743c0,.718.209.917.953.918q6.484,0,12.967,0c1.259,0,2.518-.009,3.777-.014a1.389,1.389,0,0,1-.174-.138c-.393-.013-.786-.013-1.179-.013q-7.577,0-15.155,0c-.882,0-1.022-.134-1.022-.993q-.005-19.607,0-39.214c0-.889.16-1.045,1.044-1.048,1.718-.005,3.436,0,5.154,0a.988.988,0,0,0,.752-.158l-.012-.015-6.147.012c-.724,0-.958.226-.958.927" transform="translate(-20.068 -47.113)" fill="#f4f4f4"/><path d="M75.405,54.557l.018-.015h-.03l.012.015" transform="translate(-65.122 -47.112)" fill="#f4f4f4"/><path d="M164.413,239.02l-.088.137c-1.39,2.244-2.834,4.455-4.225,6.7a12.009,12.009,0,0,0-1.575,2.828c-.059.2-.22.413-.036.621l.012-.05h0a4.754,4.754,0,0,1,.645-1.644c.991-1.58,2-3.152,2.987-4.732.766-1.219,1.521-2.445,2.281-3.668h0q0-.095,0-.189" transform="translate(-136.824 -206.459)" fill="#f4f4f4"/><path d="M197.762,54.7l.053,0a1.35,1.35,0,0,0-.116-.125h0l-.263-.026-.012.016a.445.445,0,0,0,.338.133" transform="translate(-170.53 -47.122)" fill="#f4f4f4"/><path d="M197.329,54.538l-.029,0,.017.019.012-.016" transform="translate(-170.422 -47.106)" fill="#f4f4f4"/><path d="M200.781,257.859c0,1.331-.013,2.661.013,3.991a1.733,1.733,0,0,1-.268.746,27.736,27.736,0,0,1,3.338.058.324.324,0,0,1,.117.085c.174-.179.41-.147.63-.153.577-.014,1.156.014,1.733-.013.5-.024.659-.191.7-.685.019-.22.01-.441.01-.661q0-6.562,0-13.123,0-.342.017-.683a11.982,11.982,0,0,1-.867,1.394c-1.839,2.888-3.653,5.791-5.5,8.673.125.082.08.241.08.369" transform="translate(-173.208 -213.717)" fill="#e9e9e9"/><path d="M203.551,358.727a27.762,27.762,0,0,0-3.338-.059.982.982,0,0,0-.049.138l3.474.037c.01-.012.02-.02.03-.03a.324.324,0,0,0-.117-.085" transform="translate(-172.896 -309.789)" fill="#e9e9e9"/><path d="M228.964,245.8q0,6.562,0,13.123c0,.22.008.441-.01.661-.042.493-.2.661-.7.685-.577.027-1.155,0-1.732.013-.219.005-.456-.027-.63.153a.212.212,0,0,1,.019.03c.816-.007,1.633-.009,2.449-.022.549-.008.763-.224.776-.774.009-.39,0-.781,0-1.171q-.007-6.872-.014-13.744a2.943,2.943,0,0,1-.142.363q-.017.341-.017.683" transform="translate(-195.118 -211.415)" fill="#e9e9e9"/><path d="M225.668,359.9h.049a.22.22,0,0,0-.019-.03c-.01.01-.021.019-.03.03" transform="translate(-194.926 -310.842)" fill="#e9e9e9"/><path d="M206.7,247.811a11.973,11.973,0,0,0,.867-1.394c0-.053,0-.106.008-.159-.419.64-.843,1.277-1.252,1.924q-2.616,4.128-5.223,8.262a.284.284,0,0,1,.1.04c1.849-2.882,3.663-5.785,5.5-8.673" transform="translate(-173.703 -212.711)" fill="#e9e9e9"/><path d="M248.717,244.758l-.134.2c0,.053,0,.106-.008.159a2.921,2.921,0,0,0,.142-.363" transform="translate(-214.712 -211.415)" fill="#e9e9e9"/><path d="M152.107,315.334c-.281,1.258-.592,2.509-.9,3.759a2.114,2.114,0,0,0,.041,1.682h.012a4.621,4.621,0,0,1,.695,0h.149c1.407-1.124,2.839-2.217,4.194-3.4-.358-.531-.775-1.02-1.139-1.547l.008-.013-1.193-.76a.557.557,0,0,1-.076.033c-.575-.082-1.141-.221-1.715-.3a1.149,1.149,0,0,1-.075.557" transform="translate(-130.473 -271.896)" fill="#7c8a95"/><path d="M153.2,358.724a4.621,4.621,0,0,0-.695,0h-.012a1.527,1.527,0,0,0,.09.137h.592l.173-.138H153.2" transform="translate(-131.717 -309.845)" fill="#7c8a95"/><path d="M160.867,314.53a.547.547,0,0,0,.076-.034l-.017-.011h0a4.9,4.9,0,0,0-1.806-.346.445.445,0,0,1,.033.086c.575.084,1.14.222,1.715.3" transform="translate(-137.443 -271.345)" fill="#7c8a95"/><path d="M181.2,322.359c.364.528.781,1.016,1.139,1.547l.041-.035h0a4.316,4.316,0,0,0-1.144-1.507l-.028-.018-.008.013" transform="translate(-156.515 -278.434)" fill="#7c8a95"/><path d="M149.984,318.865c.31-1.251.621-2.5.9-3.759a1.149,1.149,0,0,0,.075-.557l-.013,0a.43.43,0,0,1-.032-.034c-.4,1.634-.79,3.272-1.217,4.9a1.047,1.047,0,0,0,.243,1.133l.084,0a2.114,2.114,0,0,1-.041-1.682" transform="translate(-129.252 -271.668)" fill="#7c8a95"/><path d="M151.873,358.794a1.387,1.387,0,0,0,.174.138,1.555,1.555,0,0,1-.09-.137l-.084,0" transform="translate(-131.184 -309.917)" fill="#7c8a95"/><path d="M159.028,314.2a.453.453,0,0,0,.032.034l.013,0a.463.463,0,0,0-.033-.086h0l-.012.05" transform="translate(-137.364 -271.35)" fill="#7c8a95"/><path d="M163.831,324.3c-1.16.971-2.354,1.9-3.531,2.852a1.932,1.932,0,0,1-.281.19c1.812-.015,3.624-.022,5.436,0-.028-.291.195-.54.189-.836-.024-1.375.019-2.751-.024-4.126a6.3,6.3,0,0,1-1.1,1.31c-.127.112-.233.266-.427.259.016.181-.146.254-.259.348" transform="translate(-138.22 -278.462)" fill="#f4f4f4"/><path d="M163.28,358.7c-1.812-.025-3.624-.018-5.436,0a1.494,1.494,0,0,1-.343.139h5.812a.523.523,0,0,1-.032-.138" transform="translate(-136.045 -309.823)" fill="#f4f4f4"/><path d="M190.294,322.523a6.3,6.3,0,0,0,1.1-1.31c0-.061,0-.123-.005-.184a6.375,6.375,0,0,1-1.531,1.7.341.341,0,0,1,.006.049c.194.007.3-.147.427-.259" transform="translate(-163.997 -277.296)" fill="#f4f4f4"/><path d="M200.1,325.595c0,.3-.218.546-.19.836h.082a1.733,1.733,0,0,0,.268-.746c-.025-1.33-.008-2.661-.012-3.991,0-.128.046-.287-.08-.369l-.009.014c-.027.044-.056.087-.084.13.043,1.375,0,2.751.025,4.126" transform="translate(-172.674 -277.552)" fill="#f4f4f4"/><path d="M199.941,358.806h-.015a.523.523,0,0,0,.032.138,1,1,0,0,1,.049-.138h-.066" transform="translate(-172.691 -309.927)" fill="#f4f4f4"/><path d="M201.187,321.083l.009-.014a.284.284,0,0,0-.1-.04c0,.061,0,.123.005.184.028-.043.056-.086.083-.13" transform="translate(-173.703 -277.296)" fill="#f4f4f4"/><path d="M158.941,337.206a1.932,1.932,0,0,0,.281-.19c1.177-.95,2.371-1.88,3.531-2.852.113-.095.275-.167.259-.348a.354.354,0,0,1-.039,0l-.008-.012c-1.355,1.188-2.787,2.281-4.194,3.4h.17" transform="translate(-137.142 -288.329)" fill="#f4f4f4"/><path d="M157.673,358.787l-.173.138a1.492,1.492,0,0,0,.343-.139h-.17" transform="translate(-136.044 -309.91)" fill="#f4f4f4"/><path d="M189.558,333.577l.008.012a.319.319,0,0,0,.039,0,.3.3,0,0,0-.006-.049h0l-.041.035" transform="translate(-163.735 -288.105)" fill="#f4f4f4"/><path d="M207.686,69.7a3.569,3.569,0,0,1-.048-.863q0-6.341,0-12.681c0-.17,0-.34,0-.509-.03-.614-.192-.774-.8-.8a16.919,16.919,0,0,1-2.188-.063.364.364,0,0,1-.135-.092.681.681,0,0,1-.537.148c-.924,0-1.848.024-2.772-.012a.746.746,0,0,1,.3.6c.048,1.568.042,3.136,0,4.7a.467.467,0,0,1-.093.26c.53,0,1.059,0,1.589,0,.567.006.9.277.921.726a.794.794,0,0,1-.87.9c-.545.025-1.093.008-1.64.008l0,0a1.312,1.312,0,0,1,.12.742q0,8.165,0,16.33a2.664,2.664,0,0,1-.057.553c1.393-2.148,2.74-4.326,4.123-6.481.649-1.012,1.278-2.036,1.936-3.043.073-.112.13-.242.287-.263,0-.008,0-.016,0-.024a.617.617,0,0,1-.137-.135" transform="translate(-173.79 -47.238)" fill="#e9e9e9"/><path d="M225.618,54.621a16.921,16.921,0,0,0,2.188.063c.611.029.773.189.8.8.008.17,0,.339,0,.509q0,6.341,0,12.681a3.582,3.582,0,0,0,.048.863.616.616,0,0,0,.137.135c-.005-.2-.013-.39-.013-.586q0-6.82,0-13.64c0-.741-.193-.927-.931-.931q-1.172-.006-2.345-.016c-.008.01-.016.016-.025.025a.362.362,0,0,0,.134.092" transform="translate(-194.767 -47.079)" fill="#e9e9e9"/><path d="M208.683,166.324c-.658,1.006-1.287,2.031-1.936,3.043-1.383,2.155-2.73,4.332-4.123,6.481a2.231,2.231,0,0,1-.1.342c.7-1.081,1.41-2.155,2.1-3.243q2.181-3.438,4.345-6.885c-.157.021-.214.151-.287.263" transform="translate(-174.937 -143.439)" fill="#e9e9e9"/><path d="M202.452,54.68a.681.681,0,0,0,.537-.148c-.007-.008-.012-.017-.018-.025l-3.53.032h0a.929.929,0,0,1,.239.129c.924.036,1.848.012,2.772.012" transform="translate(-172.272 -47.083)" fill="#e9e9e9"/><path d="M225.4,54.5h-.042a.3.3,0,0,0,.018.025c.008-.008.017-.015.025-.025" transform="translate(-194.656 -47.079)" fill="#e9e9e9"/><path d="M200.717,60.965c.038-1.568.045-3.136,0-4.7a.746.746,0,0,0-.3-.6l-.124,0a1.481,1.481,0,0,1,.3,1.015c-.023,1.517-.009,3.034-.009,4.551h.043a.467.467,0,0,0,.093-.26" transform="translate(-173.006 -48.077)" fill="#e9e9e9"/><path d="M202.585,125.575q0-8.165,0-16.33a1.314,1.314,0,0,0-.12-.742l0,0h-.044q0,4.582,0,9.163,0,4.309.014,8.617l.1-.152a2.656,2.656,0,0,0,.057-.553" transform="translate(-174.84 -93.72)" fill="#e9e9e9"/><path d="M202.523,238.053q0,.095,0,.189h0a2.237,2.237,0,0,0,.1-.342l-.1.153" transform="translate(-174.934 -205.492)" fill="#e9e9e9"/><path d="M199.681,54.872a.927.927,0,0,0-.239-.129,1.367,1.367,0,0,1,.116.125l.124,0" transform="translate(-172.273 -47.286)" fill="#e9e9e9"/><path d="M173.786,162.412q2.348-3.709,4.7-7.413,3.12-4.927,6.249-9.848c1.419-2.236,2.828-4.479,4.264-6.7a1.418,1.418,0,0,1,.377-.474,2.911,2.911,0,0,1-1.243-.771,15.887,15.887,0,0,1-1.3,2.179q-4.192,6.6-8.38,13.206c-1.817,2.85-3.609,5.715-5.438,8.556a1.308,1.308,0,0,1-.415.514,1.634,1.634,0,0,1,1.188.754" transform="translate(-149.086 -118.511)" fill="#fa636f"/><path d="M172.822,160.916c1.829-2.842,3.621-5.707,5.438-8.556q4.2-6.594,8.38-13.206a15.886,15.886,0,0,0,1.3-2.179l-.037-.036c-.066.1-.136.194-.2.294q-3.278,5.167-6.556,10.335-3.265,5.145-6.532,10.29c-.752,1.186-1.5,2.378-2.244,3.567h0l.03.006a1.308,1.308,0,0,0,.415-.514" transform="translate(-148.895 -118.283)" fill="#fa636f"/><path d="M196.908,142.865a1.417,1.417,0,0,0-.377.474c-1.436,2.225-2.845,4.468-4.264,6.7q-3.125,4.923-6.249,9.848-2.348,3.708-4.7,7.413c.007.01.014.019.02.029.253-.114.35-.367.483-.576q2.576-4.046,5.137-8.1,3.422-5.4,6.843-10.805,1.575-2.487,3.154-4.971l-.045-.014" transform="translate(-156.616 -123.403)" fill="#fa636f"/><path d="M287.9,137.878l.013-.008a7.833,7.833,0,0,0-1.249-.778l-.007.015a2.914,2.914,0,0,0,1.243.771" transform="translate(-247.605 -118.416)" fill="#fa636f"/><path d="M286.43,136.96l-.043-.021.036.036.007-.015" transform="translate(-247.373 -118.284)" fill="#fa636f"/><path d="M295.821,142.827h0l-.032-.023-.013.008.045.014" transform="translate(-255.483 -123.35)" fill="#fa636f"/><path d="M173.707,317.479a1.634,1.634,0,0,0-1.187-.754l-.013.006,1.193.76.007-.012" transform="translate(-149.007 -273.579)" fill="#fa636f"/><path d="M172.41,316.69l-.03-.006.017.011.013-.006" transform="translate(-148.897 -273.543)" fill="#fa636f"/><path d="M181.261,322.272l.028.018c-.006-.01-.014-.019-.02-.029l-.007.012" transform="translate(-156.568 -278.36)" fill="#fa636f"/><path d="M61.107,177.345a1.273,1.273,0,0,0-1.393-1.4q-2.882-.016-5.764,0a1.271,1.271,0,0,0-1.388,1.4q-.011,2.851,0,5.7a1.281,1.281,0,0,0,1.418,1.424q2.856.011,5.713,0a1.283,1.283,0,0,0,1.415-1.429c.007-.95,0-1.9,0-2.851s.007-1.9,0-2.851m-2.033,2.323c-.606.84-1.214,1.678-1.843,2.5a1.092,1.092,0,0,1-1.822.009c-.314-.4-.611-.816-.9-1.237a.755.755,0,0,1-.029-.864.772.772,0,0,1,.66-.381,1.058,1.058,0,0,1,.873.65c.223.373.386.35.621,0,.369-.549.775-1.074,1.174-1.6A.832.832,0,0,1,59,178.491a.8.8,0,0,1,.069,1.176" transform="translate(-45.397 -151.971)" fill="#66b39c"/><path d="M52.57,84.618c-.006.933,0,1.867,0,2.8s0,1.867,0,2.8A1.3,1.3,0,0,0,54.033,91.7q2.806.008,5.611,0a1.3,1.3,0,0,0,1.473-1.473q.007-2.8,0-5.6a1.288,1.288,0,0,0-1.438-1.455q-2.831-.009-5.662,0a1.289,1.289,0,0,0-1.447,1.446m2.188,2.145a.731.731,0,0,1,.818.012,1.264,1.264,0,0,1,.288.283c.486.61.483.611.933,0,.343-.463.678-.933,1.035-1.386a.793.793,0,1,1,1.246.958c-.6.824-1.2,1.642-1.812,2.458a1.126,1.126,0,0,1-1.066.491.432.432,0,0,1-.232-.046A4,4,0,0,1,54.4,87.488a.625.625,0,0,1,.357-.724" transform="translate(-45.406 -71.839)" fill="#66b39c"/><path d="M59.707,268.746q-2.881-.024-5.763,0a1.262,1.262,0,0,0-1.382,1.406q-.011,2.85,0,5.7a1.279,1.279,0,0,0,1.424,1.416c.935.006,1.87,0,2.8,0,.952,0,1.9,0,2.856,0a1.29,1.29,0,0,0,1.46-1.432q.01-2.825,0-5.65a1.277,1.277,0,0,0-1.4-1.443m-.6,3.4c-.612.855-1.24,1.7-1.869,2.542a1.09,1.09,0,0,1-1.01.464,1.018,1.018,0,0,1-.206-.026,4.238,4.238,0,0,1-1.64-2.1.727.727,0,0,1,.5-.748.77.77,0,0,1,.876.221c.221.212.306.7.619.628.242-.057.4-.47.594-.728.295-.394.576-.8.884-1.182a.783.783,0,1,1,1.253.93" transform="translate(-45.398 -232.125)" fill="#66b39c"/><path d="M149.174,98.148c.321-.011.643.013.964-.014.523-.042.8-.276.8-.668s-.278-.626-.8-.654c-.338-.018-.677,0-1.014-.009a.779.779,0,0,1-.546-.122,1.324,1.324,0,0,1-.833.136c-2.175,0-4.349,0-6.524,0a2.161,2.161,0,0,0-.707.064.589.589,0,0,0-.456.6.57.57,0,0,0,.433.561,2.329,2.329,0,0,0,.806.086c2.158,0,4.315,0,6.473,0a1.209,1.209,0,0,1,.8.141.85.85,0,0,1,.6-.127" transform="translate(-120.977 -83.511)" fill="#dde9fa"/><path d="M146.575,97.993c-2.158-.005-4.315,0-6.473,0a2.327,2.327,0,0,1-.806-.086.57.57,0,0,1-.433-.561.59.59,0,0,1,.456-.6,2.165,2.165,0,0,1,.707-.064c2.175,0,4.349,0,6.524,0a1.323,1.323,0,0,0,.833-.136.322.322,0,0,1-.026-.022H147q-3.694,0-7.388,0c-.656,0-.972.317-.936.911.028.467.375.715,1.038.716q3.821.006,7.643,0c.006-.007.013-.011.02-.017a1.21,1.21,0,0,0-.8-.141" transform="translate(-119.783 -83.37)" fill="#dde9fa"/><path d="M202.571,96.534a.778.778,0,0,0,.546.122c.338.01.677-.009,1.014.009.524.028.808.265.8.654s-.28.626-.8.668c-.321.026-.643,0-.964.013a.851.851,0,0,0-.6.127c.008.006.016.01.024.017.547,0,1.094.017,1.64-.008a.794.794,0,0,0,.87-.9c-.016-.448-.355-.72-.921-.725-.53-.006-1.059,0-1.589,0l-.013.019,0,0" transform="translate(-174.97 -83.363)" fill="#dde9fa"/><path d="M202.448,96.537l.013-.019h-.043c.008.009.017.015.026.022l0,0" transform="translate(-174.843 -83.37)" fill="#dde9fa"/><path d="M202.438,108.379c-.007.006-.014.01-.02.017h.044c-.008-.007-.016-.011-.024-.017" transform="translate(-174.843 -93.615)" fill="#dde9fa"/><path d="M142.672,189.294c-1.055,0-2.109-.007-3.164,0a.8.8,0,0,0-.869.978c.047.39.4.644.955.646q3.036.012,6.072,0a1.163,1.163,0,0,0,.539-.123c.284-.157.542-.361.5-.751a.718.718,0,0,0-.622-.7,2.757,2.757,0,0,0-.5-.049c-.97,0-1.939,0-2.909,0" transform="translate(-119.744 -163.505)" fill="#dde9fa"/><path d="M144.34,213.326a1.955,1.955,0,0,0-.55-.073c-1.324,0-2.647,0-3.971,0a2.064,2.064,0,0,0-.451.05c-.614.14-.767.335-.722.889.035.421.37.683.9.688.747.006,1.493,0,2.24,0,.8,0,1.6.009,2.393,0a.979.979,0,0,0,.88-.719c.042-.377-.252-.7-.724-.834" transform="translate(-119.753 -184.202)" fill="#dde9fa"/><path d="M139.508,122.1c.749.006,1.5,0,2.246,0,.8,0,1.6.011,2.4,0a.834.834,0,0,0,.839-.741.728.728,0,0,0-.668-.809,3.472,3.472,0,0,0-.6-.075c-1.31,0-2.62,0-3.93,0a2.1,2.1,0,0,0-.453.046c-.627.141-.8.37-.73.937.048.388.39.64.9.644" transform="translate(-119.714 -104.055)" fill="#dde9fa"/><path d="M70.446,193.675a.832.832,0,0,0-1.194.252c-.4.529-.8,1.053-1.174,1.6-.236.351-.4.374-.621,0a1.058,1.058,0,0,0-.873-.65.772.772,0,0,0-.66.381.755.755,0,0,0,.029.864c.286.421.582.837.9,1.237a1.092,1.092,0,0,0,1.822-.009c.628-.823,1.237-1.661,1.843-2.5a.8.8,0,0,0-.069-1.176" transform="translate(-56.839 -167.155)" fill="#f5f8f8"/><path d="M67.4,102.852a.436.436,0,0,0,.232.045,1.126,1.126,0,0,0,1.066-.491c.608-.816,1.215-1.634,1.812-2.458a.793.793,0,1,0-1.246-.958c-.357.453-.692.923-1.035,1.386-.45.608-.448.607-.933,0a1.267,1.267,0,0,0-.288-.283.731.731,0,0,0-.818-.012.625.625,0,0,0-.357.724,4,4,0,0,0,1.568,2.049" transform="translate(-56.842 -85.154)" fill="#f5f8f8"/><path d="M70.511,284.329a.774.774,0,0,0-1.113.231c-.308.383-.589.788-.884,1.182-.193.257-.352.671-.594.728-.313.074-.4-.416-.619-.628a.77.77,0,0,0-.877-.221.727.727,0,0,0-.5.749,4.238,4.238,0,0,0,1.64,2.1,1.039,1.039,0,0,0,.206.026,1.09,1.09,0,0,0,1.01-.464c.628-.844,1.256-1.687,1.869-2.542a.772.772,0,0,0-.14-1.161" transform="translate(-56.946 -245.467)" fill="#f5f8f8"/></g></svg>